<svg width="1752" height="396" viewBox="0 0 1752 396" fill="none" xmlns="http://www.w3.org/2000/svg">
    <g opacity="0.3">
        <g clip-path="url(#clip0)">
            <path d="M1714.94 309.3C1724.14 292.4 1725.44 271.8 1714.14 254.6C1713.74 254 1712.94 253.7 1712.34 254.1C1696.24 265 1681.64 281.6 1680.54 300.8C1677.74 300.6 1673.34 300.8 1671.74 303.4C1670.74 305.1 1671.14 307.6 1671.14 309.5C1671.14 312.4 1671.14 315.3 1671.14 318.2C1671.14 320.3 1670.24 324.8 1673.54 324.9C1676.74 324.9 1681.14 319.8 1683.04 317.5C1683.34 318.3 1683.64 319 1684.04 319.7C1682.24 321.6 1680.84 323.7 1679.54 326C1679.14 326.6 1679.54 327.5 1680.24 327.7C1680.64 327.8 1681.04 327.9 1681.34 328C1677.94 330.8 1676.04 334.9 1676.14 339.4C1676.24 346.4 1681.84 349.4 1684.44 355.3C1684.84 356.2 1686.24 356.1 1686.74 355.3C1689.64 350.1 1696.14 348.6 1699.04 343.5C1701.04 339.9 1701.14 335.9 1699.74 332.2C1699.84 332.2 1699.94 332.2 1700.04 332.3C1700.74 332.4 1701.44 332 1701.44 331.2C1701.44 329.5 1701.54 327.9 1701.44 326.2C1701.74 326.2 1702.04 326.1 1702.34 325.8C1703.44 324.8 1704.44 323.8 1705.34 322.7C1705.34 326.3 1705.74 329.9 1706.54 333.5C1706.74 334.4 1707.94 334.6 1708.54 334C1711.34 331.3 1713.94 328.5 1716.44 325.6C1717.94 323.8 1720.14 321.7 1720.74 319.5C1721.84 315.6 1718.14 311.6 1714.94 309.3ZM1681.54 315.7C1679.94 317.3 1677.04 321.2 1674.84 321.6C1673.24 322 1673.94 322.3 1673.64 320.5C1673.34 319.1 1673.64 317.2 1673.64 315.7C1673.64 313.2 1673.24 310.2 1673.64 307.8C1674.04 305.3 1674.94 304 1677.34 303C1678.34 302.6 1679.44 302.5 1680.44 302.2C1680.34 306.4 1680.94 310.8 1682.34 315.2C1682.04 315.3 1681.74 315.4 1681.54 315.7ZM1712.64 257.2C1716.04 262.8 1718.14 268.7 1719.04 274.6C1718.84 274.6 1718.74 274.6 1718.54 274.6C1710.64 276.8 1703.54 274.9 1696.74 270.7C1701.44 265.6 1706.94 261.1 1712.64 257.2ZM1691.24 347.3C1689.14 348.7 1687.24 350.1 1685.74 352C1683.54 348.6 1680.14 346 1679.14 342C1677.94 337 1679.84 331.9 1683.54 328.5C1684.04 328.6 1684.64 328.8 1685.14 328.9C1682.44 330.5 1681.04 333.6 1681.24 336.8C1681.44 340.5 1684.04 343.4 1686.54 346C1687.04 346.5 1687.94 346.4 1688.34 345.8C1691.34 341.3 1699.24 338.2 1696.74 331.5C1696.84 331.5 1696.84 331.5 1696.94 331.5C1696.94 331.6 1696.94 331.6 1697.04 331.7C1700.04 338.3 1696.74 343.5 1691.24 347.3ZM1694.64 332C1696.44 336.9 1690.44 340.1 1687.24 343.5C1685.74 341.8 1684.14 340.1 1683.54 337.9C1682.74 334.8 1684.04 332 1685.94 329.6C1686.04 329.5 1686.04 329.3 1686.04 329.2C1688.94 329.9 1691.84 330.6 1694.74 331.1C1694.54 331.3 1694.44 331.6 1694.64 332ZM1699.24 329.6C1693.54 328.6 1687.84 327.3 1682.24 325.7C1683.24 324.1 1684.14 322.4 1685.04 320.8C1688.44 324.5 1694.54 325.7 1699.34 326.2C1699.34 327.4 1699.24 328.5 1699.24 329.6ZM1700.54 323.7C1700.44 323.8 1700.34 323.9 1700.34 324C1693.94 323.1 1688.24 322.3 1684.44 316.7C1682.04 304.5 1682.94 292 1689.14 281.1C1690.94 278 1693.04 275.1 1695.34 272.4C1701.74 278.3 1711.04 279.8 1719.24 277.5H1719.34C1720.94 294.3 1713.34 311.6 1700.54 323.7ZM1715.64 322.4C1713.44 325.2 1711.04 327.9 1708.54 330.4C1708.04 327.5 1707.74 324.5 1707.64 321.5C1707.64 321 1707.34 320.7 1707.04 320.5C1709.64 317.5 1711.94 314.2 1713.94 310.8C1717.04 314.6 1719.44 317.6 1715.64 322.4Z" fill="white"/>
            <path d="M1707.74 282.2C1707.24 282.1 1706.84 282.2 1706.54 282.5C1696.74 278.2 1687.14 294.3 1698.74 298.3C1703.84 300 1710.04 298.4 1712.44 293.3C1714.54 289 1712.44 283.5 1707.74 282.2ZM1710.04 292.4C1708.24 295.9 1704.14 296.9 1700.64 296C1699.04 295.6 1696.94 294.5 1696.34 292.8C1695.64 290.8 1696.94 288.2 1698.24 286.8C1700.54 284.3 1704.04 283.9 1707.14 284.7C1710.04 286.1 1711.64 289.2 1710.04 292.4Z" fill="white"/>
        </g>
        <g clip-path="url(#clip1)">
            <path d="M508.142 342C508.142 341.9 508.042 341.9 508.042 341.9C508.342 341.5 508.442 341.1 508.142 340.6C501.442 331.4 494.342 322.5 487.442 313.5C482.442 307 477.042 300.8 468.642 298.7C461.842 297 454.242 298.4 449.442 303.6C445.042 308.5 443.542 315.5 446.742 321.3C446.842 321.5 447.042 321.6 447.242 321.7C448.442 325.4 450.442 328.7 454.842 329.5C458.842 330.2 463.442 326.8 462.242 322.5C462.142 322.2 461.942 322 461.642 321.9C461.042 319.9 460.242 317.7 461.042 315.7C461.742 313.7 463.742 312.6 465.742 313.3C465.942 313.4 466.142 313.3 466.242 313.2C466.742 313.6 467.342 314.1 467.842 314.6C467.942 314.7 467.942 314.8 468.042 314.9C468.142 315.1 468.342 315.2 468.542 315.2C478.142 323.7 485.842 334.8 494.642 344.1C497.342 347 501.142 350.9 505.642 349.5C508.842 348.3 510.142 344.7 508.142 342ZM453.742 303.7C453.742 303.8 453.642 303.8 453.642 303.9C453.042 307.8 456.242 312 459.542 314C458.742 315.3 458.642 316.8 458.842 318.3C454.942 318.4 451.642 317.3 447.842 315.8C447.742 315.8 447.642 315.7 447.542 315.8C447.542 311 449.842 306.5 453.742 303.7ZM451.342 325.5C450.142 324.3 449.142 322.8 448.342 321.1C448.342 321 448.442 320.8 448.342 320.6C448.042 319.7 447.842 318.8 447.742 317.8C450.942 320.2 455.342 320.7 459.242 319.8C459.542 320.8 460.042 321.9 460.542 322.8C460.442 328.2 454.642 328.6 451.342 325.5ZM466.642 311.5C466.342 311.3 465.942 311.2 465.642 311C465.342 310.9 465.042 311 464.842 311.1C463.342 310.8 461.842 311.4 460.642 312.4C459.242 311.3 457.942 310 456.942 308.5C456.042 307 455.742 305.3 455.042 303.7C454.942 303.4 454.642 303.3 454.242 303.4C454.742 303.1 455.242 302.8 455.842 302.5C459.442 300.8 463.342 300.6 467.142 301.4C465.442 304.1 465.642 308.2 466.642 311.5ZM477.142 320.3C474.642 317.5 471.942 314.8 468.842 312.8C468.542 311 468.042 309.1 468.042 307.2C468.042 305.2 468.642 303.7 469.442 302C472.442 303 475.242 304.7 477.542 306.7C478.042 307.1 478.442 307.5 478.842 308C477.042 311.6 476.442 316.2 477.142 320.3ZM488.542 333.4C486.742 331.4 485.042 329.4 483.242 327.4C482.142 326.2 481.042 324.9 479.942 323.6V323.5C478.842 318.5 479.142 314.2 480.342 309.5C484.042 313.4 487.142 317.9 490.442 322.1C488.742 325.4 488.242 329.5 488.542 333.4ZM492.042 337.2C491.642 336.8 491.242 336.3 490.842 335.9C490.342 331.7 490.942 327.9 491.942 323.9C494.842 327.6 497.642 331.2 500.542 334.9C498.742 337.6 497.942 340.9 498.142 344.2C497.742 343.8 497.342 343.4 497.042 343C495.342 341.1 493.642 339.1 492.042 337.2ZM500.542 346.6C500.542 346.5 500.542 346.5 500.542 346.4C499.842 342.9 500.342 339.7 501.742 336.5C503.242 338.4 504.742 340.2 506.242 342C506.342 342.1 506.342 342.1 506.442 342.2C506.342 342.4 506.342 342.7 506.542 343C504.842 347.1 502.942 348.3 500.542 346.6Z" fill="white"/>
        </g>
        <g clip-path="url(#clip2)">
            <path d="M1466.94 204C1466.04 202.3 1463.54 201.2 1461.84 202.3C1461.64 202.4 1461.54 202.6 1461.54 202.7C1460.24 203.3 1459.44 204.9 1459.84 206.4C1460.44 208.5 1462.84 210 1464.94 209.1C1466.84 208.3 1467.84 205.9 1466.94 204ZM1464.94 207.3C1463.94 208.1 1462.44 207.7 1461.84 206.7C1461.04 205.5 1461.74 203.8 1463.24 203.6C1463.34 203.6 1463.54 203.5 1463.54 203.4C1464.24 203.4 1464.84 203.6 1465.34 204.2C1466.14 205.2 1465.84 206.6 1464.94 207.3Z" fill="white"/>
            <path d="M1521.14 209.3C1520.24 205 1516.64 201.5 1512.44 201.5C1519.34 190 1514.94 173.2 1501.94 168.4C1489.84 163.9 1476.54 170.8 1471.74 182.2C1467.74 179 1461.74 179 1457.04 181C1450.14 183.8 1445.64 190.5 1442.14 196.7C1441.64 197.5 1442.54 198.2 1443.24 197.8C1443.14 198.2 1443.24 198.8 1443.84 199C1446.94 200.2 1450.04 201.3 1453.24 202.3C1453.04 202.7 1452.94 203 1452.84 203.4C1450.94 209.2 1456.24 215 1461.74 215.9C1465.64 216.5 1469.54 214.7 1471.84 211.7C1473.24 213.3 1475.54 214.2 1477.44 215.1C1479.44 216.1 1481.44 216.9 1483.44 217.7C1483.24 218.6 1483.14 219.6 1483.24 220.6C1483.84 226.6 1489.74 230.4 1495.44 229.2C1497.84 228.7 1500.04 227.5 1501.64 225.8C1504.94 226.7 1507.94 228.1 1510.94 229.7C1511.74 230.1 1512.44 229.7 1512.74 229C1513.34 229.5 1514.44 229.6 1514.94 228.8C1518.24 223.1 1522.64 216.2 1521.14 209.3ZM1462.74 213.7C1458.34 213.3 1454.04 209.2 1455.14 204.6C1456.14 200.6 1460.44 198 1464.54 197.7C1464.64 197.8 1464.74 197.8 1464.84 197.9C1468.44 199 1471.74 201.8 1471.64 205.9C1471.54 210.5 1467.14 214.1 1462.74 213.7ZM1492.44 226.9C1488.64 226.5 1485.44 223.1 1485.74 219.2C1486.04 215 1489.64 212.6 1493.34 211.8C1493.54 211.8 1493.64 211.7 1493.74 211.6C1497.84 210.8 1501.94 215.7 1502.14 219.5C1502.14 224.2 1496.64 227.4 1492.44 226.9ZM1517.64 217.1C1516.34 220.8 1514.04 224.1 1512.54 227.7C1512.44 227.6 1512.34 227.6 1512.24 227.5C1509.44 225.9 1506.34 224.7 1503.14 223.9C1504.44 221.7 1504.84 218.9 1503.64 216.1C1502.04 212 1495.34 206 1491.14 210.3C1491.04 210.4 1491.04 210.5 1491.04 210.5C1488.04 211 1485.54 213 1484.24 215.7C1482.04 214.9 1479.84 214 1477.64 213C1475.94 212.2 1474.24 211.1 1472.44 210.7C1473.04 209.6 1473.54 208.5 1473.74 207.2C1474.64 201.7 1470.64 196.1 1465.04 195.5C1464.64 195.5 1464.44 195.6 1464.24 195.8C1460.54 195.6 1456.74 197.4 1454.44 200.3C1451.14 199.1 1447.74 198.2 1444.34 197.3C1444.14 197.2 1443.94 197.3 1443.84 197.3C1450.34 188.4 1459.94 176.2 1471.74 185C1472.64 185.7 1473.64 184.4 1473.04 183.5C1478.64 174.5 1487.84 167.2 1499.14 170.3C1512.94 174 1515.74 190.2 1509.34 201.4C1509.04 201.9 1509.14 202.3 1509.34 202.7C1509.14 203.3 1509.44 204 1510.14 203.9C1518.04 203 1519.64 211.1 1517.64 217.1Z" fill="white"/>
            <path d="M1497.34 219C1497.04 217 1494.84 215.1 1492.84 215.9C1492.44 216.1 1492.24 216.4 1492.34 216.8C1491.04 217 1490.04 218.3 1490.24 219.8C1490.44 221.9 1492.34 223.2 1494.34 222.8C1496.14 222.4 1497.64 220.9 1497.34 219ZM1494.34 220.9C1493.54 221.1 1492.64 220.9 1492.24 220.2C1491.64 219.1 1492.54 217.6 1493.84 217.8C1494.04 217.8 1494.14 217.7 1494.14 217.6C1494.74 217.8 1495.34 218.2 1495.54 219C1495.84 219.9 1495.24 220.7 1494.34 220.9Z" fill="white"/>
            <path d="M1495.84 174.1C1487.84 174 1480.04 178.1 1477.84 186.4C1477.74 186.9 1477.84 187.2 1478.04 187.5C1478.04 187.7 1478.04 188 1478.34 188.1C1481.74 190.2 1485.34 191.6 1489.14 192.9C1489.84 193.1 1490.34 192.6 1490.64 192.1C1492.74 186.8 1494.74 181.4 1496.94 176.1C1497.34 175.1 1496.94 174.1 1495.84 174.1ZM1488.64 190.2C1485.64 189.4 1482.84 188.4 1479.94 187.3C1480.04 187.2 1480.04 187.1 1480.14 186.9C1482.04 181.2 1487.64 176.1 1494.04 176.4C1492.04 180.9 1490.14 185.5 1488.64 190.2Z" fill="white"/>
            <path d="M1501.54 176.4C1501.34 175.9 1500.64 175.7 1500.44 176.3C1499.14 179.2 1498.14 182.3 1497.14 185.3C1496.34 187.6 1494.44 191.1 1494.54 193.5C1494.64 194.8 1494.94 195 1495.94 195.7C1498.74 197.3 1502.84 198 1505.84 199C1506.54 199.2 1507.04 198.8 1507.24 198.2C1507.44 198.1 1507.54 198 1507.64 197.8C1511.94 190.7 1507.84 180.7 1501.54 176.4ZM1496.94 193.5C1496.64 193 1497.94 190.3 1498.04 189.7C1499.14 186 1500.34 182.3 1501.14 178.5C1506.54 183.5 1507.14 189.7 1505.74 196.6C1503.84 196 1501.94 195.4 1500.04 194.7C1499.44 194.4 1497.34 194 1496.94 193.5Z" fill="white"/>
        </g>
        <g clip-path="url(#clip3)">
            <path d="M1343.44 59.8001C1347.54 56.0001 1347.44 49.1001 1342.84 45.4001C1341.94 44.7001 1340.94 44.1001 1340.04 43.7001C1340.04 43.6001 1340.04 43.5001 1340.04 43.4001C1339.04 20.4001 1321.24 1.50006 1298.04 0.100062C1287.04 -0.599938 1276.04 3.00006 1267.54 10.1001C1259.84 16.5001 1252.84 26.6001 1252.54 36.9001V37.0001C1249.54 37.3001 1246.64 38.4001 1245.24 41.3001C1244.54 42.8001 1244.24 44.6001 1244.64 46.2001C1240.34 44.4001 1234.64 44.4001 1233.24 50.0001C1232.04 54.6001 1236.34 57.0001 1240.44 57.4001C1235.44 61.0001 1232.24 69.1001 1237.64 73.2001C1242.54 76.9001 1252.34 74.7001 1254.84 68.8001C1255.74 73.0001 1260.34 76.1001 1264.74 74.7001C1268.14 73.6001 1270.54 69.9001 1270.44 66.3001C1276.14 68.9001 1283.44 63.3001 1283.24 56.9001C1283.14 53.1001 1281.24 50.1001 1278.64 48.1001C1280.34 41.2001 1284.74 35.4001 1292.04 34.1001C1300.04 32.6001 1310.24 38.2001 1308.54 47.4001C1308.54 47.5001 1308.54 47.6001 1308.54 47.7001C1306.24 51.1001 1307.64 55.5001 1310.44 58.8001C1305.44 58.4001 1300.74 63.3001 1301.84 68.6001C1302.44 71.5001 1304.64 73.8001 1307.64 74.3001C1309.44 74.6001 1311.64 74.2001 1313.04 73.1001C1314.44 77.2001 1318.64 80.2001 1323.04 79.8001C1326.94 79.5001 1330.44 76.4001 1331.54 72.7001C1335.54 76.6001 1342.44 76.3001 1346.34 72.0001C1350.64 67.3001 1348.14 62.2001 1343.44 59.8001ZM1268.34 13.0001C1276.34 5.90006 1286.74 2.40006 1297.34 2.80006C1319.14 3.70006 1336.14 21.5001 1337.04 43.1001C1333.74 42.9001 1330.44 44.6001 1328.14 47.3001C1330.24 30.6001 1317.94 14.3001 1301.04 11.7001C1285.34 9.30006 1259.14 20.7001 1262.64 40.2001C1262.84 41.3001 1264.64 41.0001 1264.64 39.9001C1264.54 21.9001 1286.04 11.6001 1301.84 14.7001C1317.54 17.8001 1328.04 33.6001 1325.04 49.1001C1323.74 47.3001 1322.14 45.8001 1320.24 44.9001C1320.24 44.7001 1320.34 44.6001 1320.24 44.3001C1318.64 31.0001 1307.64 20.6001 1293.94 20.9001C1281.04 21.2001 1268.64 31.9001 1269.24 45.4001C1269.24 45.5001 1269.24 45.5001 1269.24 45.5001C1267.64 45.6001 1265.94 46.1001 1264.44 46.8001C1265.74 41.3001 1259.64 37.1001 1254.24 36.9001C1257.54 27.8001 1260.84 19.6001 1268.34 13.0001ZM1280.14 55.6001C1281.54 62.1001 1275.14 66.4001 1269.74 63.7001C1269.54 63.4001 1269.44 63.1001 1269.24 62.8001C1268.64 61.9001 1266.84 62.4001 1267.34 63.6001C1268.54 66.9001 1267.94 71.1001 1264.34 72.5001C1260.44 74.0001 1256.34 70.6001 1255.64 66.8001C1255.64 66.6001 1255.44 66.5001 1255.24 66.5001C1254.94 66.1001 1254.34 66.0001 1253.94 66.4001C1250.34 70.1001 1246.64 74.5001 1240.84 71.8001C1232.84 68.3001 1241.24 60.4001 1244.64 57.1001C1245.44 56.7001 1245.14 55.5001 1244.24 55.4001C1241.34 55.1001 1234.04 55.1001 1235.64 50.1001C1237.04 45.7001 1242.34 46.6001 1245.64 48.1001C1245.74 48.3001 1245.84 48.4001 1246.04 48.6001C1246.74 49.4001 1248.14 48.6001 1247.74 47.6001C1245.94 42.7001 1248.64 39.3001 1254.04 39.4001C1258.94 39.5001 1263.84 43.0001 1262.04 48.4001C1261.74 49.3001 1263.14 49.9001 1263.64 49.1001C1263.74 49.0001 1263.74 48.9001 1263.84 48.8001C1264.04 49.0001 1264.44 49.2001 1264.84 49.1001C1270.84 47.2001 1278.54 48.2001 1280.14 55.6001ZM1295.44 31.4001C1286.24 31.2001 1278.14 38.0001 1276.84 47.0001C1274.94 46.0001 1272.74 45.4001 1270.54 45.4001C1273.04 33.9001 1280.34 24.1001 1293.04 23.4001C1305.44 22.9001 1315.64 32.0001 1317.34 44.0001C1315.44 43.7001 1313.44 44.0001 1311.54 45.1001C1311.34 37.1001 1303.34 31.6001 1295.44 31.4001ZM1344.04 70.8001C1340.44 74.3001 1335.54 73.5001 1332.04 70.5001C1332.04 70.3001 1332.04 70.1001 1332.04 69.9001C1331.94 68.7001 1329.94 68.2001 1329.74 69.6001C1329.24 73.2001 1327.44 76.5001 1323.64 77.3001C1319.44 78.2001 1315.84 74.9001 1314.74 71.2001C1314.64 70.8001 1314.34 70.6001 1314.04 70.5001C1313.84 70.4001 1313.64 70.4001 1313.44 70.5001C1311.74 71.5001 1310.44 72.6001 1308.24 72.2001C1305.94 71.8001 1304.44 70.0001 1304.14 67.8001C1303.64 62.6001 1308.54 60.2001 1313.04 61.3001C1313.94 61.5001 1314.44 60.3001 1313.64 59.8001C1313.54 59.8001 1313.54 59.7001 1313.44 59.7001C1310.94 55.8001 1307.14 50.6001 1312.74 47.3001C1317.84 44.2001 1322.44 48.4001 1324.74 52.8001C1325.24 53.8001 1327.04 53.1001 1326.64 52.0001C1326.54 51.8001 1326.44 51.6001 1326.34 51.4001C1326.74 51.7001 1327.34 51.7001 1327.64 51.2001C1329.84 46.5001 1335.54 43.7001 1340.34 46.6001C1345.04 49.5001 1344.84 55.7001 1340.54 58.6001C1340.04 58.6001 1339.74 58.8001 1339.54 59.2001C1338.44 60.1001 1339.64 61.9001 1341.04 61.2001H1341.14C1342.34 61.9001 1343.54 62.6001 1344.54 63.6001C1346.84 65.9001 1346.04 68.8001 1344.04 70.8001Z" fill="white"/>
        </g>
        <g clip-path="url(#clip4)">
            <path d="M1335.64 386C1335.54 385.7 1335.44 385.4 1335.14 385.3C1335.24 385 1335.24 384.6 1335.04 384.2C1329.44 375.3 1323.84 366.4 1318.24 357.5C1313.04 349.2 1308.34 340 1302.04 332.5C1301.94 332.4 1301.84 332.3 1301.74 332.3C1301.74 332.2 1301.64 332.2 1301.64 332.1C1297.14 327.1 1291.74 322.9 1286.14 319.2C1285.34 318.6 1284.34 319.4 1284.24 320.3C1283.74 326.9 1283.74 334.8 1286.84 340.8C1286.94 340.9 1287.04 340.9 1287.04 341C1286.94 341.3 1286.94 341.6 1287.14 341.9C1297.64 355.4 1306.64 369.5 1315.44 384C1315.44 384.1 1315.54 384.2 1315.64 384.3C1317.54 387.4 1319.44 390.5 1321.24 393.6L1321.34 393.7C1321.34 393.8 1321.44 393.8 1321.54 393.9C1321.54 393.9 1321.54 393.9 1321.64 394C1327.34 397.5 1336.74 393.3 1335.64 386ZM1286.74 322.6C1291.34 325.7 1295.54 329.3 1299.64 333.1C1296.34 336.3 1292.64 338 1288.34 339.7C1287.94 333.9 1286.84 328.4 1286.74 322.6ZM1288.84 341.3C1293.54 340.7 1298.04 338.1 1301.34 334.9C1302.04 336.4 1302.94 338 1303.74 339.5C1301.04 343 1297.64 345.4 1293.04 345.7C1291.64 344.2 1290.34 342.7 1288.84 341.3ZM1294.24 347C1298.44 346.8 1302.54 344.8 1304.94 341.4C1305.54 342.4 1306.14 343.4 1306.74 344.3C1304.14 347.5 1300.64 349.4 1296.54 349.7C1295.84 348.8 1295.04 347.9 1294.24 347ZM1301.54 356.3C1304.34 354.9 1307.64 354.5 1310.24 356.8C1312.14 358.5 1313.54 361.3 1314.84 363.5C1317.04 367.4 1324.44 379.7 1317.24 382C1312.44 373.2 1307.34 364.4 1301.54 356.3ZM1318.34 384.2C1326.84 381.5 1320.74 369.2 1317.84 363.9C1313.74 356.4 1308.34 349.8 1300.64 355C1299.64 353.6 1298.64 352.3 1297.54 350.9C1301.54 350.9 1305.24 349.2 1307.94 346.1C1310.84 350.6 1313.84 355 1316.64 359.5C1320.74 366.1 1324.94 372.7 1329.04 379.3C1327.84 380.8 1326.74 382.3 1324.94 383.3C1323.04 384.4 1321.04 384.8 1318.94 385.2C1318.64 384.9 1318.54 384.6 1318.34 384.2ZM1320.54 388.4C1320.24 387.8 1319.94 387.3 1319.64 386.7C1323.54 387.1 1328.14 384.8 1330.24 381.4C1330.54 381.8 1330.84 382.3 1331.04 382.7C1328.74 386.6 1325.24 389.1 1320.54 388.4ZM1333.34 386.3C1333.44 389 1331.74 391.2 1329.14 392.2C1327.04 393 1324.94 392.7 1322.74 392.8C1322.24 391.9 1321.84 391 1321.34 390.1C1325.54 390.7 1330.44 388.7 1332.34 384.9C1332.44 385.1 1332.64 385.3 1332.74 385.6C1332.84 385.8 1333.04 386 1333.24 386.1C1333.34 386 1333.34 386.1 1333.34 386.3Z" fill="white"/>
        </g>
        <g clip-path="url(#clip5)">
            <path d="M1750.14 34.5002C1746.64 34.2002 1742.94 34.5002 1739.34 34.7002C1738.34 31.0002 1736.34 27.7002 1733.64 25.1002C1736.84 23.1002 1740.04 20.8002 1742.84 18.4002C1743.74 17.7002 1742.54 16.2002 1741.64 16.8002C1738.44 18.9002 1735.24 21.5002 1732.34 24.1002C1729.04 21.6002 1724.94 20.1002 1720.24 20.6002C1720.04 20.6002 1719.94 20.6002 1719.74 20.5002C1719.74 19.2002 1719.64 17.9002 1719.64 16.6002C1719.64 15.1002 1719.74 13.6002 1719.64 12.1002C1719.54 11.0002 1717.84 10.5002 1717.54 11.8002C1716.84 14.4002 1717.04 17.6002 1717.64 20.4002C1712.64 20.4002 1707.94 22.7002 1704.14 26.1002C1703.14 23.5002 1701.04 20.9002 1698.84 19.2002C1697.74 18.3002 1696.24 19.7002 1697.24 20.8002C1698.34 21.9002 1699.44 22.9002 1700.54 24.1002C1701.44 25.1002 1702.24 26.1002 1703.14 27.0002C1700.14 30.0002 1697.84 33.8002 1696.54 37.7002C1693.24 36.4002 1689.64 35.1002 1686.24 34.6002C1685.24 34.4002 1684.24 36.0002 1685.44 36.5002C1688.74 37.9002 1692.54 38.7002 1696.04 39.4002C1695.84 40.2002 1695.64 41.0002 1695.54 41.9002C1695.04 45.5002 1695.44 48.7002 1696.64 51.5002C1696.64 51.5002 1696.64 51.5002 1696.54 51.5002C1693.04 52.8002 1689.34 54.8002 1685.84 56.6002C1684.84 57.1002 1685.74 58.5002 1686.74 58.1002C1690.34 56.6002 1694.14 55.1002 1697.54 53.2002C1697.64 53.2002 1697.64 53.1002 1697.64 53.1002C1700.24 57.7002 1705.04 60.9002 1710.74 62.0002C1710.24 63.4002 1709.84 64.8002 1709.34 66.2002C1708.84 67.8002 1708.04 69.3002 1707.74 70.9002C1707.54 72.0002 1708.84 72.5002 1709.44 71.6002C1711.14 69.1002 1712.04 65.3002 1712.64 62.3002C1713.44 62.4002 1714.34 62.4002 1715.14 62.5002C1719.54 62.5002 1723.94 61.4002 1727.74 59.4002C1728.84 62.6002 1730.14 65.8002 1731.54 68.8002C1732.14 70.0002 1734.14 69.1002 1733.64 67.9002C1732.34 64.7002 1730.84 61.6002 1729.14 58.5002C1732.64 56.4002 1735.54 53.4002 1737.44 49.8002C1740.24 51.8002 1743.54 53.7002 1746.84 54.7002C1748.04 55.1002 1748.94 53.2002 1747.74 52.6002C1744.44 51.2002 1741.34 49.8002 1738.24 48.2002C1739.04 46.5002 1739.54 44.7002 1739.84 42.7002C1740.14 40.6002 1740.14 38.5002 1739.74 36.4002C1743.14 36.6002 1746.74 36.9002 1750.14 36.6002C1751.44 36.5002 1751.44 34.6002 1750.14 34.5002ZM1737.44 41.2002C1736.34 52.1002 1726.44 59.4002 1715.94 59.7002C1704.44 60.0002 1696.04 51.9002 1698.74 40.2002C1701.14 29.6002 1709.54 24.0002 1719.54 22.5002C1719.74 22.6002 1719.94 22.7002 1720.14 22.7002C1730.34 22.7002 1738.44 30.9002 1737.44 41.2002Z" fill="white"/>
        </g>
        <g clip-path="url(#clip6)">
            <path d="M560.642 48.9002C559.042 45.4002 555.442 46.3002 552.942 48.2002C553.842 45.5002 553.942 42.5002 551.042 40.8002C548.542 39.3002 546.442 40.7002 545.142 42.8002C544.842 42.2002 544.442 41.7002 543.942 41.2002C542.242 39.7002 539.942 39.6002 538.042 40.8002C534.942 42.7002 534.042 47.6002 535.842 50.7002C527.142 50.7002 518.842 58.4002 516.742 66.6002C516.142 69.0002 516.042 71.4002 516.342 73.7002C516.042 73.9002 516.142 74.3002 516.442 74.5002C516.942 76.9002 517.842 79.2002 519.242 81.2002C515.542 81.3002 511.942 84.3002 511.142 87.8002C510.142 91.9002 514.342 91.9002 517.842 90.8002C517.042 91.8002 516.442 93.0002 516.342 94.4002C516.142 96.4002 516.842 98.6002 518.742 99.6002C522.242 101.4 525.142 98.8002 526.642 95.7002C527.442 97.1002 529.042 98.0002 530.842 97.6002C535.142 96.5002 535.342 91.1002 533.742 87.6002C542.042 86.7002 548.542 80.1002 551.142 72.1002C552.542 68.0002 553.542 63.0002 551.942 59.0002C552.042 59.0002 552.142 58.9002 552.342 58.9002C555.442 56.9002 563.142 54.2002 560.642 48.9002ZM532.142 93.9002C530.542 96.6002 526.742 95.0002 528.142 92.0002C528.242 91.7002 528.142 91.3002 527.942 91.1002C527.742 90.4002 526.442 90.1002 526.042 90.9002C524.942 93.3002 524.142 98.2002 520.442 97.6002C518.442 97.3002 518.042 95.1002 518.542 93.5002C519.042 91.7002 520.542 90.4002 521.742 89.0002C522.142 88.6002 521.842 87.9002 521.342 87.8002C521.142 87.6002 520.842 87.4002 520.442 87.6002C519.042 88.1002 517.542 88.8002 516.042 89.0002C515.242 89.1002 513.642 89.5002 513.342 88.3002C513.242 87.9002 513.842 87.0002 514.042 86.6002C515.442 84.1002 517.942 83.0002 520.642 82.7002C521.842 84.0002 523.342 85.1002 525.042 85.9002C523.842 87.6002 522.742 89.4002 522.042 91.3002C521.942 91.7002 522.442 91.9002 522.642 91.7002C524.142 90.3002 525.642 88.4002 526.642 86.6002C527.542 86.9002 528.442 87.1002 529.442 87.3002C530.142 87.4002 530.842 87.5002 531.542 87.5002C532.042 89.6002 533.342 91.7002 532.142 93.9002ZM531.542 84.9002C525.042 84.8002 520.442 80.3002 519.042 74.6002C526.442 75.0002 534.542 75.7002 537.442 83.7002L537.542 83.8002C535.742 84.6002 533.742 85.0002 531.542 84.9002ZM539.342 83.0002C536.642 74.3002 526.942 72.6002 518.842 73.4002C518.642 71.8002 518.642 70.2002 518.842 68.5002C518.942 68.6002 519.142 68.6002 519.342 68.6002C529.142 66.3002 538.242 70.2002 543.342 79.0002C543.542 79.3002 543.742 79.4002 543.942 79.5002C542.642 80.9002 541.042 82.1002 539.342 83.0002ZM545.242 77.9002C541.042 68.4002 528.842 63.3002 519.142 67.2002C519.242 67.0002 519.242 66.8002 519.242 66.6002C519.942 64.3002 521.142 62.2002 522.642 60.3002C522.742 60.5002 523.042 60.6002 523.342 60.5002C533.742 58.3002 543.442 62.0002 547.642 72.1002C547.742 72.4002 547.942 72.6002 548.142 72.7002C547.442 74.5002 546.442 76.3002 545.242 77.9002ZM549.242 69.6002C544.442 60.4002 533.842 55.3002 523.842 58.8002C527.442 55.0002 532.442 52.4002 537.442 52.4002C537.442 52.4002 537.442 52.4002 537.542 52.4002C537.542 52.9002 537.742 53.3002 538.342 53.5002C541.842 54.5002 545.942 55.0002 548.342 58.2002C550.842 61.4002 550.342 65.9002 549.242 69.6002ZM551.142 57.3002C549.842 55.3002 547.942 54.0002 545.842 53.0002C546.542 51.7002 547.042 50.4002 547.542 49.1002C547.842 48.3002 546.542 47.8002 546.142 48.5002C545.542 49.7002 544.842 51.1002 544.342 52.4002C542.842 51.9002 541.242 51.5002 539.842 51.3002C539.742 51.2002 539.642 51.1002 539.542 51.1002C539.242 51.0002 538.942 51.0002 538.642 50.9002C537.542 48.7002 536.642 46.5002 538.142 44.2002C539.942 41.2002 544.142 42.1002 543.742 45.8002C543.742 45.9002 543.742 46.1002 543.842 46.2002C543.742 46.9002 544.842 47.4002 545.142 46.7002C545.942 45.0002 547.942 41.3002 550.242 43.1002C552.842 45.1002 550.642 48.7002 549.442 50.8002C548.742 52.0002 550.542 53.0002 551.242 51.8002C551.242 51.7002 551.342 51.7002 551.342 51.6002C552.742 50.6002 553.942 49.1002 555.642 48.7002C557.442 48.3002 559.342 49.2002 558.842 51.4002C558.042 54.7002 553.442 55.4002 551.142 57.3002Z" fill="white"/>
        </g>
        <g clip-path="url(#clip7)">
            <path d="M271.243 48.8001C274.643 44.1001 273.343 36.6001 268.743 32.9001C262.243 27.6001 253.243 34.2001 248.343 39.6001C246.743 34.2001 241.843 30.0001 235.743 32.3001C231.343 34.0001 229.543 39.2001 231.543 43.0001C227.543 41.2001 222.543 42.0001 220.543 46.7001C218.243 52.3001 223.243 54.7001 227.843 55.4001C223.943 60.3001 224.343 68.1001 230.843 70.9001C236.743 73.4001 242.843 69.3001 243.443 63.6001C244.943 67.7001 248.843 70.8001 253.243 71.2001C258.843 71.7001 263.643 68.0001 265.443 63.0001C270.943 64.9001 279.743 65.6001 280.243 57.7001C280.643 52.6001 275.943 49.3001 271.243 48.8001ZM273.343 61.8001C270.543 62.5001 268.043 61.5001 265.443 60.3001C264.743 60.0001 263.843 60.2001 263.543 61.1001C262.243 65.9001 257.743 69.7001 252.443 68.7001C247.843 67.8001 245.443 63.8001 244.443 59.7001C244.243 58.8001 242.943 59.0001 242.843 59.9001C242.343 59.7001 241.443 60.1001 241.643 60.9001C243.043 67.0001 237.243 72.6001 231.143 69.0001C225.843 65.9001 226.343 59.0001 231.043 55.6001C231.943 54.9001 231.643 53.5001 230.443 53.5001C227.843 53.3001 219.043 52.6001 224.243 46.2001C226.643 43.4001 231.343 44.7001 233.843 46.3001C234.343 46.6001 234.943 46.1001 234.843 45.6001C235.143 45.3001 235.243 44.8001 234.943 44.4001C232.043 40.8001 232.643 35.4001 237.843 34.3001C242.943 33.2001 246.243 37.6001 246.643 42.1001C246.743 43.0001 247.843 43.7001 248.543 42.9001C251.743 39.1001 256.143 35.1001 261.143 33.9001C270.043 31.9001 272.943 43.6001 267.943 49.0001C267.843 49.0001 267.743 49.0001 267.643 49.1001C266.043 49.5001 266.743 51.9001 268.343 51.6001C269.743 51.3001 271.143 51.2001 272.543 51.7001C275.343 52.5001 276.143 53.9001 276.743 56.7001C277.443 59.9001 276.643 61.0001 273.343 61.8001Z" fill="white"/>
        </g>
        <path d="M126.543 303.6C124.343 302.4 121.643 303.5 119.943 305.1C117.843 307 116.843 309.7 116.243 312.4C114.843 311.6 113.343 310.8 112.043 310C110.243 308.9 108.443 307.6 106.643 306.5C110.843 302 114.243 296.7 116.543 290.6C116.743 290.1 116.443 289.3 115.943 289.1C104.943 284 94.6434 277.2 85.3434 269.5C95.6434 263 102.943 248.8 101.143 236.6C102.943 234.6 103.443 231.6 102.043 229.3C100.643 226.8 97.2434 225.8 94.5434 227C92.0434 228.1 90.9434 231.1 91.8434 233.7C92.9434 236.8 95.9434 237.1 98.7434 236.8C98.7434 236.8 98.7434 236.9 98.8434 236.9C98.2434 243.4 97.6434 249.1 94.6434 255C91.9434 260.2 88.0434 264.3 83.7434 268.2C81.3434 266.1 78.9434 264 76.6434 261.7C76.5434 261.6 76.4434 261.5 76.3434 261.5C80.6434 255.6 82.5434 247.9 81.2434 240.8C79.3434 230.8 71.3434 222.6 61.7434 219.4C68.2434 216 68.5434 207.9 70.3434 201.4C70.6434 200.2 69.2434 199.6 68.4434 200.3C65.1434 202.9 60.0434 201.1 56.1434 201.8C52.9434 202.4 49.8434 203.9 47.5434 206.3C44.1434 210 43.2434 215.7 46.0434 219.9C39.6434 221.9 33.5434 226.4 29.4434 231.7C26.3434 226.4 18.5434 224.9 13.1434 227.7C10.0434 229.2 8.04342 231.9 7.74342 235.5C7.54342 238.5 8.34342 241.4 7.44342 244.4C6.34342 248 3.84342 250.6 0.543416 252.3C-0.356584 252.7 -0.0565835 254.1 0.843416 254.3C9.24342 256.6 18.9434 254.5 24.3434 247.7C24.7434 254.8 28.1434 261.8 33.9434 266.1C40.4434 270.9 50.1434 272.8 58.8434 271.4C59.0434 273.9 59.4434 276.4 59.7434 278.9C54.9434 280.6 50.3434 281.9 45.1434 281.7C40.0434 281.5 35.9434 279.8 31.3434 278C32.3434 275.3 31.7434 272.5 29.3434 270.8C27.0434 269.1 23.5434 269.4 21.4434 271.5C19.6434 273.4 19.5434 276.7 21.2434 278.7C23.2434 281.1 26.8434 280.9 29.4434 279.6C37.2434 286.2 51.2434 286.5 59.9434 281.3C60.5434 285.8 61.1434 290.2 61.4434 294.7C61.9434 302.7 61.9434 310.8 61.3434 318.8C61.3434 319.4 61.8434 320 62.3434 320.1C70.2434 321.8 78.1434 321.4 85.3434 319.3C85.8434 323 86.4434 326.7 87.2434 330.3C87.1434 330.2 86.9434 330.2 86.7434 330.2C83.9434 330.5 69.5434 333.4 73.4434 338.7C74.9434 340.7 78.2434 340.2 80.2434 339.7C83.5434 338.9 86.6434 336.9 88.5434 334C89.3434 334.3 90.6434 333.6 90.3434 332.4C89.3434 327.8 88.2434 323.2 86.8434 318.7C93.6434 316.5 99.8434 312.7 105.043 307.7C106.643 309.3 108.643 310.7 110.543 312C112.743 313.4 114.943 315 117.443 315.8C117.943 316 118.243 315.8 118.543 315.6C118.743 315.7 119.043 315.7 119.243 315.5C122.043 314.2 132.243 306.8 126.543 303.6ZM94.3434 233C93.7434 231.6 94.2434 229.8 95.7434 229.2C97.2434 228.5 99.3434 229.1 100.043 230.7C100.743 232.1 100.443 233.8 99.4434 235C97.5434 235 95.1434 235.1 94.3434 233ZM29.7434 277.5C29.3434 277.5 29.0434 277.9 28.9434 278.2C27.2434 278.4 25.2434 279 23.8434 277.8C22.6434 276.8 22.4434 274.7 23.5434 273.5C24.5434 272.3 26.6434 272.1 27.9434 273C29.2434 273.9 29.9434 275.9 29.7434 277.5ZM87.7434 332C87.8434 332.3 87.8434 332.6 87.9434 332.9C87.8434 332.9 87.7434 333 87.6434 333C86.1434 334.2 84.5434 335.4 82.7434 336.2C81.2434 336.9 77.9434 338.2 76.3434 337.4C75.0434 336.7 76.8434 335.8 77.6434 335.3C78.5434 334.8 79.4434 334.3 80.3434 334C82.4434 333.1 84.6434 332.6 86.9434 332.4C87.3434 332.5 87.5434 332.3 87.7434 332ZM57.7434 204C61.1434 203.7 64.4434 204.4 67.4434 203.2C66.3434 208.9 65.6434 215.6 59.6434 217.8C59.2434 217.9 59.0434 218.2 58.9434 218.5C58.4434 218.4 58.0434 218.3 57.5434 218.2C58.0434 215.7 56.0434 212.9 53.4434 212.7C50.5434 212.4 47.6434 215.5 48.7434 218.4C48.8434 218.7 49.0434 218.8 49.2434 218.9C48.6434 219 48.1434 219.1 47.5434 219.3C44.5434 211.8 49.7434 204.8 57.7434 204ZM55.5434 218.1C55.0434 218 54.4434 218 53.9434 218C53.2434 218 52.8434 218.3 52.6434 218.7C51.7434 218.7 50.8434 218.8 49.9434 218.9C50.1434 218.8 50.2434 218.6 50.2434 218.3C50.2434 216.7 51.3434 214.6 53.3434 214.9C54.8434 215.1 55.6434 216.6 55.5434 218.1ZM4.04342 252.7C7.74342 250 10.0434 246 10.2434 241.2C10.3434 237.7 8.94342 234.5 11.7434 231.3C12.9434 229.9 14.9434 229 16.7434 228.6C21.3434 227.6 25.2434 229.7 28.4434 232.8C28.0434 233.3 27.7434 233.9 27.4434 234.4C27.3434 234.3 27.2434 234.3 27.1434 234.2C24.1434 233.1 20.5434 235.1 20.1434 238.4C19.8434 240.6 21.8434 243.7 24.1434 244.1C19.8434 251.2 11.9434 254.1 4.04342 252.7ZM25.8434 237.8C25.2434 239.3 24.8434 240.8 24.6434 242.4C24.1434 242.2 23.7434 242 23.2434 241.6C22.4434 240.8 21.8434 239.7 22.1434 238.5C22.5434 236.6 24.8434 235.6 26.5434 236.1C26.3434 236.7 26.0434 237.2 25.8434 237.8ZM26.8434 246C26.8434 242.5 27.7434 239.3 29.2434 236.5C28.8434 242.1 31.7434 248.2 36.9434 250.5C37.9434 251 38.7434 249.7 37.8434 249C32.3434 245.1 30.0434 239.6 31.4434 233.1C32.8434 231.4 34.4434 229.8 36.1434 228.3C38.9434 234.1 43.6434 240 49.0434 243C49.8434 243.5 50.7434 242.3 50.0434 241.7C47.6434 239.4 45.0434 237.4 42.8434 234.9C40.8434 232.6 39.1434 230 37.5434 227.4C39.2434 226.2 41.1434 225.1 43.0434 224.1C46.0434 224.5 48.6434 225.1 51.3434 226.7C53.8434 228.2 55.8434 230.2 58.1434 231.9C58.7434 232.3 59.6434 231.5 59.1434 230.9C56.2434 227.1 51.0434 223.4 45.8434 222.7C48.1434 221.7 50.5434 220.9 52.8434 220.3C53.0434 220.5 53.3434 220.7 53.7434 220.7C58.2434 221.3 62.6434 222.7 66.4434 225C61.6434 243.4 45.4434 250.6 29.1434 256.5C27.7434 253.6 26.8434 250 26.8434 246ZM53.4434 269.3C43.8434 269.3 34.6434 265.3 30.0434 257.8C47.1434 255.2 63.8434 243.5 68.5434 226.4C74.7434 230.7 79.0434 237.4 79.1434 245.7C79.3434 260.4 67.2434 269.3 53.4434 269.3ZM64.3434 317.7C65.4434 302.5 65.3434 285.7 60.6434 271.1C64.0434 270.4 67.2434 269.2 70.0434 267.4C71.7434 266.3 73.3434 265 74.6434 263.5L74.7434 263.6C86.3434 274.7 99.3434 283.5 113.543 290.9C105.543 310.5 85.1434 321.6 64.3434 317.7ZM122.843 310.5C121.543 311.8 120.143 313 118.643 314L118.543 313.9C118.443 313.8 118.243 313.7 118.143 313.6C118.543 312 118.943 310.4 119.643 309C120.443 307.4 122.243 305.1 124.343 305.4C127.343 305.8 123.743 309.6 122.843 310.5Z" fill="white"/>
        <path d="M48.6434 259.1C48.0434 257.4 45.7434 256.9 44.4434 258.1C43.7434 258.7 43.5434 259.8 44.0434 260.5C44.0434 260.7 44.0434 261 44.0434 261.2C44.0434 262.1 44.7434 262.6 45.5434 262.7C47.4434 263.1 49.3434 261 48.6434 259.1Z" fill="white"/>
        <path d="M71.4443 239.6C70.2443 238.5 67.7443 238.4 67.0443 240.1C66.9443 240.3 66.9443 240.5 66.9443 240.7C66.7443 241.1 66.6443 241.5 66.7443 241.9C66.7443 243.9 68.9443 244.9 70.5443 244.1C72.2443 243.3 72.8443 241 71.4443 239.6Z" fill="white"/>
        <path d="M63.7432 255.5C63.7432 255 63.7432 254.6 63.2432 254.3C63.0432 254.1 62.7432 254 62.4432 253.9C61.1432 253.6 59.8432 254.3 59.5432 255.6C59.3432 256.2 60.1432 256.7 60.6432 256.2C60.9432 255.8 61.4432 255.6 61.9432 255.7C61.9432 256.5 61.9432 257.3 62.1432 258.1C62.3432 258.9 63.6432 259 63.8432 258.1C63.9432 257.2 63.8432 256.3 63.7432 255.5Z" fill="white"/>
        <path d="M67.0431 257.6C66.6431 260.2 64.3431 262.4 61.5431 261.7C60.9431 261.6 60.6431 262.4 61.2431 262.7C64.4431 263.9 68.7431 261.5 68.6431 257.8C68.7431 256.9 67.2431 256.6 67.0431 257.6Z" fill="white"/>
    </g>
    <defs>
        <clipPath id="clip0">
            <rect width="51.2" height="101.8" fill="white" transform="translate(1671.04 254)"/>
        </clipPath>
        <clipPath id="clip1">
            <rect width="64" height="51.6" fill="white" transform="translate(445.043 298)"/>
        </clipPath>
        <clipPath id="clip2">
            <rect width="79.4" height="62.9" fill="white" transform="translate(1442.04 167)"/>
        </clipPath>
        <clipPath id="clip3">
            <rect width="115.5" height="79.8" fill="white" transform="translate(1233.04)"/>
        </clipPath>
        <clipPath id="clip4">
            <rect width="51.7" height="76.3" fill="white" transform="translate(1284.04 319)"/>
        </clipPath>
        <clipPath id="clip5">
            <rect width="66.1" height="61" fill="white" transform="translate(1685.04 11)"/>
        </clipPath>
        <clipPath id="clip6">
            <rect width="50.1" height="60.1" fill="white" transform="translate(511.043 40)"/>
        </clipPath>
        <clipPath id="clip7">
            <rect width="60.3" height="40.8" fill="white" transform="translate(220.043 31)"/>
        </clipPath>
    </defs>
</svg>
