<svg viewBox="0 0 100 34" xmlns="http://www.w3.org/2000/svg">
<g>
	<g>
		<path fill="#E43D91" d="M15.2,27c-1,0-1.8-0.9-1.6-2l2.8-16.6C16.6,7.6,17.3,7,18.1,7c1,0,1.8,0.9,1.6,2l-2.8,16.6
			C16.7,26.4,16,27,15.2,27L15.2,27z"/>
		<path fill="#E43D91" d="M15.2,25l2.8-16.6c0.1-0.5,0.4-0.9,0.8-1.2C18.7,7.1,18.4,7,18.1,7c-0.8,0-1.5,0.6-1.6,1.4L13.6,25
			c-0.2,1,0.6,2,1.6,2c0.3,0,0.6-0.1,0.8-0.2C15.5,26.4,15.1,25.8,15.2,25z"/>
	</g>
	<g>
		<path fill="#009ADD" d="M22.9,27c-1,0-1.8-0.9-1.6-2l2.8-16.6C24.3,7.6,25,7,25.8,7c1,0,1.8,0.9,1.6,2l-2.8,16.6
			C24.4,26.4,23.7,27,22.9,27L22.9,27z"/>
		<path fill="#009ADD" d="M22.9,25l2.8-16.6c0.1-0.5,0.4-0.9,0.8-1.2C26.3,7.1,26.1,7,25.8,7c-0.8,0-1.5,0.6-1.6,1.4L21.3,25
			c-0.2,1,0.6,2,1.6,2c0.3,0,0.6-0.1,0.8-0.2C23.1,26.5,22.8,25.8,22.9,25L22.9,25z"/>
	</g>
	<g>
		<path fill="#FEDE3A" d="M11.4,12.8c0.1-0.8,0.8-1.4,1.7-1.4h16.3c1,0,1.8,1,1.7,2c-0.1,0.8-0.8,1.4-1.7,1.4H13
			C12,14.8,11.2,13.8,11.4,12.8L11.4,12.8z"/>
		<path fill="#FEDE3A" d="M29.3,13.1H13c-0.6,0-1.2-0.3-1.5-0.9c-0.1,0.2-0.2,0.4-0.2,0.6c-0.2,1,0.6,2,1.7,2h16.3
			c0.8,0,1.5-0.6,1.7-1.4c0.1-0.4,0-0.8-0.2-1.1C30.5,12.8,29.9,13.1,29.3,13.1L29.3,13.1z"/>
	</g>
	<g>
		<path fill="#A2F2B3" d="M11,20.6c0.1-0.8,0.8-1.4,1.7-1.4H29c1,0,1.8,1,1.7,2c-0.1,0.8-0.8,1.4-1.7,1.4H12.7
			C11.6,22.6,10.8,21.7,11,20.6z"/>
		<path fill="#A2F2B3" d="M29,20.9H12.7c-0.6,0-1.2-0.3-1.5-0.9c-0.1,0.2-0.2,0.4-0.2,0.6c-0.2,1,0.6,2,1.7,2H29c0.8,0,1.5-0.6,1.7-1.4
			c0.1-0.4,0-0.8-0.2-1.1C30.1,20.6,29.6,20.9,29,20.9L29,20.9z"/>
	</g>
</g>
<path stroke="#000000" stroke-miterlimit="10" d="M35.5,24.8c-0.3-0.2-0.5-0.5-0.5-0.9c0-0.3,0.1-0.5,0.3-0.8c0.2-0.2,0.5-0.3,0.8-0.3c0.2,0,0.3,0,0.5,0.1
	c0.6,0.3,1.2,0.4,1.7,0.6c0.6,0.1,1.2,0.2,2,0.2c2,0,3-0.6,3-1.9c0-0.4-0.2-0.7-0.7-0.9c-0.5-0.2-1.2-0.5-2.3-0.7
	c-1.1-0.3-2-0.5-2.7-0.8c-0.7-0.3-1.3-0.7-1.8-1.2c-0.5-0.5-0.7-1.3-0.7-2.2c0-1.3,0.5-2.3,1.4-3.1c0.9-0.8,2.2-1.2,3.9-1.2
	c1.4,0,2.7,0.2,4,0.7c0.3,0.1,0.5,0.2,0.6,0.4c0.1,0.2,0.2,0.4,0.2,0.6c0,0.3-0.1,0.5-0.3,0.8c-0.2,0.2-0.5,0.3-0.8,0.3
	c-0.1,0-0.2,0-0.4-0.1c-1.1-0.3-2.1-0.5-3.1-0.5c-1,0-1.8,0.2-2.3,0.5c-0.6,0.3-0.8,0.8-0.8,1.4c0,0.5,0.3,0.9,0.8,1.2
	c0.5,0.3,1.3,0.5,2.4,0.7c1.1,0.3,1.9,0.5,2.6,0.8c0.7,0.3,1.3,0.7,1.7,1.2c0.5,0.6,0.7,1.3,0.7,2.2c0,1.1-0.5,2.1-1.4,2.8
	c-0.9,0.8-2.2,1.1-3.9,1.1C38.6,26,37,25.6,35.5,24.8z M47.7,25.5c-0.2-0.2-0.4-0.5-0.4-0.9V7.2c0-0.3,0.1-0.6,0.4-0.9
	C48,6.1,48.3,6,48.6,6c0.4,0,0.7,0.1,0.9,0.3c0.2,0.2,0.4,0.5,0.4,0.9v17.4c0,0.3-0.1,0.6-0.4,0.9c-0.2,0.2-0.5,0.3-0.9,0.3
	C48.3,25.9,48,25.7,47.7,25.5z M53.9,25.5c-0.7-0.3-1.2-0.8-1.6-1.4c-0.4-0.6-0.6-1.3-0.6-2.1c0-1.3,0.5-2.4,1.6-3.2
	c1.1-0.8,2.6-1.2,4.7-1.2h3.3v-0.2c0-1.2-0.3-2-0.9-2.6c-0.6-0.5-1.5-0.8-2.8-0.8c-0.7,0-1.3,0.1-1.8,0.2c-0.5,0.1-1.1,0.3-1.8,0.5
	c-0.1,0-0.3,0.1-0.4,0.1c-0.3,0-0.5-0.1-0.7-0.3c-0.2-0.2-0.3-0.4-0.3-0.7c0-0.5,0.2-0.8,0.7-1c1.5-0.6,3.1-1,4.7-1
	c1.3,0,2.3,0.3,3.2,0.8c0.9,0.5,1.5,1.2,1.9,1.9c0.4,0.8,0.6,1.7,0.6,2.6v7.6c0,0.3-0.1,0.6-0.4,0.9c-0.2,0.2-0.5,0.3-0.9,0.3
	c-0.3,0-0.6-0.1-0.9-0.3c-0.2-0.2-0.4-0.5-0.4-0.9V24c-1.3,1.4-3.1,2-5.1,2C55.3,26,54.5,25.8,53.9,25.5z M59.3,23.3
	c0.7-0.4,1.4-0.9,1.9-1.4v-2.3h-3c-2.7,0-4.1,0.7-4.1,2.1c0,0.6,0.2,1.2,0.7,1.6c0.4,0.4,1.2,0.6,2.2,0.6
	C57.8,23.9,58.6,23.7,59.3,23.3z M68.7,25.1c-1.1-0.6-1.9-1.4-2.4-2.5c-0.6-1.1-0.9-2.3-0.9-3.7c0-1.4,0.3-2.6,0.9-3.7
	c0.6-1.1,1.4-1.9,2.4-2.5c1.1-0.6,2.3-0.9,3.7-0.9c1.4,0,2.6,0.3,3.7,0.9c1.1,0.6,1.9,1.4,2.5,2.5c0.6,1.1,0.9,2.3,0.9,3.7
	c0,1.4-0.3,2.6-0.9,3.7c-0.6,1.1-1.4,1.9-2.5,2.5S73.8,26,72.4,26C71,26,69.7,25.7,68.7,25.1z M74.5,23.3c0.7-0.3,1.2-0.9,1.7-1.6
	c0.4-0.7,0.7-1.7,0.7-2.8c0-1.1-0.2-2-0.7-2.8c-0.4-0.7-1-1.3-1.7-1.6c-0.7-0.3-1.4-0.5-2.1-0.5c-0.8,0-1.5,0.2-2.2,0.5
	c-0.7,0.3-1.2,0.9-1.7,1.6c-0.4,0.7-0.7,1.7-0.7,2.8c0,1.1,0.2,2.1,0.7,2.8c0.4,0.7,1,1.3,1.7,1.6c0.7,0.3,1.4,0.5,2.2,0.5
	C73.1,23.8,73.8,23.6,74.5,23.3z M81.5,25.5c-0.2-0.2-0.4-0.5-0.4-0.9V7.2c0-0.3,0.1-0.6,0.4-0.9C81.8,6.1,82.1,6,82.4,6
	s0.6,0.1,0.9,0.4c0.2,0.2,0.4,0.5,0.4,0.9v11l6.5-5.9c0.3-0.2,0.5-0.3,0.8-0.3c0.4,0,0.7,0.1,0.9,0.3c0.2,0.2,0.3,0.5,0.3,0.8
	c0,0.3-0.2,0.6-0.5,0.9l-3.9,3.5l4.9,6.4c0.2,0.2,0.3,0.5,0.3,0.7c0,0.4-0.1,0.6-0.4,0.9c-0.2,0.2-0.5,0.3-0.9,0.3
	c-0.2,0-0.4,0-0.5-0.1c-0.2-0.1-0.3-0.2-0.5-0.4L86,19.1l-2.4,2.1v3.5c0,0.3-0.1,0.6-0.4,0.9c-0.2,0.2-0.5,0.3-0.9,0.3
	S81.8,25.7,81.5,25.5z"/>
</svg>
