<svg viewBox="0 0 100 34" xmlns="http://www.w3.org/2000/svg">
	<path fill="#000000" d="M15,19.1c-0.1,0-0.2,0.1-0.3,0.1c-0.2,0-0.6-0.9-0.7-1.5c-0.5,0.5-1.4,1.5-3.2,1.5c-2.3,0-3.7-1.5-3.7-3.8
		c0-4.2,4.5-4.2,6.5-4.2v-0.8c0-1.1-0.2-1.8-1.8-1.8c-1.4,0-2.8,0.7-3.1,0.7c-0.1,0-0.2-0.1-0.2-0.2L7.9,7.7c0-0.1-0.1-0.2-0.1-0.3
		c0-0.6,2.5-1.2,4.4-1.2c3.1,0,4.3,1.4,4.3,4v4.7c0,2.4,0.6,2.7,0.6,3.2c0,0.1-0.1,0.2-0.2,0.2L15,19.1z M13.5,13.3
		c-0.6,0-3.5-0.2-3.5,2c0,1,0.7,1.7,1.6,1.7c0.9,0,1.6-0.6,1.9-0.9V13.3z M35.9,18.4c0,0.3-0.1,0.3-0.3,0.3H33
		c-0.3,0-0.3-0.1-0.3-0.3v-7.6c0-0.9-0.1-2.1-1-2.1c-1,0-1.9,0.7-2.2,1v8.6c0,0.3,0,0.3-0.3,0.3h-2.5c-0.3,0-0.3-0.1-0.3-0.3v-7.6
		c0-0.9-0.1-2.1-1-2.1c-1,0-1.9,0.7-2.2,1v8.6c0,0.3,0,0.3-0.3,0.3h-2.5c-0.3,0-0.3-0.1-0.3-0.3V11c0-3.5-0.5-3.3-0.5-3.8
		c0-0.1,0.1-0.2,0.3-0.3l1.9-0.6c0.1,0,0.3-0.1,0.4-0.1c0.3,0,0.5,0.5,0.8,1.7c0.7-0.6,1.8-1.7,3.8-1.7c1.1,0,2.2,0.7,2.5,1.7
		c0.7-0.6,1.8-1.7,3.9-1.7c2.3,0,2.9,1.7,2.9,3.9V18.4z M46.4,19.1c-0.1,0-0.2,0.1-0.3,0.1c-0.2,0-0.6-0.9-0.7-1.5
		c-0.5,0.5-1.4,1.5-3.2,1.5c-2.3,0-3.7-1.5-3.7-3.8c0-4.2,4.5-4.2,6.5-4.2v-0.8c0-1.1-0.2-1.8-1.8-1.8c-1.4,0-2.8,0.7-3.1,0.7
		c-0.1,0-0.2-0.1-0.2-0.2l-0.5-1.5c0-0.1-0.1-0.2-0.1-0.3c0-0.6,2.5-1.2,4.4-1.2c3.1,0,4.3,1.4,4.3,4v4.7c0,2.4,0.6,2.7,0.6,3.2
		c0,0.1-0.1,0.2-0.2,0.2L46.4,19.1z M44.9,13.3c-0.6,0-3.5-0.2-3.5,2c0,1,0.7,1.7,1.6,1.7c0.9,0,1.6-0.6,1.9-0.9V13.3z M59,18.5
		c-0.1,0.2-0.2,0.3-0.3,0.3h-8.3c-0.1,0-0.2-0.1-0.2-0.2v-1.8l5.7-7.5h-5c-0.1,0-0.2-0.1-0.2-0.3V7c0-0.2,0.1-0.3,0.3-0.3h7.9
		c0.2,0,0.4,0.1,0.4,0.2v1.9l-5.6,7.4h5.7c0.5,0,0.5,0.2,0.5,0.2c0,0.1-0.1,0.2-0.1,0.3L59,18.5z M65.9,18.4c0,0.3,0,0.3-0.3,0.3
		h-2.5c-0.3,0-0.3-0.1-0.3-0.3V8.9h-1.9c-0.3,0-0.3-0.1-0.3-0.3V7c0-0.3,0.1-0.3,0.3-0.3h4.7c0.3,0,0.3,0.1,0.3,0.3V18.4z M64.3,5.1
		c-1.1,0-2.1-0.9-2.1-2c0-1.1,0.9-2,2.1-2c1.1,0,2,0.9,2,2C66.4,4.1,65.4,5.1,64.3,5.1z M79.6,18.4c0,0.3,0,0.3-0.3,0.3h-2.5
		c-0.3,0-0.3-0.1-0.3-0.3v-7.6c0-0.9-0.1-2.1-1.4-2.1c-1,0-1.9,0.7-2.2,1v8.6c0,0.3,0,0.3-0.3,0.3H70c-0.3,0-0.3-0.1-0.3-0.3V11
		c0-3.5-0.5-3.3-0.5-3.8c0-0.1,0.1-0.2,0.3-0.3l1.9-0.6c0.1,0,0.3-0.1,0.4-0.1c0.3,0,0.5,0.5,0.8,1.7c0.7-0.6,1.8-1.7,3.8-1.7
		c1.4,0,3.2,0.6,3.2,3.6V18.4z M92.3,14c0,1.6,0.1,4.2,0.1,5.5c0,2.7-1.3,4.4-4.8,4.4c-1.9,0-5.2-0.8-5.2-1.3c0-0.2,0-0.3,0.1-0.5
		l0.5-1.5c0-0.2,0.1-0.2,0.3-0.2c0.3,0,1.8,1,4,1c1.7,0,2-0.7,2-2.1c0-0.9-0.1-1.5-0.1-1.6c-0.4,0.2-1.3,0.9-3,0.9
		c-2.8,0-4.3-2.3-4.3-6c0-4,1.7-6.4,4.7-6.4c1.8,0,2.5,0.8,3,1.2c0.1-0.2,0.5-1.2,0.9-1.2c0.1,0,0.2,0,0.2,0L92.8,7
		C92.9,7,93,7.1,93,7.2c0,0.3-0.7,1.2-0.7,3.1V14z M89.3,9.6c-0.3-0.2-0.8-0.7-2-0.7c-1.5,0-2.1,1.4-2.1,3.7c0,2.2,0.5,3.6,2,3.6
		c1.3,0,1.9-0.6,2.1-0.8V9.6z"/>
	<path fill="#FF9900" d="M74.2,25.3c-6.6,5-16.1,7.7-24.3,7.7c-11.5,0-21.8-4.4-29.7-11.7c-0.6-0.6-0.1-1.4,0.7-0.9
		c8.5,5.1,18.9,8.2,29.7,8.2c7.3,0,15.3-1.6,22.6-4.8C74.4,23.2,75.3,24.5,74.2,25.3 M77,22.1c-0.8-1.1-5.6-0.5-7.7-0.3
		c-0.6,0.1-0.7-0.5-0.2-0.9c3.8-2.7,9.9-1.9,10.6-1c0.7,0.9-0.2,7.3-3.7,10.4c-0.5,0.5-1.1,0.2-0.8-0.4C76,27.8,77.8,23.2,77,22.1"/>
</svg>
