<svg viewBox="0 0 100 34" xmlns="http://www.w3.org/2000/svg">
	<path fill="#0096DA" d="M20.2,7h-6.6v7H9.6v3.6h3.9v7.7h4.7v-7.7h0.6h1.3c3.7,0,5.8-2,5.8-5.5C26,8.9,23.9,7,20.2,7z M20,14h-1.1 h-0.6v-3.4H20c1,0,1.6,0.6,1.6,1.7C21.6,13.4,21,14,20,14z"/>
	<polygon fill="#002B86" points="13.6,14 13.6,7 11.9,8.7 11.9,14"/>
	<path fill="#002B86" d="M20,14c1,0,1.6-0.6,1.6-1.7c0-1.1-0.6-1.7-1.6-1.7h-1.7v1.7h0.1C19.3,12.3,19.9,12.9,20,14C19.9,14,19.9,14,20,14L20,14z"/>
	<path fill="#002B86" d="M20.2,17.6h-1.3h-0.6v1.7h0.3c2,0,3.6-0.7,4.7-1.7c0.5-0.5,1.1-1.1,1.6-1.8C23.9,17,22.3,17.6,20.2,17.6z"/>
	<polygon fill="#002B86" points="13.6,17.6 9.6,17.6 9.6,14 8,15.7 8,19.3 11.9,19.3 11.9,27 16.6,27 18.3,25.3 13.6,25.3"/>
	<path fill="#002B86" stroke="#002B86" stroke-miterlimit="#002B86" d="M32,7h3.3c1.5,0,2.6,0.2,3.3,0.7c0.6,0.4,1.1,0.9,1.5,1.6c0.4,0.7,0.5,1.5,0.5,2.3c0,1.2-0.3,2.2-1,3.1 c-1,1.3-2.5,2-4.7,2h-1.8l-0.8,6.6H30L32,7z M34.2,9.2l-0.7,5.3h1.6c1,0,1.8-0.3,2.3-0.8c0.5-0.5,0.8-1.2,0.8-2.2 c0-1.6-1-2.3-3-2.3H34.2z"/>
	<path fill="#002B86" stroke="#002B86" stroke-miterlimit="#002B86" d="M51.4,13.4l-1.2,9.9h-2.4l0.1-1.1c-1,0.9-2.1,1.3-3.1,1.3c-1.3,0-2.4-0.4-3.3-1.3c-0.8-0.9-1.3-2.1-1.3-3.5 c0-1.6,0.5-3,1.4-4c1-1,2.2-1.6,3.8-1.6c0.7,0,1.3,0.1,1.8,0.3c0.5,0.2,1,0.6,1.6,1.2l0.2-1.3H51.4z M48.5,18 c0-0.9-0.3-1.6-0.8-2.1c-0.5-0.6-1.2-0.8-2-0.8c-0.9,0-1.6,0.3-2.2,1c-0.6,0.7-0.9,1.5-0.9,2.5c0,0.9,0.2,1.6,0.7,2.1 c0.5,0.6,1.1,0.8,1.9,0.8c0.9,0,1.6-0.3,2.3-1C48.2,19.9,48.5,19,48.5,18z"/>
	<path fill="#002B86" stroke="#002B86" stroke-miterlimit="#002B86" d="M63.5,13.4L54.4,29h-2.7l4.1-6.9l-3.6-8.7h2.5l2.5,6.4l3.6-6.4H63.5z"/>
	<path fill="#0096DA" stroke="#0096DA" stroke-miterlimit="#0096DA" d="M67.4,7h3.3c1.5,0,2.6,0.2,3.3,0.7c0.6,0.4,1.1,0.9,1.5,1.6c0.4,0.7,0.5,1.5,0.5,2.3c0,1.2-0.3,2.2-1,3.1 c-1,1.3-2.5,2-4.7,2h-1.8l-0.8,6.6h-2.4L67.4,7z M69.5,9.2l-0.7,5.3h1.6c1,0,1.8-0.3,2.3-0.8c0.5-0.5,0.8-1.2,0.8-2.2 c0-1.6-1-2.3-3-2.3H69.5z"/>
	<path fill="#0096DA" stroke="#0096DA" stroke-miterlimit="#0096DA" d="M86.7,13.4l-1.2,9.9h-2.4l0.1-1.1c-1,0.9-2.1,1.3-3.1,1.3c-1.3,0-2.4-0.4-3.3-1.3c-0.8-0.9-1.3-2.1-1.3-3.5 c0-1.6,0.5-3,1.4-4c1-1,2.2-1.6,3.8-1.6c0.7,0,1.3,0.1,1.8,0.3c0.5,0.2,1,0.6,1.6,1.2l0.2-1.3H86.7z M83.8,18 c0-0.9-0.3-1.6-0.8-2.1c-0.5-0.6-1.2-0.8-2-0.8c-0.9,0-1.6,0.3-2.2,1c-0.6,0.7-0.9,1.5-0.9,2.5c0,0.9,0.2,1.6,0.7,2.1 c0.5,0.6,1.1,0.8,1.9,0.8c0.9,0,1.6-0.3,2.3-1C83.5,19.9,83.8,19,83.8,18z"/>
	<path fill="#0096DA" stroke="#0096DA" stroke-miterlimit="#0096DA" d="M91.3,13.4L90,23.3h-2.4l1.2-9.9H91.3z M92,8.6c0,0.3-0.1,0.6-0.4,0.9c-0.2,0.2-0.5,0.4-0.9,0.4 c-0.3,0-0.7-0.1-0.9-0.4c-0.2-0.3-0.4-0.6-0.4-0.9c0-0.3,0.1-0.6,0.4-0.9c0.2-0.2,0.5-0.4,0.9-0.4c0.3,0,0.7,0.1,0.9,0.4 C91.9,8,92,8.3,92,8.6z"/>
</svg>
