<svg viewBox="0 0 100 34" xmlns="http://www.w3.org/2000/svg">
	<path fill="#82B541" d="M15.1,9.8c-0.5-0.3-1.8-0.1-3.5,0.4c-2.9,2-5.3,4.9-5.4,9.5c0,0.1-0.3,0-0.4,0c-0.8-1.5-1.1-3.1-0.4-5.3
		C5.5,14.2,5.1,13.9,5,14c-0.1,0.1-0.7,0.8-1.1,1.5c-1.9,3.4-0.7,7.7,2.7,9.6c3.4,1.9,7.7,0.7,9.5-2.7C18.4,18.4,16.3,10.5,15.1,9.8
		L15.1,9.8z"/>
	<path d="M27.2,11.7c-4,0-6.9,3-6.9,7.2c0,4.2,2.9,7.1,7.1,7.1c2.1,0,3.8-0.7,5.1-2c0.4-0.4,0.4-0.8,0.4-1c0-0.7-0.5-1.2-1.2-1.2
		c-0.3,0-0.6,0.1-1,0.4c-0.7,0.7-1.7,1.4-3.4,1.4c-2.3,0-4.1-1.7-4.2-3.9h9.1c1,0,1.5-0.5,1.5-1.4c0-0.3,0-0.5-0.1-0.9
		C33.1,13.8,30.7,11.7,27.2,11.7L27.2,11.7z M27.2,13.9c2.2,0,3.6,1.4,3.7,3.7h-7.8C23.3,15.5,25,13.9,27.2,13.9L27.2,13.9z
		M42.3,11.7c-1.8,0-3.6,1.1-4.3,2.5v-0.9c0-1.4-1.1-1.5-1.3-1.5c-0.6,0-1.3,0.4-1.3,1.5v11c0,1.5,1.2,1.5,1.4,1.5s1.4-0.1,1.4-1.5
		v-5.9c0-2.6,1.4-4.4,3.5-4.4c2,0,3,1.3,3,4v6.2c0,1.5,1.2,1.5,1.4,1.5s1.4-0.1,1.4-1.5v-7.1C47.3,14.6,46,11.7,42.3,11.7L42.3,11.7z
		M59.8,11.9c-0.6,0-1.1,0.4-1.4,1.1l-3.8,9.6L50.9,13c-0.3-0.8-0.8-1.1-1.4-1.1c-0.8,0-1.4,0.6-1.4,1.3c0,0.2,0,0.4,0.2,0.8
		l4.3,10.4c0.5,1.3,1.4,1.5,2,1.5c0.6,0,1.5-0.3,2-1.5L61,13.9c0.1-0.4,0.2-0.6,0.2-0.8C61.1,12.4,60.6,11.9,59.8,11.9L59.8,11.9z
		M67.8,11.7c-1.8,0-3.4,0.5-4.6,1.4c-0.4,0.3-0.6,0.6-0.6,1.1c0,0.6,0.5,1.1,1.1,1.1c0.3,0,0.6-0.1,0.8-0.3c1-0.7,2-1,3.1-1
		c2,0,3.2,1,3.2,2.9v0.3c-4.6,0-9.2,0.6-9.2,4.6c0,2.9,2.5,4.2,4.9,4.2c1.9,0,3.5-0.8,4.5-2.2v0.7c0,1.1,0.7,1.4,1.3,1.4
		c0.1,0,1.2,0,1.2-1.4V17C73.4,13.7,71.3,11.7,67.8,11.7L67.8,11.7z M70.2,19.2h0.6v0.6c0,2.4-1.5,3.9-3.8,3.9c-0.6,0-2.7-0.1-2.7-2
		C64.4,19.5,67.7,19.2,70.2,19.2z M80.6,14.4c1.2,0,1.3-1,1.3-1.1c0-0.6-0.3-1.2-1.3-1.2h-2.5V9.5c0-1.1-0.7-1.5-1.4-1.5
		c-0.2,0-1.4,0.1-1.4,1.5v12.1c0,2.8,1.4,4.3,3.9,4.3c0.7,0,1.3-0.1,1.7-0.3c0.5-0.2,0.8-0.6,0.8-1.1c0-0.6-0.5-1.1-1.1-1.1
		c-0.1,0-0.3,0-0.5,0.1c-0.2,0.1-0.4,0.1-0.6,0.1c-1,0-1.5-0.7-1.5-2.2v-6.9L80.6,14.4L80.6,14.4z M89.8,11.7c-4.2,0-7.2,3-7.2,7.1
		c0,2,0.7,3.8,2.1,5.2c1.3,1.3,3.1,2,5.1,2c4.1,0,7.2-3.1,7.2-7.2C97,14.7,94,11.7,89.8,11.7L89.8,11.7z M89.8,23.6
		c-2.9,0-4.4-2.4-4.4-4.8c0-3.3,2.3-4.8,4.4-4.8c2.1,0,4.4,1.5,4.4,4.8C94.1,22.1,91.9,23.6,89.8,23.6z"/>
</svg>
