<svg viewBox="0 0 100 34" xmlns="http://www.w3.org/2000/svg">
<path fill="#1DD05D" d="M29.3,17c0,6.6-5.4,12-12.1,12C10.4,29,5,23.6,5,17c0-6.6,5.4-12,12.1-12C23.8,5,29.3,10.4,29.3,17z M17.1,11.5
	c-3.2,0-6.1,1.5-7.9,3.9l1.1,1.1c1.5-2.1,4-3.4,6.8-3.4c2.8,0,5.3,1.4,6.8,3.4l1.1-1.1C23.2,13,20.4,11.5,17.1,11.5z M17.1,14.1
	c-2.6,0-4.9,1.3-6.3,3.2l1.1,1.1c1.1-1.7,3-2.8,5.2-2.8c2.2,0,4.1,1.1,5.2,2.8l1.1-1.1C22,15.4,19.7,14.1,17.1,14.1z M17.1,16.8
	c-1.8,0-3.4,1-4.3,2.5l1.1,1.1c0.5-1.2,1.7-2.1,3.1-2.1c1.4,0,2.6,0.9,3.1,2.1l1.1-1.1C20.6,17.8,19,16.8,17.1,16.8z M17.1,22.8
	l1.9-1.9c-0.5-0.5-1.2-0.8-1.9-0.8c-0.8,0-1.4,0.3-1.9,0.8L17.1,22.8z M39.1,24.2c2.9,0,4.9-1.5,4.9-4v0c0-2.2-1.5-3.2-4.4-3.9
	c-2.6-0.6-3.2-1.1-3.2-2.1v0c0-0.9,0.8-1.6,2.2-1.6c1.1,0,2.1,0.3,3.1,1c0.2,0.1,0.4,0.2,0.6,0.2c0.6,0,1.1-0.5,1.1-1.1
	c0-0.5-0.3-0.8-0.5-0.9c-1.2-0.8-2.6-1.2-4.3-1.2c-2.7,0-4.6,1.6-4.6,3.9v0c0,2.5,1.6,3.3,4.5,4c2.5,0.6,3.1,1.1,3.1,2.1v0
	c0,1-0.9,1.7-2.4,1.7c-1.5,0-2.7-0.5-3.8-1.4c-0.2-0.1-0.4-0.2-0.7-0.2c-0.6,0-1.1,0.5-1.1,1.1c0,0.4,0.2,0.7,0.5,0.9
	C35.5,23.7,37.2,24.2,39.1,24.2z M45.5,26.1c0,0.7,0.5,1.2,1.2,1.2c0.7,0,1.2-0.5,1.2-1.2v-3.6c0.7,0.9,1.8,1.8,3.5,1.8
	c2.4,0,4.8-1.9,4.8-5.3v0c0-3.4-2.4-5.3-4.8-5.3c-1.7,0-2.7,0.8-3.5,1.9V15c0-0.7-0.5-1.2-1.2-1.2c-0.7,0-1.2,0.5-1.2,1.2V26.1z
	 M50.8,22.2c-1.6,0-3-1.3-3-3.2v0c0-1.9,1.4-3.2,3-3.2s2.9,1.3,2.9,3.2v0C53.7,21,52.4,22.2,50.8,22.2z M60.5,24.3
	c1.6,0,2.6-0.7,3.3-1.5v0.4c0,0.5,0.5,1,1.1,1c0.6,0,1.1-0.5,1.1-1.1v-5c0-1.3-0.3-2.4-1.1-3.1c-0.7-0.7-1.9-1.1-3.4-1.1
	c-1.3,0-2.3,0.2-3.3,0.6c-0.3,0.1-0.6,0.5-0.6,0.9c0,0.5,0.4,1,1,1c0.1,0,0.2,0,0.4-0.1c0.6-0.2,1.4-0.4,2.3-0.4
	c1.7,0,2.5,0.8,2.5,2.2v0.2c-0.8-0.2-1.6-0.4-2.8-0.4c-2.5,0-4.2,1.1-4.2,3.3v0C56.9,23.2,58.6,24.3,60.5,24.3z M61.2,22.6
	c-1.1,0-2-0.6-2-1.5v0c0-1.1,0.9-1.7,2.4-1.7c0.9,0,1.7,0.2,2.3,0.4v0.7C63.9,21.7,62.7,22.6,61.2,22.6z M71.3,24.2
	c0.6,0,1.1-0.1,1.6-0.3c0.3-0.1,0.6-0.5,0.6-0.9c0-0.5-0.5-1-1-1c-0.1,0-0.3,0.1-0.6,0.1c-0.8,0-1.3-0.4-1.3-1.3v-5h1.8
	c0.6,0,1-0.4,1-1c0-0.6-0.5-1-1-1h-1.8v-1.7c0-0.6-0.5-1.2-1.2-1.2c-0.7,0-1.2,0.5-1.2,1.2v1.7H68c-0.6,0-1,0.4-1,1c0,0.6,0.4,1,1,1
	h0.4v5.3C68.4,23.5,69.6,24.2,71.3,24.2z M74.9,11.3c0,0.7,0.6,1.2,1.3,1.2c0.8,0,1.3-0.5,1.3-1.2v-0.1c0-0.7-0.6-1.1-1.3-1.1
	c-0.8,0-1.3,0.4-1.3,1.1V11.3z M75,23c0,0.7,0.5,1.2,1.2,1.2c0.7,0,1.2-0.5,1.2-1.2v-8c0-0.7-0.5-1.2-1.2-1.2S75,14.3,75,15V23z
	 M80,23c0,0.6,0.5,1.2,1.2,1.2c0.7,0,1.2-0.5,1.2-1.2v-7.1h1.8c0.5,0,1-0.4,1-1s-0.4-1-1-1h-1.8v-0.6c0-1.1,0.5-1.5,1.4-1.5
	c0.2,0,0.3,0,0.5,0c0.5,0,1-0.4,1-1c0-0.5-0.4-0.9-0.8-1C84,10,83.6,9.9,83.2,9.9c-1,0-1.8,0.3-2.3,0.8c-0.5,0.5-0.8,1.4-0.8,2.5V14
	h-0.4c-0.5,0-1,0.4-1,1s0.4,1,1,1H80V23z M87.7,27.2c1.7,0,2.6-0.8,3.5-2.8l3.8-8.9c0-0.1,0.1-0.4,0.1-0.6c0-0.6-0.5-1.1-1.1-1.1
	c-0.6,0-0.9,0.4-1.1,0.9l-2.6,6.7l-2.8-6.7c-0.2-0.5-0.5-0.9-1.1-0.9c-0.7,0-1.2,0.5-1.2,1.1c0,0.2,0.1,0.4,0.1,0.6l3.8,8.4L89,24.1
	c-0.4,0.8-0.8,1.1-1.5,1.1c-0.3,0-0.5-0.1-0.8-0.1c-0.1,0-0.2-0.1-0.4-0.1c-0.5,0-1,0.4-1,1c0,0.6,0.4,0.8,0.7,1
	C86.5,27.1,87,27.2,87.7,27.2z"/>
</svg>
