<svg viewBox="0 0 100 34" xmlns="http://www.w3.org/2000/svg">
	<path fill="#3498DB" d="M15.7,23.6c-2.6,0-4.9-0.9-6.8-2.8C7,19,6,16.7,6,13.8C6,11,7,8.6,8.9,6.8c1.9-1.9,4.3-2.8,7-2.8
	c2.1,0,3.9,0.5,5.5,1.5c1.6,1,2.8,2.4,3.5,4.3h-3.8c-1-1.9-2.8-2.9-5.2-2.9c-2,0-3.5,0.6-4.8,1.9c-1.2,1.3-1.9,3-1.9,5
	s0.6,3.8,1.9,5c1.2,1.3,2.8,1.9,4.6,1.9c1.8,0,3.3-0.5,4.4-1.5c1.1-1,1.7-2.3,2-3.9h-7.3v-2.5h10.7v2.5c-0.3,2.3-1.3,4.3-3.1,5.9
	C20.6,22.8,18.4,23.6,15.7,23.6z"/>
	<path fill="#C0392B" d="M28.5,21.5c-1.4-1.5-2.1-3.4-2.1-5.7c0-2.3,0.7-4.2,2.1-5.6C29.9,8.7,31.6,8,33.7,8c1.2,0,2.3,0.3,3.2,0.8
	c0.9,0.5,1.6,1.3,2.1,2.1V8.2h3.2v15.2H39v-2.8c-0.5,0.9-1.2,1.7-2.1,2.3c-0.9,0.6-2,0.8-3.2,0.8C31.6,23.7,29.9,23,28.5,21.5z
	M37.6,19.6c0.9-0.9,1.4-2.2,1.4-3.7c0-1.6-0.5-2.8-1.4-3.7c-0.9-0.9-2-1.4-3.3-1.4c-1.3,0-2.4,0.5-3.3,1.4
	c-0.9,0.9-1.4,2.1-1.4,3.7c0,1.6,0.5,2.8,1.4,3.8c0.9,0.9,2,1.4,3.3,1.4C35.6,21,36.7,20.5,37.6,19.6z"/>
	<path fill="#16A085" d="M48.5,8.2v2.7C49.5,8.9,51,8,53.1,8v3.3h-0.8c-1.2,0-2.2,0.3-2.8,0.9c-0.6,0.6-1,1.7-1,3.3v8h-3.2V8.2H48.5z"/>
	<path fill="#F1C40F" d="M55.9,21.5c-1.4-1.5-2.1-3.4-2.1-5.7c0-2.3,0.7-4.2,2.1-5.6S59,8,61.1,8c1.2,0,2.3,0.3,3.2,0.8
	c0.9,0.5,1.6,1.3,2.1,2.1V8.2h3.2v15.5c0,2.1-0.7,3.9-2,5.2c-1.3,1.4-3.1,2-5.3,2c-2.2,0-4-0.5-5.4-1.5c-1.4-1-2.2-2.3-2.3-3.9h3.2
	c0.2,0.8,0.8,1.4,1.5,1.9c0.8,0.5,1.8,0.7,3,0.7c1.2,0,2.2-0.4,3-1.2c0.8-0.8,1.2-1.9,1.2-3.4v-3.1c-0.5,0.9-1.2,1.7-2.1,2.3
	c-0.9,0.6-2,0.8-3.2,0.8C59,23.7,57.3,23,55.9,21.5z M65,19.6c0.9-0.9,1.4-2.2,1.4-3.7c0-1.6-0.5-2.8-1.4-3.7
	c-0.9-0.9-2-1.4-3.3-1.4c-1.3,0-2.4,0.5-3.3,1.4c-0.9,0.9-1.4,2.1-1.4,3.7c0,1.6,0.5,2.8,1.4,3.8c0.9,0.9,2,1.4,3.3,1.4
	C63,21,64.1,20.5,65,19.6z"/>
	<path fill="#e74c3c" d="M72.7,23.5V3h3.2v20.5H72.7z"/>
	<path fill="#8E44AD" d="M85.4,23.7c-2.2,0-4-0.7-5.4-2.2c-1.4-1.4-2.1-3.3-2.1-5.7s0.7-4.3,2.1-5.7C81.4,8.7,83.2,8,85.5,8
	c2.2,0,4.1,0.7,5.5,2.1c1.4,1.4,2.1,3.2,2.1,5.4c0,0.5,0,1-0.1,1.5H81.1c0.1,1.3,0.5,2.3,1.3,3c0.8,0.7,1.8,1.1,3,1.1
	c1.7,0,2.9-0.7,3.7-2.1h3.4c-0.5,1.4-1.3,2.6-2.5,3.4C88.7,23.3,87.2,23.7,85.4,23.7z M88.4,11.8c-0.8-0.7-1.8-1.1-3-1.1
	c-1.2,0-2.2,0.4-2.9,1.1c-0.8,0.7-1.2,1.7-1.4,3h8.5C89.7,13.5,89.2,12.5,88.4,11.8z"/>
</svg>
