<svg viewBox="0 0 100 34" xmlns="http://www.w3.org/2000/svg">
<path fill="#FF5A5F" d="M31.5,23.4c-1-1.1-1.5-2.5-1.5-4.2c0-1.7,0.5-3.1,1.5-4.1c1-1.1,2.2-1.6,3.7-1.6c1.5,0,2.7,0.6,3.4,1.9v-1.7
	h2.8v11.2h-2.8V23c-0.8,1.4-2,2-3.5,2C33.7,25,32.5,24.5,31.5,23.4z M37.8,21.6c0.6-0.6,0.9-1.4,0.9-2.4s-0.3-1.8-0.9-2.4
	c-0.6-0.6-1.3-0.9-2-0.9c-0.8,0-1.5,0.3-2,0.9c-0.6,0.6-0.9,1.4-0.9,2.4c0,1,0.3,1.8,0.9,2.4c0.6,0.6,1.3,0.9,2,0.9
	C36.5,22.5,37.2,22.2,37.8,21.6z M46.3,10.7c0,0.5-0.2,0.9-0.5,1.2c-0.3,0.3-0.7,0.5-1.2,0.5c-0.5,0-0.9-0.2-1.2-0.5
	c-0.3-0.3-0.5-0.8-0.5-1.2s0.2-0.9,0.5-1.2C43.7,9.2,44.1,9,44.6,9c0.5,0,0.9,0.2,1.2,0.5C46.1,9.8,46.3,10.3,46.3,10.7z M43.2,24.8
	V13.6H46v11.2H43.2z M50.6,13.6v2c0.7-1.4,1.8-2.1,3.2-2.1v2.9h-0.7c-0.8,0-1.5,0.2-1.9,0.6s-0.6,1.2-0.6,2.2v5.6h-2.8V13.6H50.6z
	 M57.4,15.3c0.8-1.3,1.9-1.9,3.4-1.9c1.5,0,2.7,0.5,3.7,1.6c1,1.1,1.5,2.5,1.5,4.2c0,1.7-0.5,3.1-1.5,4.2c-1,1.1-2.2,1.6-3.7,1.6
	s-2.6-0.7-3.5-2v1.9h-2.8v-15h2.8V15.3z M62.3,21.6c0.6-0.6,0.9-1.4,0.9-2.4c0-1-0.3-1.8-0.9-2.4s-1.3-0.9-2-0.9
	c-0.8,0-1.5,0.3-2,0.9c-0.6,0.6-0.9,1.4-0.9,2.4s0.3,1.8,0.9,2.4c0.6,0.6,1.3,0.9,2,0.9C61,22.5,61.7,22.2,62.3,21.6z M67.8,23.4
	c-1.1-1.1-1.6-2.5-1.6-4.2c0-1.7,0.5-3.1,1.6-4.2c1.1-1.1,2.4-1.6,4-1.6s2.9,0.5,4,1.6c1.1,1.1,1.6,2.4,1.6,4.2
	c0,1.7-0.5,3.1-1.6,4.2c-1.1,1.1-2.4,1.6-4.1,1.6S68.9,24.5,67.8,23.4z M71.9,22.6c0.8,0,1.4-0.3,2-0.9c0.6-0.6,0.8-1.4,0.8-2.5
	c0-1.1-0.3-1.9-0.8-2.5c-0.6-0.6-1.2-0.9-2-0.9s-1.4,0.3-2,0.9s-0.8,1.4-0.8,2.5c0,1.1,0.3,1.9,0.8,2.5
	C70.4,22.3,71.1,22.6,71.9,22.6z M81.4,15.3c0.8-1.3,1.9-1.9,3.4-1.9c1.5,0,2.7,0.5,3.7,1.6c1,1.1,1.5,2.5,1.5,4.2
	c0,1.7-0.5,3.1-1.5,4.2c-1,1.1-2.2,1.6-3.7,1.6c-1.5,0-2.6-0.7-3.5-2v1.9h-2.8v-15h2.8V15.3z M86.3,21.6c0.6-0.6,0.9-1.4,0.9-2.4
	c0-1-0.3-1.8-0.9-2.4s-1.3-0.9-2-0.9c-0.8,0-1.5,0.3-2,0.9c-0.6,0.6-0.9,1.4-0.9,2.4s0.3,1.8,0.9,2.4c0.6,0.6,1.3,0.9,2,0.9
	C85.1,22.5,85.7,22.2,86.3,21.6z M15.5,29.8c0.1,0.1,0.3,0.2,0.5,0.2s0.4-0.1,0.5-0.2C20,26.4,26,19,26,14c0-5.5-4.5-10-10-10
	S6,8.5,6,14C6,19,12.1,26.4,15.5,29.8z M16,5.5c4.7,0,8.5,3.8,8.5,8.4c0,4.9-6.5,12.1-8.5,14.2c-2-2.1-8.5-9.3-8.5-14.2
	C7.5,9.3,11.3,5.5,16,5.5z M16.2,19.2c2.6-0.9,5.1-3.1,5.1-6.1c0-1.7-1.4-3-3.1-3c-0.9,0-1.7,0.4-2.3,1c-0.6-0.6-1.4-1-2.3-1
	c-1.7,0-3.1,1.4-3.1,3c0,3,2.6,5.2,5.1,6.1c0.1,0,0.2,0,0.2,0C16.1,19.3,16.2,19.3,16.2,19.2z M12.2,13.2c0-0.8,0.7-1.5,1.5-1.5
	c0.8,0,1.5,0.7,1.5,1.5c0,0.4,0.3,0.8,0.8,0.8c0.4,0,0.8-0.3,0.8-0.8c0-0.8,0.7-1.5,1.5-1.5c0.8,0,1.5,0.7,1.5,1.5
	c0,2.7-3,4.2-3.8,4.5C15.1,17.3,12.2,15.9,12.2,13.2L12.2,13.2z"/>
</svg>
