<svg width="55" height="55" viewBox="0 0 55 55" xmlns="http://www.w3.org/2000/svg">
    <path d="M49.2753 12.4475C48.4511 10.7993 46.7944 9.77539 44.9517 9.77539H8.05664C3.61421 9.77539 0 13.3896 0 17.832V37.168C0 39.8334 2.16853 42.002 4.83398 42.002H7.31242C8.42864 43.9265 10.5103 45.2246 12.8906 45.2246C15.271 45.2246 17.3526 43.9265 18.4688 42.002H36.5312C37.6474 43.9265 39.729 45.2246 42.1094 45.2246C44.4897 45.2246 46.5714 43.9265 47.6876 42.002H50.166C52.8315 42.002 55 39.8334 55 37.168V31.1242C55 21.397 50.5369 15.5367 49.2753 12.4475ZM49.1598 19.4434C50.1248 21.4922 50.8318 23.6639 51.266 25.8887H42.1094V19.4434H49.1598ZM12.8906 42.002C11.1137 42.002 9.66797 40.5563 9.66797 38.7793C9.66797 37.0023 11.1137 35.5566 12.8906 35.5566C14.6676 35.5566 16.1133 37.0023 16.1133 38.7793C16.1133 40.5563 14.6676 42.002 12.8906 42.002ZM42.1094 42.002C40.3324 42.002 38.8867 40.5563 38.8867 38.7793C38.8867 37.0023 40.3324 35.5566 42.1094 35.5566C43.8863 35.5566 45.332 37.0023 45.332 38.7793C45.332 40.5563 43.8863 42.002 42.1094 42.002ZM51.7773 32.334H50.166C49.2761 32.334 48.5547 33.0554 48.5547 33.9453C48.5547 34.8352 49.2761 35.5566 50.166 35.5566H51.7773V37.168C51.7773 38.0565 51.0545 38.7793 50.166 38.7793H48.5547C48.5547 35.2254 45.6633 32.334 42.1094 32.334C38.5554 32.334 35.6641 35.2254 35.6641 38.7793H19.3359C19.3359 35.2254 16.4446 32.334 12.8906 32.334C9.33668 32.334 6.44531 35.2254 6.44531 38.7793H4.83398C3.9455 38.7793 3.22266 38.0565 3.22266 37.168V35.5566H4.83398C5.72387 35.5566 6.44531 34.8352 6.44531 33.9453C6.44531 33.0554 5.72387 32.334 4.83398 32.334H3.22266V17.832C3.22266 15.1666 5.39118 12.998 8.05664 12.998H44.9517C45.566 12.998 46.1181 13.3393 46.3929 13.8888L47.5589 16.2207H40.498C39.6082 16.2207 38.8867 16.9421 38.8867 17.832V27.5C38.8867 28.3899 39.6082 29.1113 40.498 29.1113H51.6994C51.7493 29.7813 51.7773 30.4527 51.7773 31.1242V32.334Z" fill="currentColor"/>
    <path d="M34.0527 16.2207H24.1699C23.28 16.2207 22.5586 16.9421 22.5586 17.832V27.5C22.5586 28.3899 23.28 29.1113 24.1699 29.1113H34.0527C34.9426 29.1113 35.6641 28.3899 35.6641 27.5V17.832C35.6641 16.9421 34.9426 16.2207 34.0527 16.2207ZM32.4414 25.8887H25.7812V19.4434H32.4414V25.8887Z" fill="currentColor"/>
    <path d="M17.7246 16.2207H8.05664C7.16676 16.2207 6.44531 16.9421 6.44531 17.832V27.5C6.44531 28.3899 7.16676 29.1113 8.05664 29.1113H17.7246C18.6145 29.1113 19.3359 28.3899 19.3359 27.5V17.832C19.3359 16.9421 18.6145 16.2207 17.7246 16.2207ZM16.1133 25.8887H9.66797V19.4434H16.1133V25.8887Z" fill="currentColor"/>
</svg>
