<svg width="50" height="50" viewBox="0 0 50 50" xmlns="http://www.w3.org/2000/svg">
    <path d="M21.6643 41.0672C11.7065 40.6467 3.90624 32.4903 3.90624 22.4984C3.90624 12.2503 12.2299 3.91276 22.4609 3.91276C31.088 3.91276 38.7056 10.0254 40.5738 18.447C40.8077 19.5018 41.8507 20.1668 42.904 19.9325C43.957 19.6981 44.621 18.6531 44.387 17.5983C43.2962 12.6814 40.5339 8.21543 36.6088 5.0234C32.6254 1.78402 27.6009 0 22.4609 0C16.4613 0 10.821 2.34022 6.5786 6.58958C2.33632 10.839 0 16.4888 0 22.4984C0 28.34 2.225 33.8761 6.26493 38.0866C10.2931 42.2848 15.7036 44.7317 21.4998 44.9765C21.5278 44.9777 21.5556 44.9783 21.5835 44.9783C22.6243 44.9783 23.4892 44.1557 23.5335 43.1042C23.579 42.0247 22.742 41.1126 21.6643 41.0672Z" fill="currentColor"/>
    <path d="M22.461 7.84009C21.3823 7.84009 20.5079 8.71596 20.5079 9.79647V21.6882L14.1981 28.0086C13.4353 28.7726 13.4353 30.0112 14.1981 30.7753C14.5794 31.1573 15.0792 31.3483 15.5791 31.3483C16.079 31.3483 16.5788 31.1573 16.9602 30.7753L23.8421 23.8819C24.2084 23.5151 24.4142 23.0174 24.4142 22.4986V9.79647C24.4142 8.71596 23.5398 7.84009 22.461 7.84009Z" fill="currentColor"/>
    <path d="M45.9818 24.2931C43.9454 23.4605 41.28 23.002 38.4766 23.002C35.6731 23.002 33.0077 23.4605 30.9713 24.2931C27.4752 25.7224 26.9531 27.7749 26.9531 28.8711V44.1309C26.9531 45.2271 27.4752 47.2795 30.9713 48.7089C33.0077 49.5414 35.6731 50 38.4766 50C41.28 50 43.9454 49.5414 45.9818 48.7089C49.4779 47.2795 50 45.227 50 44.1309V28.8711C50 27.7748 49.4779 25.7224 45.9818 24.2931ZM46.0937 44.0688C45.7711 44.6703 43.1452 46.0872 38.4766 46.0872C33.8079 46.0872 31.182 44.6704 30.8594 44.0688V40.9335C30.897 40.9494 30.9329 40.9654 30.9713 40.9812C33.0077 41.8137 35.6731 42.2723 38.4766 42.2723C39.1527 42.2723 39.8296 42.2455 40.4883 42.1926C41.5635 42.1062 42.3652 41.163 42.2789 40.0859C42.1926 39.0089 41.2523 38.2063 40.1758 38.2923C39.6206 38.3369 39.0489 38.3596 38.4766 38.3596C33.8066 38.3596 31.1809 36.9422 30.8594 36.3409V33.4017C30.897 33.4175 30.9329 33.4336 30.9713 33.4493C33.0077 34.2819 35.6731 34.7404 38.4766 34.7404C39.1527 34.7404 39.8296 34.7136 40.4883 34.6607C41.5635 34.5743 42.3652 33.6312 42.2789 32.5541C42.1926 31.477 41.2523 30.6743 40.1758 30.7605C39.6206 30.8051 39.0489 30.8278 38.4766 30.8278C33.9607 30.8278 31.3567 29.5024 30.899 28.8713C31.3574 28.24 33.9615 26.915 38.4766 26.915C43.1452 26.915 45.7711 28.3318 46.0937 28.9334V44.0688Z" fill="currentColor"/>
</svg>
