<svg width="16" height="16" viewBox="0 0 16 16" fill="none" xmlns="http://www.w3.org/2000/svg">
    <path d="M10.0469 0H5.95294C5.37707 0 4.90857 0.4685 4.90857 1.04437V3.02872H6.16182V1.25325H9.83806V3.02872H11.0913V1.04437C11.0913 0.4685 10.6228 0 10.0469 0Z" fill="currentColor"/>
    <path d="M11.0492 5.51652L9.7968 5.47058L9.52527 12.8857L10.7777 12.9315L11.0492 5.51652Z" fill="currentColor"/>
    <path d="M8.62666 5.49353H7.37341V12.9087H8.62666V5.49353Z" fill="currentColor"/>
    <path d="M6.47453 12.8855L6.203 5.47034L4.95056 5.51631L5.22212 12.9314L6.47453 12.8855Z" fill="currentColor"/>
    <path d="M0.543091 2.4021V3.65535H1.849L2.885 15.4283C2.9134 15.7519 3.18434 16 3.50912 16H12.4697C12.7946 16 13.0657 15.7517 13.0939 15.4281L14.1299 3.65535H15.4569V2.4021H0.543091ZM11.8958 14.7468H4.08293L3.10706 3.65535H12.8719L11.8958 14.7468Z" fill="currentColor"/>
</svg>
