<svg width="50" height="44" viewBox="0 0 50 44" fill="none" xmlns="http://www.w3.org/2000/svg">
    <path d="M28.9062 22C28.9062 19.8461 27.1539 18.0938 25 18.0938C22.8461 18.0938 21.0938 19.8461 21.0938 22C21.0938 24.1539 22.8461 25.9062 25 25.9062C27.1539 25.9062 28.9062 24.1539 28.9062 22ZM25 23.9531C23.923 23.9531 23.0469 23.077 23.0469 22C23.0469 20.923 23.923 20.0469 25 20.0469C26.077 20.0469 26.9531 20.923 26.9531 22C26.9531 23.077 26.077 23.9531 25 23.9531Z" fill="currentColor"/>
    <path d="M6.83594 43.4844H20.6055C21.1447 43.4844 21.582 43.0472 21.582 42.5078C21.582 41.9685 21.1447 41.5312 20.6055 41.5312H6.83594C4.47793 41.5312 2.50488 39.851 2.05127 37.624H47.9487C47.4951 39.851 45.5221 41.5312 43.1641 41.5312H29.3945C28.8553 41.5312 28.418 41.9685 28.418 42.5078C28.418 43.0472 28.8553 43.4844 29.3945 43.4844H43.1641C46.9334 43.4844 50 40.4178 50 36.6484C50 36.1091 49.5627 35.6719 49.0234 35.6719H45.6055V10.2812C45.6055 9.74189 45.1682 9.30469 44.6289 9.30469H37.6953V1.49219C37.6953 1.13203 37.4971 0.801074 37.1796 0.631152C36.862 0.46123 36.4766 0.479883 36.1771 0.679688L28.9062 5.52686V1.49219C28.9062 0.952832 28.4689 0.515625 27.9297 0.515625H13.2812C12.742 0.515625 12.3047 0.952832 12.3047 1.49219V9.30469H5.37109C4.83184 9.30469 4.39453 9.74189 4.39453 10.2812V35.6719H0.976562C0.437305 35.6719 0 36.1091 0 36.6484C0 40.4178 3.0666 43.4844 6.83594 43.4844ZM29.8828 35.6719H20.1172V32.7422C20.1172 30.0498 22.3076 27.8594 25 27.8594C27.6924 27.8594 29.8828 30.0498 29.8828 32.7422V35.6719ZM35.7422 3.31689V11.3862L29.6901 7.35156L35.7422 3.31689ZM14.2578 2.46875H26.9531V12.2344H14.2578V2.46875ZM6.34766 11.2578H12.3047V13.2109C12.3047 13.7503 12.742 14.1875 13.2812 14.1875H27.9297C28.4689 14.1875 28.9062 13.7503 28.9062 13.2109V9.17627L36.1771 14.0234C36.4771 14.2235 36.8625 14.2416 37.1796 14.072C37.4971 13.9021 37.6953 13.5711 37.6953 13.2109V11.2578H43.6523V35.6719H31.8359V32.7422C31.8359 28.9729 28.7693 25.9062 25 25.9062C21.2307 25.9062 18.1641 28.9729 18.1641 32.7422V35.6719H6.34766V11.2578Z" fill="currentColor"/>
    <path d="M25 43.4844C25.5393 43.4844 25.9766 43.0472 25.9766 42.5078C25.9766 41.9685 25.5393 41.5312 25 41.5312C24.4607 41.5312 24.0234 41.9685 24.0234 42.5078C24.0234 43.0472 24.4607 43.4844 25 43.4844Z" fill="currentColor"/>
</svg>
