<svg width="48" height="50" viewBox="0 0 48 50" xmlns="http://www.w3.org/2000/svg">
    <path d="M24.0002 24.0425C27.231 24.0425 29.8594 21.414 29.8594 18.1831C29.8594 14.9522 27.231 12.3237 24.0002 12.3237C20.7692 12.3237 18.1406 14.9522 18.1406 18.1831C18.1406 21.414 20.7692 24.0425 24.0002 24.0425ZM24.0002 15.2534C25.6155 15.2534 26.9297 16.5677 26.9297 18.1831C26.9297 19.7985 25.6155 21.1128 24.0002 21.1128C22.3847 21.1128 21.0703 19.7985 21.0703 18.1831C21.0703 16.5677 22.3847 15.2534 24.0002 15.2534Z" fill="currentColor"/>
    <path d="M42.6384 33.6914H32.8346C37.4124 29.3218 41.5777 25.0386 41.5777 17.5781C41.5777 7.52617 34.0299 0 23.9998 0C13.9494 0 6.42148 7.54853 6.42148 17.5781C6.42148 25.0386 10.5869 29.3218 15.1648 33.6914H5.36084L0.00390625 50H47.9953L42.6384 33.6914ZM9.35117 17.5781C9.35117 9.09023 15.5118 2.92969 23.9998 2.92969C32.4876 2.92969 38.648 9.09023 38.648 17.5781C38.648 27.074 30.6328 30.4373 23.9998 38.6155C22.0064 36.1579 19.8746 34.1293 17.8016 32.1569C13.0803 27.6646 9.35117 24.1163 9.35117 17.5781ZM5.23682 43.457H15.7965V40.5273H6.19912L7.48223 36.6211H18.1402V36.5553C22.0314 40.414 23.0842 42.3479 23.9998 43.5012C24.9381 42.3193 25.9564 40.4256 29.859 36.5555V36.6211H40.5171L41.8002 40.5273H32.2027V43.457H42.7624L43.9492 47.0703H4.05L5.23682 43.457Z" fill="currentColor"/>
</svg>
