<svg width="18" height="18" viewBox="0 0 18 18" fill="none" xmlns="http://www.w3.org/2000/svg">
    <path d="M17.7859 0.164169C17.6493 0.0430309 17.468 -0.0150898 17.2864 0.00408285L5.71501 1.28978C5.3893 1.32583 5.14284 1.6011 5.14288 1.92877V13.3845C4.56001 13.0365 3.89315 12.8542 3.21431 12.8573C1.44194 12.8574 0 14.0107 0 15.4288C0 16.8469 1.44195 18.0002 3.21427 18.0002C4.9866 18.0002 6.42854 16.8469 6.42854 15.4288V5.72165L16.7143 4.57543V12.0969C16.1312 11.7495 15.4644 11.5679 14.7857 11.5717C13.0133 11.5717 11.5714 12.725 11.5714 14.1431C11.5714 15.5612 13.0134 16.7145 14.7857 16.7145C16.558 16.7145 18 15.5612 18 14.1431V0.64311C18 0.460272 17.9221 0.286098 17.7859 0.164169ZM3.21427 16.7145C2.169 16.7145 1.2857 16.1256 1.2857 15.4288C1.2857 14.732 2.169 14.1431 3.21427 14.1431C4.25954 14.1431 5.14284 14.732 5.14284 15.4288C5.14284 16.1256 4.25958 16.7145 3.21427 16.7145ZM14.7857 15.4288C13.7404 15.4288 12.8571 14.8399 12.8571 14.1431C12.8571 13.4462 13.7404 12.8574 14.7857 12.8574C15.831 12.8574 16.7143 13.4462 16.7143 14.1431C16.7143 14.8399 15.831 15.4288 14.7857 15.4288ZM16.7143 3.28201L6.42854 4.42503V2.50738L16.7143 1.36116V3.28201Z" fill="currentColor"/>
</svg>
