<svg width="74" height="80" viewBox="0 0 74 80" xmlns="http://www.w3.org/2000/svg">
    <path d="M3.30499 80H70.211C72.2446 80 73.8991 78.3345 73.8991 76.2873V74.404C73.8991 73.456 73.1302 72.6846 72.1851 72.6846H70.7225C71.0166 72.091 71.1827 71.4301 71.1827 70.7429V46.2897C71.1827 43.8528 69.2002 41.8702 66.7633 41.8702H51.5949C50.9475 41.8702 50.423 42.3949 50.423 43.0421C50.423 43.6893 50.9475 44.2139 51.5949 44.2139H66.7633C67.9078 44.2139 68.8389 45.145 68.8389 46.2897V70.7429C68.8389 71.6026 68.2921 72.3804 67.4916 72.6846H31.6574C30.8308 72.3681 30.308 71.5743 30.308 70.7429C30.308 68.3457 30.308 48.6693 30.308 46.2897C30.308 45.1452 31.2393 44.2139 32.3838 44.2139H46.1261C46.7735 44.2139 47.298 43.6893 47.298 43.0421C47.298 42.3949 46.7735 41.8702 46.1261 41.8702H37.4982L37.4957 38.8578C40.18 36.8931 42.039 33.8684 42.4545 30.4048C45.5037 30.1374 47.7727 27.7066 47.7727 24.8735C47.7727 22.9333 46.7885 21.1384 45.2567 20.0955C45.4195 19.7055 45.5102 19.2781 45.5102 18.8297V16.5329C45.5102 15.8857 44.9856 15.3611 44.3383 15.3611C43.6909 15.3611 43.1664 15.8857 43.1664 16.5329V18.83C43.1664 19.3394 42.7603 19.7919 42.1703 19.7822C40.5575 19.7586 39.3275 18.4219 39.3275 16.8998C39.3275 16.265 38.8971 15.7137 38.281 15.5592C37.6528 15.4022 37.0201 15.7018 36.7284 16.2467C35.5618 18.4287 33.3026 19.7844 30.8324 19.7844H17.4159C16.2921 19.7844 15.2802 18.8712 15.2802 17.6487V9.02726C15.2802 5.34192 18.2784 2.34377 21.9637 2.34377H33.7848C36.5299 2.34377 36.9945 3.55612 37.2585 4.90691C37.5709 6.50427 39.0667 7.61178 40.7409 7.48303C41.9167 7.39271 43.1661 8.41132 43.1661 9.83336V11.0641C43.1661 11.7113 43.6906 12.236 44.338 12.236C44.9853 12.236 45.5098 11.7113 45.5098 11.0641V9.83336C45.5098 7.00943 43.0612 4.95395 40.5611 5.14613C40.0651 5.18551 39.6442 4.89441 39.5585 4.45707C38.9721 1.45798 37.0835 0 33.7846 0H21.9636C16.986 0 12.9363 4.04956 12.9363 9.02726V17.6486C12.9363 18.8758 13.4327 19.9891 14.2349 20.7989C13.1012 21.8688 12.4071 23.3555 12.4071 24.8885C12.4071 27.7108 14.6685 30.1459 17.7245 30.4062C18.1287 33.8078 19.9209 36.8503 22.6747 38.8441V41.8699C19.5425 43.0931 10.1094 46.7774 6.94611 48.0127C6.93955 48.0152 6.93298 48.0179 6.92642 48.0205C3.6389 49.3735 0.100586 53.2506 0.100586 58.5655V76.7951C0.10043 78.5623 1.53794 80 3.30499 80ZM42.5456 22.1113C42.9123 22.0727 43.2814 21.967 43.5853 21.8263C44.6764 22.3813 45.4288 23.5911 45.4288 24.8736C45.4288 26.4758 44.1551 27.7665 42.5456 28.0332V22.1113ZM17.6338 28.036C16.0237 27.7754 14.7507 26.4863 14.7507 24.8885C14.7507 23.7672 15.4416 22.64 16.4701 22.0266C16.9765 22.1358 17.3267 22.128 17.6338 22.128V28.036ZM71.5554 75.0284V76.2873C71.5554 77.0422 70.9524 77.6562 70.211 77.6562H28.9357C28.1944 77.6562 27.5913 77.0422 27.5913 76.2873V75.0284H71.5554ZM32.3838 41.8702C30.3238 41.8702 28.5888 43.2869 28.1011 45.1971L25.0091 42.105C25.0214 41.9103 25.0183 42.2672 25.0183 40.178C26.708 40.9078 28.4782 41.2278 30.2507 41.2278C31.9927 41.2278 33.6501 40.8614 35.153 40.2052L35.1545 41.8702H32.3838ZM19.9776 28.933V22.128H30.8322C33.4227 22.128 35.8298 21.0222 37.507 19.1787C38.0571 20.31 39.0048 21.2117 40.1657 21.7077C40.1779 21.7128 40.1896 21.7188 40.2018 21.7239V28.9332C40.2018 32.3112 38.4831 35.4281 35.6923 37.2584C28.9792 41.5099 19.9776 36.9512 19.9776 28.933ZM23.61 44.0208L27.9641 48.3748V50.6138L26.7949 51.7831C26.643 51.9351 26.3874 51.9351 26.2355 51.7831L19.9159 45.4636L23.61 44.0208ZM2.4442 58.5656C2.4442 54.0481 5.64891 51.0854 7.80893 50.1918L17.5321 46.3944L24.578 53.4403C25.4956 54.3579 26.9042 54.4878 27.9641 53.8254V70.7429C27.9641 71.3893 28.1186 72.0743 28.4208 72.6846H26.9617C26.0166 72.6846 25.2475 73.456 25.2475 74.404V76.2873C25.2475 76.7729 25.3448 77.2454 25.5072 77.6562H12.306C12.306 75.6758 12.306 63.1614 12.306 60.2084C12.306 59.5612 11.7815 59.0366 11.1341 59.0366C10.4868 59.0366 9.96223 59.5612 9.96223 60.2084V63.086H2.4442V58.5656ZM2.4442 65.4297H9.96223V68.3465H2.4442V65.4297ZM2.4442 70.6902H9.96223V77.6564H3.30499C2.83045 77.6564 2.4442 77.2701 2.4442 76.7956V70.6902Z" fill="currentColor"/>
    <path d="M36.4856 52.7463C35.7951 53.0922 35.3662 53.7869 35.3662 54.5592C35.3662 55.3316 35.7951 56.0263 36.4857 56.3724L39.1911 57.7279V64.1514C39.1911 65.2368 39.7756 66.2265 40.7167 66.7339C45.7922 69.4705 51.9393 69.4647 57.004 66.7339C57.3101 66.5687 57.5778 66.352 57.8008 66.0981L57.7229 66.395C57.3222 67.9237 58.4742 69.4186 60.0562 69.4186H62.3094C63.8896 69.4186 65.0439 67.9253 64.6428 66.395C64.6428 66.395 64.6428 66.395 64.6428 66.3948L64.1421 64.4845C63.8988 63.5565 63.2231 62.8323 62.3549 62.4887V54.5592C62.3549 53.7869 61.926 53.0922 61.2353 52.7461L50.2526 47.2433C49.381 46.8065 48.3404 46.8067 47.4688 47.2433L36.4856 52.7463ZM61.1827 64.6132C61.5639 64.611 61.8069 64.8206 61.8747 65.0787L62.3755 66.9892C62.3869 67.0332 62.3549 67.0748 62.3092 67.0748H60.0561C60.0109 67.0748 59.9783 67.0336 59.99 66.9892L60.4908 65.0785C60.5589 64.819 60.7953 64.6106 61.1827 64.6132ZM58.5297 57.7279L60.0108 56.9857V62.4873C59.3891 62.7335 58.8658 63.1762 58.5297 63.7504V57.7279ZM56.1859 64.1514C56.1859 64.3706 56.0704 64.5745 55.8917 64.6709C51.5112 67.0329 46.2005 67.0281 41.8291 64.6709C41.6503 64.5745 41.5349 64.3706 41.5349 64.1514V58.9021L47.4685 61.8751C48.3218 62.3029 49.3632 62.3206 50.2523 61.8751L56.1859 58.9021V64.1514ZM49.2024 49.3389L57.2825 53.3874H48.8604C48.213 53.3874 47.6885 53.9121 47.6885 54.5592C47.6885 55.2064 48.213 55.7311 48.8604 55.7311H57.2828C56.4642 56.1413 50.1115 59.3243 49.2024 59.7798C48.9882 59.8871 48.7324 59.8871 48.5182 59.7798L38.099 54.5592L48.5182 49.3389C48.7324 49.2315 48.9882 49.2315 49.2024 49.3389Z" fill="currentColor"/>
</svg>
