<svg width="20" height="20" viewBox="0 0 20 20" fill="none" xmlns="http://www.w3.org/2000/svg">
    <path d="M10 0C4.47715 0 0 4.47715 0 10C0 15.5229 4.47715 20 10 20C15.5229 20 20 15.5229 20 10C20 4.47715 15.5229 0 10 0ZM17.8937 6.25H10C9.75668 6.24934 9.51387 6.27238 9.275 6.31875L12.0813 1.50625C14.6328 2.13449 16.7668 3.87617 17.8937 6.25ZM12.5 10C12.5048 11.3807 11.3893 12.5038 10.0086 12.5086C8.62789 12.5134 7.50477 11.3979 7.5 10.0172C7.49523 8.63648 8.6107 7.51336 9.99141 7.50859C10.8075 7.50578 11.5737 7.90152 12.0438 8.56875L12.0938 8.6375C12.3582 9.04277 12.4993 9.51609 12.5 10ZM10 1.25C10.2563 1.25 10.5125 1.25 10.7625 1.2875L6.9625 7.8125C6.83379 7.98977 6.72086 8.17801 6.625 8.375L3.86875 3.75C5.50613 2.1457 7.7077 1.24805 10 1.25ZM1.25 10C1.25043 8.10965 1.86699 6.27098 3.00625 4.7625L6.25 10.1875C6.29629 11.0459 6.63609 11.8623 7.2125 12.5H1.5875C1.3543 11.6875 1.24063 10.8453 1.25 10ZM2.10625 13.75H10C10.2433 13.7507 10.4861 13.7276 10.725 13.6812L7.91875 18.4937C5.36723 17.8655 3.23316 16.1238 2.10625 13.75ZM10 18.75C9.74375 18.75 9.4875 18.75 9.2375 18.7125L13.0375 12.1875C13.309 11.8108 13.5082 11.387 13.625 10.9375L16.75 15.5875C15.084 17.5953 12.6089 18.7549 10 18.75ZM13.125 7.98125L13.0375 7.85L12.9875 7.775C12.9167 7.67918 12.8396 7.58543 12.7563 7.49375H18.3813C19.0941 9.84641 18.7737 12.3912 17.5 14.4938L13.125 7.98125Z" fill="currentColor"/>
</svg>
