<svg width="55" height="53" viewBox="0 0 55 53" xmlns="http://www.w3.org/2000/svg">
    <path d="M52.8915 37.4378C51.5152 35.8708 49.5894 35.0078 47.4689 35.0078H47.1484C47.1488 34.6434 47.0891 34.2772 46.9646 33.9251C46.205 31.7772 45.5406 28.5961 46.6902 25.6382C46.6902 25.6382 46.6902 25.6382 46.6902 25.6381C47.076 24.6456 46.9472 23.5283 46.3458 22.6495C45.7444 21.7706 44.7495 21.2459 43.6846 21.2459H7.53087C3.09675 21.2459 0 24.7386 0 29.7395C0 32.2045 0.736798 34.3253 2.13083 35.8727C3.50218 37.3949 5.41992 38.2332 7.53097 38.2332H8.09113C8.09123 38.6269 8.16305 39.0225 8.30981 39.4001C9.53731 42.5585 8.66482 46.0151 8.03543 47.7945C7.68547 48.7838 7.83771 49.8854 8.44259 50.7409C9.04543 51.5936 10.029 52.1026 11.0737 52.1026H47.4691C49.5802 52.1026 51.4979 51.2643 52.8693 49.7421C54.2633 48.1947 55.0001 46.0739 55.0001 43.6089C55 41.1422 54.2708 39.0083 52.8915 37.4378ZM3.22544 29.7395C3.22544 26.5392 4.91546 24.4713 7.53087 24.4713L43.6856 24.4644C43.6856 24.4645 43.6852 24.4663 43.6838 24.4698C42.1759 28.3497 42.982 32.3381 43.9236 35.0007C43.9236 35.0007 43.9229 35.0045 43.9222 35.0078H11.3152H7.53087C4.91546 35.0078 3.22544 32.9399 3.22544 29.7395ZM47.469 48.8772L11.0776 48.8768C11.077 48.8737 11.0763 48.8701 11.0763 48.8701C11.8546 46.6696 12.9207 42.362 11.3168 38.2332H43.9264H47.469C50.0443 38.2332 51.7746 40.3936 51.7746 43.6089C51.7746 46.8093 50.0845 48.8772 47.469 48.8772Z" fill="currentColor"/>
    <path d="M37.0646 29.7396C37.0646 28.8489 36.3425 28.1269 35.4518 28.1269H10.0727C9.18203 28.1269 8.45996 28.8489 8.45996 29.7396C8.45996 30.6302 9.18203 31.3523 10.0727 31.3523H35.452C36.3425 31.3523 37.0646 30.6303 37.0646 29.7396Z" fill="currentColor"/>
    <path d="M44.9744 41.8854H19.5951C18.7045 41.8854 17.9824 42.6075 17.9824 43.4981C17.9824 44.3888 18.7045 45.1108 19.5951 45.1108H44.9744C45.8651 45.1108 46.5871 44.3888 46.5871 43.4981C46.5871 42.6075 45.8652 41.8854 44.9744 41.8854Z" fill="currentColor"/>
    <path d="M17.2034 6.50482C17.454 6.50482 17.7082 6.44623 17.9458 6.3228C18.0416 6.27292 27.637 1.39928 37.1005 6.32248C37.8909 6.73394 38.8645 6.42645 39.2755 5.63611C39.6865 4.84587 39.3793 3.87222 38.5891 3.46119C34.0548 1.10232 28.795 0.351544 23.3791 1.29015C19.3084 1.99566 16.5726 3.40141 16.4582 3.46087C15.6678 3.87168 15.3602 4.84534 15.7709 5.63568C16.0583 6.1883 16.6208 6.50482 17.2034 6.50482Z" fill="currentColor"/>
    <path d="M22.6239 14.4806C21.7969 14.8114 21.392 15.7509 21.7228 16.578C21.9752 17.2088 22.5795 17.5931 23.2191 17.5931C23.418 17.5931 23.6203 17.5559 23.8165 17.4775C23.8539 17.4628 27.6049 16.0274 31.2251 17.4753C32.0519 17.8061 32.9907 17.4039 33.3214 16.577C33.6522 15.75 33.25 14.8114 32.4231 14.4806C27.5791 12.5429 22.8241 14.4007 22.6239 14.4806Z" fill="currentColor"/>
    <path d="M34.4043 11.8607C35.0426 11.8607 35.6471 11.4791 35.9005 10.8507C36.2337 10.0246 35.8341 9.08496 35.0081 8.75188C27.6088 5.76759 20.3453 8.62866 20.0397 8.75188C19.2151 9.08453 18.8168 10.0213 19.1476 10.8467C19.4785 11.6721 20.4166 12.0732 21.2429 11.7445C21.306 11.7193 27.6365 9.25644 33.8016 11.7431C33.9994 11.823 34.2035 11.8607 34.4043 11.8607Z" fill="currentColor"/>
</svg>
