<svg width="25" height="25" viewBox="0 0 25 25" xmlns="http://www.w3.org/2000/svg">
    <path d="M10.1563 6.10857C9.51012 6.10857 8.98438 5.57813 8.98438 4.9262C8.98438 4.27428 9.51012 3.74384 10.1563 3.74384C10.8024 3.74384 11.3282 4.27428 11.3282 4.9262C11.3282 5.57813 10.8025 6.10857 10.1563 6.10857Z" fill="currentColor"/>
    <path d="M24.9751 21.6358L23.0707 8.82697C22.9047 7.70855 21.9705 6.89675 20.8494 6.89675H13.5955C14.2338 5.67842 14.2226 4.24519 13.5551 3.02396C12.8802 1.78912 11.6562 1.02758 10.2809 0.986735C10.1985 0.984321 10.114 0.984321 10.0311 0.986735C8.65603 1.02753 7.43212 1.78912 6.7572 3.02396C6.08995 4.2447 6.07852 5.67729 6.71687 6.89675H4.15064C3.02947 6.89675 2.09526 7.70855 1.92924 8.82677L0.0248985 21.6358C-0.0721255 22.2889 0.117186 22.9504 0.544297 23.4508C0.971456 23.9511 1.59178 24.2381 2.24629 24.2381H22.7537C23.4082 24.2381 24.0285 23.9511 24.4556 23.4508C24.8828 22.9505 25.0721 22.289 24.9751 21.6358ZM8.12554 3.7853C8.53683 3.03287 9.24813 2.58722 10.0769 2.56263C10.103 2.56185 10.1296 2.5615 10.1562 2.5615C10.1828 2.5615 10.2094 2.5619 10.2353 2.56263C11.0643 2.58722 11.7756 3.03287 12.1869 3.7853C12.6165 4.57128 12.6046 5.49924 12.1551 6.26788L10.1562 9.66325L8.15792 6.26887C7.70786 5.50003 7.69575 4.57158 8.12554 3.7853ZM23.2717 22.4221C23.1954 22.5116 23.0265 22.6617 22.7537 22.6617H8.59924C8.63571 22.2922 8.8052 21.737 9.44608 21.3821C9.82437 21.1727 9.96275 20.6936 9.75518 20.3119C9.5476 19.9302 9.07259 19.7906 8.69436 20.0001C7.86694 20.4581 7.32147 21.1774 7.11692 22.0798C7.06912 22.2906 7.04602 22.4883 7.0367 22.6617H2.24629C1.97353 22.6617 1.80463 22.5116 1.72826 22.4221C1.65189 22.3326 1.52977 22.1418 1.5702 21.8697L3.47455 9.06059C3.52508 8.72031 3.80942 8.47334 4.15069 8.47334H7.63832L9.15428 11.0485C9.36659 11.4102 9.74111 11.6262 10.1562 11.6262C10.5713 11.6262 10.9458 11.4102 11.1575 11.0495L12.6741 8.47334H20.8494C21.1906 8.47334 21.475 8.72031 21.5255 9.06073L23.4299 21.8697C23.4702 22.1418 23.3481 22.3326 23.2717 22.4221Z" fill="currentColor"/>
    <path d="M13.5285 10.8785C13.1191 10.7407 12.6767 10.9641 12.5403 11.3771C12.4038 11.79 12.6251 12.2364 13.0344 12.3741C13.0424 12.3768 13.843 12.6656 14.1029 13.4521C14.2119 13.7824 14.5168 13.9913 14.8439 13.9913C14.9258 13.9913 15.0092 13.9782 15.0911 13.9506C15.5005 13.8129 15.7217 13.3665 15.5852 12.9535C15.0769 11.415 13.5915 10.8997 13.5285 10.8785Z" fill="currentColor"/>
    <path d="M14.1905 15.8431C13.7836 15.6982 13.3373 15.9136 13.1938 16.3241C12.7528 17.5846 11.2415 18.126 11.2097 18.1371C10.8021 18.2758 10.5821 18.7212 10.7183 19.1333C10.8274 19.4636 11.1323 19.6725 11.4594 19.6725C11.5413 19.6725 11.6246 19.6594 11.7066 19.6318C11.7985 19.6009 13.9667 18.8514 14.6673 16.8488C14.8109 16.4383 14.5974 15.988 14.1905 15.8431Z" fill="currentColor"/>
</svg>
