<svg width="25" height="25" viewBox="0 0 25 25" xmlns="http://www.w3.org/2000/svg">
    <path d="M2.3651 20H2.50025L9.0205 18.581C9.1475 18.5599 9.26518 18.5011 9.3583 18.4121L20.4055 7.36492C21.2125 6.55966 21.6627 5.46438 21.6555 4.32443C21.657 3.17561 21.2082 2.07199 20.4055 1.25011C19.6003 0.44311 18.505 -0.00714406 17.365 0.000162955C16.2177 -0.00998926 15.1173 0.45462 14.3245 1.28393L3.311 12.3311C3.21388 12.4093 3.14307 12.5154 3.10828 12.6351L1.68943 19.1554C1.6507 19.3895 1.72596 19.628 1.89215 19.7973C2.01689 19.9246 2.18689 19.9974 2.3651 20ZM17.365 1.35151C18.9882 1.35138 20.3042 2.66722 20.3043 4.29048C20.3043 4.30179 20.3043 4.31311 20.3041 4.32443C20.3152 5.09774 20.0101 5.84209 19.4596 6.3852L15.3042 2.19602C15.8516 1.652 16.5931 1.34808 17.365 1.35151ZM14.3582 3.1758L18.5136 7.33116L8.88528 16.9257L4.72992 12.804L14.3582 3.1758ZM4.1894 14.1555L7.53394 17.5L3.24343 18.446L4.1894 14.1555Z" fill="currentColor"/>
    <path d="M23.8175 23.6486H1.18251C0.809333 23.6486 0.506836 23.9511 0.506836 24.3243C0.506836 24.6975 0.809333 25 1.18251 25H23.8175C24.1907 25 24.4932 24.6975 24.4932 24.3243C24.4932 23.9511 24.1907 23.6486 23.8175 23.6486Z" fill="currentColor"/>
</svg>
