<svg width="60" height="80" viewBox="0 0 60 80" xmlns="http://www.w3.org/2000/svg">
    <path d="M57.3913 66.087C58.3513 66.087 59.1304 65.3078 59.1304 64.3478V5.21739C59.1304 2.34087 56.7895 0 53.913 0H5.21739C2.34087 0 0 2.34087 0 5.21739V71.3043C0 76.0991 3.90087 80 8.69565 80H57.3913C58.3513 80 59.1304 79.2209 59.1304 78.2609C59.1304 77.3009 58.3513 76.5217 57.3913 76.5217C54.5148 76.5217 52.1739 74.1809 52.1739 71.3043C52.1739 68.4278 54.5148 66.087 57.3913 66.087ZM50.4382 76.5217H8.69565C5.81913 76.5217 3.47826 74.1809 3.47826 71.3043C3.47826 68.4278 5.81913 66.087 8.69565 66.087H50.4382C49.3461 67.5409 48.6956 69.3478 48.6956 71.3043C48.6956 73.2609 49.3461 75.0678 50.4382 76.5217ZM8.69565 62.6087C6.73043 62.6087 4.93565 63.2887 3.47826 64.393V5.21739C3.47826 4.25913 4.25913 3.47826 5.21739 3.47826H53.913C54.8713 3.47826 55.6522 4.25739 55.6522 5.21739V62.6087H8.69565Z" fill="currentColor"/>
    <path d="M29.5079 10.4348C22.7949 10.4348 17.334 15.8957 17.334 22.6087C17.334 29.3218 22.7949 34.7826 29.5079 34.7826C36.2209 34.7826 41.6818 29.3218 41.6818 22.6087C41.6818 15.8957 36.2209 10.4348 29.5079 10.4348ZM29.5079 31.3044C24.7131 31.3044 20.8122 27.4035 20.8122 22.6087C20.8122 17.8139 24.7131 13.9131 29.5079 13.9131C34.3027 13.9131 38.2035 17.8139 38.2035 22.6087C38.2035 27.4035 34.3027 31.3044 29.5079 31.3044Z" fill="currentColor"/>
    <path d="M47.1877 41.7393H12.4051C11.4451 41.7393 10.666 42.5184 10.666 43.4784V53.9132C10.666 54.8732 11.4451 55.6523 12.4051 55.6523H47.1877C48.1477 55.6523 48.9269 54.8732 48.9269 53.9132V43.4784C48.9269 42.5184 48.1477 41.7393 47.1877 41.7393ZM45.4486 52.174H14.1443V45.2175H45.4486V52.174Z" fill="currentColor"/>
</svg>
