<svg width="50" height="50" viewBox="0 0 50 50" xmlns="http://www.w3.org/2000/svg">
    <path d="M36.7188 39.7461C36.7188 40.5552 36.063 41.2109 35.2539 41.2109C34.4448 41.2109 33.7891 40.5552 33.7891 39.7461C33.7891 38.937 34.4448 38.2812 35.2539 38.2812C36.063 38.2812 36.7188 38.937 36.7188 39.7461Z" fill="currentColor"/>
    <path d="M29.3945 17.7734H31.1108C33.3912 17.7734 35.5354 18.6615 37.1479 20.274C37.429 20.5555 37.8056 20.7031 38.184 20.7031C38.5735 20.7031 38.9503 20.5433 39.2193 20.274C40.1783 19.315 41.3261 18.6146 42.5781 18.2026V22.168C42.5781 22.9771 43.2339 23.6328 44.043 23.6328C44.8521 23.6328 45.5078 22.9771 45.5078 22.168V17.7734H46.9727C47.7818 17.7734 48.4375 17.1177 48.4375 16.3086V1.46484C48.4375 0.655746 47.7818 0 46.9727 0H45.2564C42.659 0 40.1939 0.857925 38.1836 2.4395C36.1732 0.857925 33.7082 0 31.1108 0H29.3945C28.5854 0 27.9297 0.655746 27.9297 1.46484V16.3086C27.9297 17.1177 28.5854 17.7734 29.3945 17.7734ZM45.5078 2.92969V14.8438H45.2564C43.2205 14.8438 41.3033 15.3725 39.6484 16.3033V5.03235C41.2033 3.67355 43.1721 2.92969 45.2564 2.92969H45.5078ZM30.8594 2.92969H31.1108C33.1944 2.92969 35.1643 3.67126 36.7188 5.0293V16.3029C35.025 15.3503 33.107 14.8438 31.1108 14.8438H30.8594V2.92969Z" fill="currentColor"/>
    <path d="M3.02734 50H46.9727C47.7818 50 48.4375 49.3443 48.4375 48.5352V33.8867C48.4375 33.0776 47.7818 32.4219 46.9727 32.4219H33.6418C32.9613 29.0829 30.0018 26.5625 26.4648 26.5625H22.0703V25.0675C23.896 23.6919 25 21.5286 25 19.2383V16.6222C25 12.8906 22.3755 9.64966 18.895 9.08356C14.397 8.3519 10.3516 11.7859 10.3516 16.3086V19.2383C10.3516 21.5286 11.4555 23.6919 13.2812 25.0675V26.5625H8.88672C4.8481 26.5625 1.5625 29.8481 1.5625 33.8867V48.5352C1.5625 49.3443 2.21825 50 3.02734 50ZM45.5078 47.0703H25V35.3516H45.5078V47.0703ZM13.2812 16.3086C13.2812 13.6845 15.6109 11.5177 18.4246 11.9755C20.5029 12.3135 22.0703 14.3112 22.0703 16.6222V19.2383C22.0703 20.8031 21.2471 22.2164 19.8685 23.019C19.418 23.2811 19.1406 23.7633 19.1406 24.2851V27.4204L17.6758 28.8853L16.2109 27.4204V24.2851C16.2109 23.7637 15.9336 23.2811 15.4831 23.019C14.1045 22.2164 13.2812 20.8031 13.2812 19.2383V16.3086ZM4.49219 33.8867C4.49219 31.4636 6.46362 29.4922 8.88672 29.4922H14.1392L16.6401 31.9927C16.9258 32.2788 17.3008 32.4219 17.6758 32.4219C18.0508 32.4219 18.4258 32.2788 18.7115 31.9927L21.2124 29.4922H26.4648C28.3745 29.4922 30.0026 30.7167 30.6076 32.4219H23.5352C22.7261 32.4219 22.0703 33.0776 22.0703 33.8867V42.6796C20.8454 41.758 19.3233 41.2109 17.6758 41.2109H10.3516V33.8867C10.3516 33.0776 9.69582 32.4219 8.88672 32.4219C8.07762 32.4219 7.42188 33.0776 7.42188 33.8867V42.6758C7.42188 43.4849 8.07762 44.1406 8.88672 44.1406H17.6758C19.5858 44.1406 21.2147 45.3652 21.8193 47.0703H4.49219V33.8867Z" fill="currentColor"/>
</svg>
