<svg width="80" height="80" viewBox="0 0 80 80" fill="none" xmlns="http://www.w3.org/2000/svg">
    <path d="M58.3327 80.0001C46.386 80.0001 36.666 70.2801 36.666 58.3334C36.666 46.3867 46.386 36.6667 58.3327 36.6667C70.2793 36.6667 79.9993 46.3867 79.9993 58.3334C79.9993 70.2801 70.2793 80.0001 58.3327 80.0001ZM58.3327 40.0001C48.2227 40.0001 39.9993 48.2267 39.9993 58.3334C39.9993 68.4401 48.2227 76.6668 58.3327 76.6668C68.4427 76.6668 76.666 68.4401 76.666 58.3334C76.666 48.2267 68.4427 40.0001 58.3327 40.0001Z" fill="currentColor"/>
    <path d="M55.0002 66.6666C54.5602 66.6666 54.1335 66.4899 53.8202 66.1799L47.1535 59.5133C46.5035 58.8633 46.5035 57.8066 47.1535 57.1566C47.8035 56.5066 48.8602 56.5066 49.5102 57.1566L54.9169 62.5633L65.4102 50.5699C66.0169 49.8733 67.0702 49.8066 67.7635 50.4133C68.4569 51.0199 68.5269 52.0699 67.9202 52.7633L56.2535 66.0966C55.9502 66.4433 55.5135 66.6499 55.0535 66.6666C55.0369 66.6666 55.0169 66.6666 55.0002 66.6666Z" fill="currentColor"/>
    <path d="M31.6667 70H8.33333C3.74 70 0 66.2633 0 61.6667V18.3333C0 13.7367 3.74 10 8.33333 10H15C15.92 10 16.6667 10.7467 16.6667 11.6667C16.6667 12.5867 15.92 13.3333 15 13.3333H8.33333C5.57667 13.3333 3.33333 15.5767 3.33333 18.3333V61.6667C3.33333 64.4233 5.57667 66.6667 8.33333 66.6667H31.6667C32.5867 66.6667 33.3333 67.4133 33.3333 68.3333C33.3333 69.2533 32.5867 70 31.6667 70Z" fill="currentColor"/>
    <path d="M55 30C54.08 30 53.3333 29.2533 53.3333 28.3333V18.3333C53.3333 15.5767 51.09 13.3333 48.3333 13.3333H41.6667C40.7467 13.3333 40 12.5867 40 11.6667C40 10.7467 40.7467 10 41.6667 10H48.3333C52.9267 10 56.6667 13.7367 56.6667 18.3333V28.3333C56.6667 29.2533 55.92 30 55 30Z" fill="currentColor"/>
    <path d="M38.334 20H18.334C15.5773 20 13.334 17.7567 13.334 15V8.33333C13.334 7.41333 14.0807 6.66667 15.0007 6.66667H20.1673C20.944 2.86667 24.3073 0 28.334 0C32.3607 0 35.724 2.86667 36.5007 6.66667H41.6673C42.5873 6.66667 43.334 7.41333 43.334 8.33333V15C43.334 17.7567 41.0907 20 38.334 20ZM16.6673 10V15C16.6673 15.9167 17.414 16.6667 18.334 16.6667H38.334C39.254 16.6667 40.0007 15.9167 40.0007 15V10H35.0007C34.0807 10 33.334 9.25333 33.334 8.33333C33.334 5.57667 31.0907 3.33333 28.334 3.33333C25.5773 3.33333 23.334 5.57667 23.334 8.33333C23.334 9.25333 22.5873 10 21.6673 10H16.6673Z" fill="currentColor"/>
    <path d="M45 30.0001H11.6667C10.7467 30.0001 10 29.2534 10 28.3334C10 27.4134 10.7467 26.6667 11.6667 26.6667H45C45.92 26.6667 46.6667 27.4134 46.6667 28.3334C46.6667 29.2534 45.92 30.0001 45 30.0001Z" fill="currentColor"/>
    <path d="M35 40.0001H11.6667C10.7467 40.0001 10 39.2534 10 38.3334C10 37.4134 10.7467 36.6667 11.6667 36.6667H35C35.92 36.6667 36.6667 37.4134 36.6667 38.3334C36.6667 39.2534 35.92 40.0001 35 40.0001Z" fill="currentColor"/>
    <path d="M28.3333 50.0001H11.6667C10.7467 50.0001 10 49.2534 10 48.3334C10 47.4134 10.7467 46.6667 11.6667 46.6667H28.3333C29.2533 46.6667 30 47.4134 30 48.3334C30 49.2534 29.2533 50.0001 28.3333 50.0001Z" fill="currentColor"/>
</svg>
