<svg width="20" height="20" viewBox="0 0 20 20" xmlns="http://www.w3.org/2000/svg">
    <path d="M17.6062 4.12238C17.6014 4.12723 17.5965 4.12723 17.5917 4.12723H13.8383V3.02017C13.8383 1.94709 12.9497 1.06824 11.8767 1.06824H7.86113C6.78806 1.07309 5.91891 1.94709 5.92377 3.02017V4.12723H2.41321C1.08279 4.12723 0 5.20031 0 6.53073C0 6.53558 0 6.54044 0 6.54529V8.56035C0 9.39065 0.388444 10.1481 1.06822 10.59V16.4943C1.07308 17.8393 2.16072 18.9269 3.50571 18.9318H16.4943C17.8393 18.9269 18.9269 17.8393 18.9318 16.4943V10.59C19.6116 10.1481 20 9.38579 20 8.56035V6.54529C20.0049 5.21487 18.9318 4.13209 17.6062 4.12238ZM6.89488 3.02017C6.89002 2.4812 7.32217 2.0442 7.86113 2.03935H11.8767C12.4205 2.0442 12.8623 2.47635 12.8672 3.02017V4.12723H6.89488V3.02017ZM17.9655 16.4992C17.9607 17.31 17.3052 17.9655 16.4992 17.9655H3.50571C2.69483 17.9607 2.03933 17.3052 2.03933 16.4992V10.993L6.29765 12.2943C8.71085 13.0372 11.294 13.0372 13.7121 12.2943L17.9655 10.993V16.4992ZM19.0435 6.54044V8.56035H19.0337C19.0386 9.13816 18.6987 9.66256 18.1743 9.89562C18.1695 9.89562 18.1695 9.90048 18.1646 9.90048C18.1209 9.9199 18.0723 9.93932 18.0286 9.95389H18.0238L13.4256 11.362C11.1969 12.0466 8.81767 12.0466 6.58898 11.362L1.98592 9.95389C1.94222 9.93932 1.89852 9.92476 1.85482 9.90533C1.85482 9.90533 1.85967 9.90533 1.85967 9.90048C1.32071 9.67227 0.975965 9.14301 0.980821 8.55549V6.54044C0.975965 5.74898 1.61204 5.09834 2.4035 5.08863C2.40835 5.08863 2.41321 5.08863 2.42292 5.08863H17.6014C18.3928 5.08378 19.0386 5.72471 19.0435 6.52102C19.0435 6.52587 19.0435 6.53073 19.0435 6.54044Z" fill="currentColor" fill-opacity="0.6"/>
    <path d="M13.3965 7.0939C13.076 6.77829 12.6439 6.59863 12.1923 6.60349H7.81258C6.87545 6.60349 6.11313 7.36095 6.10828 8.30293C6.10828 8.7545 6.28793 9.18664 6.60354 9.50225C6.60354 9.50225 6.6084 9.50225 6.6084 9.50711C6.92887 9.82272 7.36101 10.0024 7.81258 10.0024H12.1923C13.1343 10.0024 13.8966 9.24005 13.8917 8.29807C13.8917 7.84651 13.7169 7.41922 13.3965 7.0939ZM12.1923 9.03126H7.81258C7.40956 9.03126 7.08424 8.70594 7.08424 8.30293C7.08424 7.89992 7.40956 7.5746 7.81258 7.5746H12.1923C12.5953 7.5746 12.9206 7.89992 12.9206 8.30293C12.9206 8.70594 12.5953 9.03126 12.1923 9.03126Z" fill="currentColor"/>
</svg>
