<svg width="55" height="55" viewBox="0 0 55 55" xmlns="http://www.w3.org/2000/svg">
    <path d="M14.502 0C10.9186 0 8.05664 3.00846 8.05664 6.55273C8.05664 10.1067 10.948 12.998 14.502 12.998C18.0559 12.998 20.9473 10.1067 20.9473 6.55273C20.9473 3.00566 18.0817 0 14.502 0ZM14.502 9.77539C12.725 9.77539 11.2793 8.32971 11.2793 6.55273C11.2793 4.74762 12.7551 3.22266 14.502 3.22266C16.2488 3.22266 17.7246 4.74762 17.7246 6.55273C17.7246 8.32971 16.2789 9.77539 14.502 9.77539Z" fill="currentColor"/>
    <path d="M50.166 0H27.3926C24.7271 0 22.5586 2.16853 22.5586 4.83398V15.8302L21.1425 14.4142C20.2294 13.501 19.0155 12.998 17.7246 12.998H14.502C13.8189 12.998 8.73974 12.998 8.05664 12.998C3.61421 12.998 0 16.6123 0 21.0547C0 21.9709 0 29.3992 0 30.7227C0 33.3881 2.16853 35.5566 4.83398 35.5566C5.3987 35.5566 5.94118 35.4593 6.44531 35.2806V50.166C6.44531 52.8315 8.61384 55 11.2793 55C12.5163 55 13.6461 54.533 14.502 53.7662C15.3578 54.533 16.4876 55 17.7246 55C20.3901 55 22.5586 52.8315 22.5586 50.166V28.8368C23.7906 29.2713 25.1554 29.1876 26.3319 28.6014L31.7572 25.8887H50.166C52.8315 25.8887 55 23.7201 55 21.0547V4.83398C55 2.16853 52.8315 0 50.166 0ZM31.3359 22.4962L24.8925 25.7179C24.2881 26.0191 23.5373 25.923 23.0306 25.4164L22.0868 24.4725C21.0904 23.4761 19.3403 24.1538 19.336 25.6069C19.336 25.6085 19.3358 25.61 19.3358 25.6116V50.166C19.3358 51.0545 18.613 51.7773 17.7245 51.7773C16.836 51.7773 16.1132 51.0545 16.1132 50.166V33.9453C16.1132 33.0554 15.3917 32.334 14.5018 32.334C13.612 32.334 12.8905 33.0554 12.8905 33.9453V50.166C12.8905 51.0545 12.1677 51.7773 11.2792 51.7773C10.3907 51.7773 9.66786 51.0545 9.66786 50.166V30.7227C9.66786 29.5077 9.66786 22.0477 9.66786 21.0547C9.66786 20.1648 8.94642 19.4434 8.05653 19.4434C7.16665 19.4434 6.44521 20.1648 6.44521 21.0547C6.44521 21.9709 6.44521 29.3992 6.44521 30.7227C6.44521 31.6111 5.72236 32.334 4.83388 32.334C3.94539 32.334 3.22255 31.6111 3.22255 30.7227C3.22266 29.5077 3.22266 22.0477 3.22266 21.0547C3.22266 18.3892 5.39118 16.2207 8.05664 16.2207C9.27158 16.2207 16.7316 16.2207 17.7246 16.2207C18.1547 16.2207 18.5593 16.3884 18.8637 16.6929L23.6662 21.4954C24.1565 21.9858 24.9059 22.1073 25.5261 21.7973L29.8949 19.6129C30.6945 19.2127 31.6582 19.5362 32.0566 20.3339C32.4552 21.1311 32.1331 22.0976 31.3359 22.4962ZM51.7773 21.0547C51.7773 21.9432 51.0545 22.666 50.166 22.666H35.172C35.1817 22.6384 35.1925 22.6113 35.2017 22.5835C35.4338 21.8874 35.5034 21.1636 35.4146 20.4566L44.2264 16.0507C45.0224 15.6527 45.345 14.6848 44.947 13.8888C44.549 13.0928 43.5811 12.7701 42.7852 13.1682L33.9739 17.5739C32.5621 16.2083 30.3631 15.7749 28.4532 16.7307L25.7812 18.0667V4.83398C25.7812 3.9455 26.5041 3.22266 27.3926 3.22266H50.166C51.0545 3.22266 51.7773 3.9455 51.7773 4.83398V21.0547Z" fill="currentColor"/>
</svg>
