<svg width="22" height="22" viewBox="0 0 22 22" fill="none" xmlns="http://www.w3.org/2000/svg">
    <path d="M21.3555 10.3555H19.4219C19.0659 10.3555 18.7773 10.644 18.7773 11C18.7773 11.356 19.0659 11.6445 19.4219 11.6445H21.3555C21.7114 11.6445 22 11.356 22 11C22 10.644 21.7114 10.3555 21.3555 10.3555Z" fill="currentColor"/>
    <path d="M20.5222 14.4114L19.2331 13.1223C18.9815 12.8707 18.5733 12.8707 18.3216 13.1223C18.0699 13.374 18.0699 13.7821 18.3216 14.0338L19.6107 15.3229C19.8624 15.5746 20.2705 15.5746 20.5222 15.3229C20.7739 15.0712 20.7739 14.6631 20.5222 14.4114Z" fill="currentColor"/>
    <path d="M20.5222 6.67703C20.2705 6.42536 19.8624 6.42536 19.6107 6.67703L18.3216 7.96609C18.0699 8.2178 18.0699 8.62588 18.3216 8.87759C18.5733 9.1293 18.9814 9.12926 19.2331 8.87759L20.5222 7.58853C20.7739 7.33682 20.7739 6.92874 20.5222 6.67703Z" fill="currentColor"/>
    <path d="M14.9102 2.62109C13.942 2.62109 13.1379 3.33631 12.9982 4.26611L12.4102 4.85405C11.3869 5.87735 9.87993 6.48828 8.37891 6.48828H4.51172C3.67146 6.48828 2.95505 7.02715 2.68898 7.77734H2.57812C1.15655 7.77734 0 8.93389 0 10.3555C0 11.777 1.15655 12.9336 2.57812 12.9336H2.68898C2.8835 13.482 3.31873 13.9173 3.86719 14.1118V17.4453C3.86719 18.5115 4.73464 19.3789 5.80082 19.3789C6.86697 19.3789 7.73438 18.5115 7.73438 17.4453V14.2227H8.37891C9.87989 14.2227 11.3869 14.8336 12.4102 15.8569L12.9982 16.4448C13.1379 17.3746 13.9421 18.0898 14.9102 18.0898C15.9763 18.0898 16.8438 17.2224 16.8438 16.1562V4.55469C16.8438 3.4885 15.9763 2.62109 14.9102 2.62109ZM2.57812 11.6445C1.86734 11.6445 1.28906 11.0663 1.28906 10.3555C1.28906 9.64468 1.86734 9.06641 2.57812 9.06641V11.6445ZM6.44531 17.4453C6.44531 17.8007 6.15618 18.0898 5.80078 18.0898C5.44539 18.0898 5.15625 17.8007 5.15625 17.4453V14.2227H6.44531V17.4453ZM7.73438 12.9336H4.51172C4.15632 12.9336 3.86719 12.6445 3.86719 12.2891V8.42187C3.86719 8.06648 4.15632 7.77734 4.51172 7.77734H7.73438V12.9336ZM12.9766 14.6242C11.8877 13.6819 10.4877 13.0963 9.01914 12.9628L9.01918 7.74808C10.4877 7.61462 11.8877 7.02909 12.9766 6.08665V14.6242ZM15.5547 16.1562C15.5547 16.5116 15.2656 16.8008 14.9102 16.8008H14.9102C14.5548 16.8008 14.2656 16.5116 14.2656 16.1562V4.55469C14.2656 4.19929 14.5548 3.91016 14.9102 3.91016C15.2656 3.91016 15.5547 4.19929 15.5547 4.55469V16.1562Z" fill="currentColor"/>
</svg>
