<svg width="40" height="40" viewBox="0 0 40 40" xmlns="http://www.w3.org/2000/svg">
    <path d="M36.3177 5.02078H29.9584V1.17188C29.9584 0.524687 29.4337 0 28.7865 0H1.17188C0.524687 0 0 0.524687 0 1.17188V33.8073C0 37.222 2.77805 40 6.19273 40C6.19273 40 25.6601 40.0001 33.8073 40.0001C37.2274 40 40 37.2274 40 33.8073V8.70305C40 6.67266 38.3481 5.02078 36.3177 5.02078ZM32.8852 7.36453C32.7212 7.78547 32.6355 8.23766 32.6355 8.70312V12.5521H29.9584V7.36461H32.8852V7.36453ZM6.19273 37.6562C4.07039 37.6562 2.34375 35.9296 2.34375 33.8073V2.34375H27.6146V33.8073C27.6146 35.2623 28.1177 36.5992 28.9578 37.6562H6.19273ZM37.6562 33.8073C37.6562 35.933 35.933 37.6562 33.8073 37.6562C32.0902 37.6562 30.6363 36.5317 30.1405 34.9791H33.8073C34.4545 34.9791 34.9791 34.4545 34.9791 33.8073C34.9791 33.1601 34.4545 32.6354 33.8073 32.6354H29.9583V29.9583H33.8073C34.4545 29.9583 34.9791 29.4336 34.9791 28.7864C34.9791 28.1392 34.4545 27.6145 33.8073 27.6145H29.9583V24.9374H33.8073C34.4545 24.9374 34.9791 24.4127 34.9791 23.7655C34.9791 23.1184 34.4545 22.5937 33.8073 22.5937H29.9583V19.9166H33.8073C34.4545 19.9166 34.9791 19.3919 34.9791 18.7447C34.9791 18.0975 34.4545 17.5728 33.8073 17.5728H29.9583V14.8957H33.8073C34.4545 14.8957 34.9791 14.371 34.9791 13.7238V8.70312C34.9791 7.97195 35.5703 7.36453 36.3177 7.36453C37.0557 7.36453 37.6562 7.96508 37.6562 8.70312V33.8073H37.6562Z" fill="currentColor"/>
    <path d="M23.7643 5.02081H6.19141C5.54422 5.02081 5.01953 5.5455 5.01953 6.19269C5.01953 6.83988 5.54422 7.36456 6.19141 7.36456H23.7643C24.4115 7.36456 24.9362 6.83988 24.9362 6.19269C24.9362 5.5455 24.4115 5.02081 23.7643 5.02081Z" fill="currentColor"/>
    <path d="M23.7663 22.5937H17.4902C16.843 22.5937 16.3184 23.1184 16.3184 23.7656C16.3184 24.4128 16.843 24.9374 17.4902 24.9374H23.7663C24.4134 24.9374 24.9381 24.4128 24.9381 23.7656C24.9381 23.1184 24.4134 22.5937 23.7663 22.5937Z" fill="currentColor"/>
    <path d="M12.4674 22.5937H6.19141C5.54422 22.5937 5.01953 23.1184 5.01953 23.7656C5.01953 24.4128 5.54422 24.9374 6.19141 24.9374H12.4674C13.1146 24.9374 13.6393 24.4128 13.6393 23.7656C13.6393 23.1184 13.1146 22.5937 12.4674 22.5937Z" fill="currentColor"/>
    <path d="M23.7663 32.6354H17.4902C16.843 32.6354 16.3184 33.1601 16.3184 33.8073C16.3184 34.4544 16.843 34.9791 17.4902 34.9791H23.7663C24.4134 34.9791 24.9381 34.4544 24.9381 33.8073C24.9381 33.1601 24.4134 32.6354 23.7663 32.6354Z" fill="currentColor"/>
    <path d="M12.4674 32.6354H6.19141C5.54422 32.6354 5.01953 33.1601 5.01953 33.8073C5.01953 34.4544 5.54422 34.9791 6.19141 34.9791H12.4674C13.1146 34.9791 13.6393 34.4544 13.6393 33.8073C13.6393 33.1601 13.1146 32.6354 12.4674 32.6354Z" fill="currentColor"/>
    <path d="M23.7663 27.6145H17.4902C16.843 27.6145 16.3184 28.1392 16.3184 28.7864C16.3184 29.4336 16.843 29.9583 17.4902 29.9583H23.7663C24.4134 29.9583 24.9381 29.4336 24.9381 28.7864C24.9381 28.1392 24.4134 27.6145 23.7663 27.6145Z" fill="currentColor"/>
    <path d="M12.4674 27.6145H6.19141C5.54422 27.6145 5.01953 28.1392 5.01953 28.7864C5.01953 29.4336 5.54422 29.9583 6.19141 29.9583H12.4674C13.1146 29.9583 13.6393 29.4336 13.6393 28.7864C13.6393 28.1392 13.1146 27.6145 12.4674 27.6145Z" fill="currentColor"/>
    <path d="M23.7643 10.0416H6.19141C5.54422 10.0416 5.01953 10.5663 5.01953 11.2134V18.7447C5.01953 19.3919 5.54422 19.9166 6.19141 19.9166H23.7643C24.4115 19.9166 24.9362 19.3919 24.9362 18.7447V11.2134C24.9362 10.5663 24.4115 10.0416 23.7643 10.0416ZM22.5924 17.5729H7.36328V12.3854H22.5924V17.5729Z" fill="currentColor"/>
</svg>
