<svg width="45" height="45" viewBox="0 0 45 45" fill="none" xmlns="http://www.w3.org/2000/svg">
    <path d="M22.5005 39.1303C23.581 39.1303 24.457 38.2544 24.457 37.1738C24.457 36.0932 23.581 35.2173 22.5005 35.2173C21.4199 35.2173 20.5439 36.0932 20.5439 37.1738C20.5439 38.2544 21.4199 39.1303 22.5005 39.1303Z" fill="currentColor"/>
    <path d="M19.2785 17.8952L15.3654 13.9822C14.9829 13.5997 14.3647 13.5997 13.9822 13.9822C13.5997 14.3647 13.5997 14.9829 13.9822 15.3654L17.2036 18.5869L13.9822 21.8083C13.5997 22.1908 13.5997 22.809 13.9822 23.1915C14.1729 23.3823 14.4234 23.4782 14.6738 23.4782C14.9243 23.4782 15.1747 23.3823 15.3654 23.1915L19.2785 19.2785C19.661 18.896 19.661 18.2777 19.2785 17.8952Z" fill="currentColor"/>
    <path d="M30.3258 21.5217H22.4997C21.9597 21.5217 21.5215 21.96 21.5215 22.5C21.5215 23.04 21.9597 23.4783 22.4997 23.4783H30.3258C30.8658 23.4783 31.3041 23.04 31.3041 22.5C31.3041 21.96 30.8658 21.5217 30.3258 21.5217Z" fill="currentColor"/>
    <path d="M30.3263 15.6521H24.4568C23.9168 15.6521 23.4785 16.0904 23.4785 16.6304C23.4785 17.1704 23.9168 17.6086 24.4568 17.6086H30.3263C30.8663 17.6086 31.3046 17.1704 31.3046 16.6304C31.3046 16.0904 30.8663 15.6521 30.3263 15.6521Z" fill="currentColor"/>
    <path d="M30.3257 27.3914H14.6736C14.1336 27.3914 13.6953 27.8296 13.6953 28.3696C13.6953 28.9096 14.1336 29.3479 14.6736 29.3479H30.3257C30.8657 29.3479 31.304 28.9096 31.304 28.3696C31.304 27.8296 30.8657 27.3914 30.3257 27.3914Z" fill="currentColor"/>
    <path d="M32.2788 0C32.0978 0 12.7175 0 12.7175 0C12.7175 0 12.7175 0 12.7165 0C11.4105 0 10.1828 0.508696 9.25932 1.43217C8.33585 2.35565 7.82617 3.58533 7.82617 4.8913V6.84587C7.82617 6.84685 7.82617 6.84685 7.82617 6.84783C7.82617 6.8488 7.82617 6.8488 7.82617 6.84978V40.1087C7.82617 42.8058 10.0204 45 12.7175 45H32.2827C34.9798 45 37.174 42.8058 37.174 40.1087V4.8913C37.174 2.19424 34.9798 0 32.2788 0ZM9.78269 4.8913C9.78269 4.10772 10.0879 3.37011 10.6426 2.81641C11.1963 2.26272 11.9329 1.95652 12.7165 1.95652H22.4991C29.0085 1.95652 31.3592 1.95652 32.2817 1.8812V1.95652C33.8998 1.95652 35.2165 3.27326 35.2165 4.8913V5.86957H9.78269V4.8913ZM35.2175 40.1087C35.2175 41.7267 33.9007 43.0435 32.2827 43.0435H12.7175C11.0994 43.0435 9.78269 41.7267 9.78269 40.1087V7.82609H35.2175V40.1087Z" fill="currentColor"/>
</svg>
