<svg width="20" height="20" viewBox="0 0 20 20" fill="none" xmlns="http://www.w3.org/2000/svg">
    <path d="M18.0833 1.80566H4.08796C3.03241 1.81029 2.17593 2.66678 2.17593 3.72696V3.75011H1.91667C0.861111 3.75011 0.00462963 4.60196 0 5.65752V16.2733C0.00462963 17.3288 0.856482 18.1899 1.91667 18.1946H15.912C16.9676 18.1899 17.8241 17.3334 17.8241 16.2733V16.2501H18.0833C19.1389 16.2501 19.9954 15.3983 20 14.3427V3.72696C19.9954 2.66678 19.1435 1.81029 18.0833 1.80566ZM15.912 17.2686H1.91667C1.37037 17.264 0.930556 16.8196 0.925926 16.2733V5.65752C0.930556 5.11585 1.37037 4.67603 1.91667 4.67603H15.912C16.4537 4.67603 16.8981 5.11122 16.8981 5.65752V8.30566C16.8148 8.32418 16.7315 8.33344 16.6528 8.33344H13.9815C12.5278 8.33344 11.3472 9.514 11.3472 10.9677C11.3472 12.4214 12.5278 13.602 13.9815 13.6066H16.6481C16.7315 13.602 16.8148 13.5927 16.8935 13.5834L16.8981 16.2733C16.8981 16.8196 16.4583 17.264 15.912 17.2686ZM19.0741 14.3427C19.0694 14.8844 18.6296 15.3242 18.0833 15.3242H17.8241V13.2501C18.0231 13.1159 18.2037 12.9492 18.3565 12.764L19.0741 11.8381V14.3427ZM17.625 12.2038C17.3935 12.5047 17.0324 12.6807 16.6528 12.6853H13.9815C13.037 12.6807 12.2731 11.9168 12.2731 10.9723C12.2731 10.0279 13.037 9.264 13.9815 9.25937H16.6481C16.9676 9.25937 17.2824 9.18992 17.5694 9.05103C17.875 8.90752 18.1435 8.68992 18.3519 8.4214L19.0694 7.49548L19.0741 10.3242L17.625 12.2038ZM19.0741 5.98159L17.8241 7.5927V5.65752C17.8241 4.60196 16.9676 3.75011 15.912 3.75011H3.10185V3.72696C3.10185 3.18066 3.54167 2.73622 4.08796 2.73159H18.0833C18.6296 2.73622 19.0694 3.18066 19.0741 3.72696V5.98159Z" fill="currentColor"/>
    <path d="M15.0185 10.5093H13.9074C13.6528 10.5093 13.4445 10.7176 13.4445 10.9722C13.4445 11.2269 13.6528 11.4352 13.9074 11.4352H15.0185C15.2732 11.4352 15.4815 11.2269 15.4815 10.9722C15.4815 10.7176 15.2732 10.5093 15.0185 10.5093Z" fill="currentColor"/>
</svg>
