<svg width="50" height="42" viewBox="0 0 50 42" xmlns="http://www.w3.org/2000/svg">
    <path d="M40.7772 24.0457L34.8852 20.873C33.9687 20.3794 32.8878 20.4035 31.9939 20.9373C31.1 21.4711 30.5664 22.4115 30.5664 23.4525V30.7043C30.5664 31.7975 31.168 32.7919 32.1364 33.2993C32.5655 33.5241 33.0321 33.6353 33.4971 33.6353C34.0813 33.6353 34.6631 33.4595 35.1637 33.113L41.0558 29.0338C41.9005 28.4491 42.3706 27.4876 42.3133 26.4618C42.2561 25.436 41.6817 24.5328 40.7772 24.0457ZM33.4961 30.7037V23.4526L39.3879 26.6254L33.4961 30.7037Z" fill="currentColor"/>
    <path d="M17.1875 19.5352H7.8125C7.00352 19.5352 6.34766 20.191 6.34766 21C6.34766 21.809 7.00352 22.4648 7.8125 22.4648H17.1875C17.9965 22.4648 18.6523 21.809 18.6523 21C18.6523 20.191 17.9965 19.5352 17.1875 19.5352Z" fill="currentColor"/>
    <path d="M17.1875 25.7852H7.8125C7.00352 25.7852 6.34766 26.441 6.34766 27.25C6.34766 28.059 7.00352 28.7148 7.8125 28.7148H17.1875C17.9965 28.7148 18.6523 28.059 18.6523 27.25C18.6523 26.441 17.9965 25.7852 17.1875 25.7852Z" fill="currentColor"/>
    <path d="M17.1875 32.0352H7.8125C7.00352 32.0352 6.34766 32.691 6.34766 33.5C6.34766 34.309 7.00352 34.9648 7.8125 34.9648H17.1875C17.9965 34.9648 18.6523 34.309 18.6523 33.5C18.6523 32.691 17.9965 32.0352 17.1875 32.0352Z" fill="currentColor"/>
    <path d="M45.6055 0.00390625H4.39453C1.97139 0.00390625 0 1.97529 0 4.39844V37.6016C0 40.0247 1.97139 41.9961 4.39453 41.9961H45.6055C48.0286 41.9961 50 40.0247 50 37.6016V4.39844C50 1.97529 48.0286 0.00390625 45.6055 0.00390625ZM4.39453 2.93359H45.6055C46.4132 2.93359 47.0703 3.59072 47.0703 4.39844V12.5039H2.92969V4.39844C2.92969 3.59072 3.58682 2.93359 4.39453 2.93359ZM45.6055 39.0664H4.39453C3.58682 39.0664 2.92969 38.4093 2.92969 37.6016V15.4336H47.0703V37.6016C47.0703 38.4093 46.4132 39.0664 45.6055 39.0664Z" fill="currentColor"/>
    <path d="M7.8125 9.18359C8.62151 9.18359 9.27734 8.52776 9.27734 7.71875C9.27734 6.90974 8.62151 6.25391 7.8125 6.25391C7.00349 6.25391 6.34766 6.90974 6.34766 7.71875C6.34766 8.52776 7.00349 9.18359 7.8125 9.18359Z" fill="currentColor"/>
    <path d="M14.0625 9.18372C14.8715 9.18372 15.5273 8.52788 15.5273 7.71887C15.5273 6.90986 14.8715 6.25403 14.0625 6.25403C13.2535 6.25403 12.5977 6.90986 12.5977 7.71887C12.5977 8.52788 13.2535 9.18372 14.0625 9.18372Z" fill="currentColor"/>
    <path d="M20.3125 9.18359C21.1215 9.18359 21.7773 8.52776 21.7773 7.71875C21.7773 6.90974 21.1215 6.25391 20.3125 6.25391C19.5035 6.25391 18.8477 6.90974 18.8477 7.71875C18.8477 8.52776 19.5035 9.18359 20.3125 9.18359Z" fill="currentColor"/>
</svg>
