<svg width="50" height="50" viewBox="0 0 50 50" xmlns="http://www.w3.org/2000/svg">
    <path d="M42.2554 30.7482L34.1584 21.2999L41.3503 17.2276C42.0531 16.8298 42.2977 15.9418 41.8969 15.2445C41.496 14.547 40.6011 14.3042 39.8987 14.702C39.2973 15.0425 25.6689 22.7591 24.9995 23.1382C24.3269 22.7573 10.6952 15.0388 10.1004 14.702C9.39768 14.3042 8.50324 14.5468 8.10217 15.2445C7.70139 15.9418 7.94592 16.8297 8.64875 17.2276L15.8406 21.2999L7.74358 30.7482C7.21946 31.3599 7.29406 32.2773 7.91037 32.7975C8.52658 33.3179 9.45139 33.2435 9.97522 32.632L18.43 22.7661L24.2737 26.0749C24.7236 26.3296 25.2756 26.3295 25.7253 26.0749L31.569 22.7661L40.0238 32.632C40.548 33.2439 41.4728 33.3175 42.0886 32.7975C42.7049 32.2774 42.7795 31.3599 42.2554 30.7482Z" fill="currentColor"/>
    <path d="M45.6055 7.85059H4.39453C1.97139 7.85059 0 9.80715 0 12.2121V37.4118C0 39.8167 1.97139 41.7733 4.39453 41.7733H45.6055C48.0286 41.7733 50 39.8167 50 37.4118V12.2121C50 9.80715 48.0286 7.85059 45.6055 7.85059ZM47.0703 37.4118C47.0703 38.2134 46.4132 38.8656 45.6055 38.8656H4.39453C3.58682 38.8656 2.92969 38.2134 2.92969 37.4118V12.2121C2.92969 11.4104 3.58682 10.7582 4.39453 10.7582H45.6055C46.4132 10.7582 47.0703 11.4104 47.0703 12.2121V37.4118Z" fill="currentColor"/>
</svg>
