<svg width="55" height="55" viewBox="0 0 55 55" xmlns="http://www.w3.org/2000/svg">
    <path d="M46.5698 35.0819C51.3031 34.6693 55.0005 31.4265 55.0005 27.4998C55.0005 23.573 51.3031 20.3302 46.5698 19.9176C44.7347 15.307 41.2639 11.4927 36.841 9.22811C36.723 4.18115 32.6096 0 27.5008 0C22.3958 0 18.2787 4.17653 18.1606 9.22822C13.7377 11.4928 10.2668 15.3072 8.43181 19.9177C3.69841 20.3302 0.000976562 23.573 0.000976562 27.4998C0.000976562 31.4269 3.69895 34.6698 8.43278 35.082C9.95891 38.9071 12.6434 42.2203 16.0545 44.5256C13.2854 46.703 11.2257 49.5995 10.1486 52.8865C9.87147 53.7321 10.3324 54.6423 11.178 54.9194C12.0236 55.1965 12.9338 54.7355 13.211 53.89C14.228 50.7864 16.3298 48.102 19.1705 46.2535C24.6571 48.6988 30.8687 48.5529 36.1263 46.1181C39.0757 47.9688 41.2528 50.7012 42.2975 53.8899C42.5746 54.7356 43.4846 55.1964 44.3304 54.9194C45.1761 54.6423 45.6371 53.7322 45.3599 52.8865C44.2498 49.4984 42.1078 46.5376 39.2201 44.3431C42.4074 42.1245 45.0392 38.9374 46.5698 35.0819ZM51.7779 27.4998C51.7779 29.3821 50.0036 31.0333 47.5977 31.6481C48.1578 28.9237 48.159 26.0817 47.5977 23.3516C50.0036 23.9663 51.7779 25.6174 51.7779 27.4998ZM27.5008 3.22263C30.6023 3.22263 33.1726 5.58106 33.5703 8.62816C29.7169 8.95934 26.5246 11.6223 25.4324 15.2202C23.0443 14.3709 21.3778 12.098 21.3778 9.45294C21.3778 6.01762 24.1245 3.22263 27.5008 3.22263ZM3.22361 27.4998C3.22361 25.6174 4.99788 23.9663 7.40379 23.3515C6.8437 26.0759 6.84251 28.9178 7.40379 31.648C4.99788 31.0333 3.22361 29.3821 3.22361 27.4998ZM35.4581 42.8597C26.1878 47.6746 14.6514 43.2732 11.0945 32.9852C8.51055 25.255 11.6855 16.7641 18.7008 12.6097C19.8769 15.9055 22.8472 18.3604 26.5131 18.7463C27.4006 18.8396 28.1943 18.1938 28.2848 17.3076C28.6205 14.0222 31.491 11.5832 34.8389 11.836C42.7145 15.5307 46.7096 24.6005 43.907 32.9851C42.3492 37.5013 39.2222 40.9056 35.4581 42.8597Z" fill="currentColor"/>
    <path d="M23.5442 25.6009C24.1735 24.9716 24.1735 23.9515 23.5442 23.3222C21.2353 21.0133 17.498 21.0129 15.1888 23.3222C14.5595 23.9515 14.5595 24.9716 15.1888 25.6009C15.8179 26.2302 16.8382 26.2302 17.4675 25.6009C18.5171 24.5514 20.2158 24.5513 21.2654 25.6009C21.8947 26.2301 22.9149 26.2302 23.5442 25.6009Z" fill="currentColor"/>
    <path d="M39.8714 23.3222C37.5625 21.0133 33.8251 21.0129 31.5159 23.3222C30.8866 23.9515 30.8866 24.9716 31.5159 25.6009C32.1451 26.2302 33.1654 26.2302 33.7946 25.6009C34.8443 24.5514 36.5429 24.5513 37.5925 25.6009C38.2217 26.2301 39.2419 26.2303 39.8713 25.6009C40.5007 24.9717 40.5007 23.9515 39.8714 23.3222Z" fill="currentColor"/>
    <path d="M30.614 34.0948C28.8968 35.812 26.1026 35.812 24.3854 34.0948C23.7562 33.4656 22.7359 33.4655 22.1066 34.0948C21.4775 34.724 21.4775 35.7442 22.1066 36.3735C25.0804 39.3471 29.919 39.3471 32.8928 36.3735C33.522 35.7442 33.522 34.724 32.8928 34.0948C32.2634 33.4656 31.2433 33.4656 30.614 34.0948Z" fill="currentColor"/>
</svg>
