<svg width="40" height="40" viewBox="0 0 40 40" fill="none" xmlns="http://www.w3.org/2000/svg">
    <path d="M35.416 40H6.24935C3.72102 40 1.66602 37.945 1.66602 35.4167V4.58333C1.66602 2.055 3.72102 0 6.24935 0H32.0827C32.7727 0 33.3327 0.56 33.3327 1.25V6.66667H35.416C36.106 6.66667 36.666 7.22667 36.666 7.91667V38.75C36.666 39.44 36.106 40 35.416 40ZM4.16602 8.665V35.4167C4.16602 36.565 5.10102 37.5 6.24935 37.5H34.166V9.16667H6.24935C5.49935 9.16667 4.79102 8.98667 4.16602 8.665ZM6.24935 2.5C5.10102 2.5 4.16602 3.435 4.16602 4.58333C4.16602 5.73167 5.10102 6.66667 6.24935 6.66667H30.8327V2.5H6.24935Z" fill="currentColor"/>
    <path d="M20.4173 31.6665C20.189 31.6665 19.964 31.6048 19.7606 31.4815L15.0006 28.5515L10.2407 31.4815C9.85398 31.7198 9.37232 31.7282 8.97398 31.5082C8.57732 31.2865 8.33398 30.8682 8.33398 30.4165V7.9165H10.834V28.1798L14.344 26.0198C14.7473 25.7732 15.2523 25.7732 15.6556 26.0198L19.1656 28.1798V7.9165H21.6673V30.4165C21.6673 30.8682 21.424 31.2865 21.0273 31.5082C20.8373 31.6132 20.6273 31.6665 20.4173 31.6665Z" fill="currentColor"/>
</svg>
