<svg width="25" height="25" viewBox="0 0 25 25" xmlns="http://www.w3.org/2000/svg">
    <path d="M17.9679 25C17.1609 25 16.3607 24.8573 15.5783 24.5731C12.1313 23.3209 8.93169 21.2814 6.32535 18.6751C3.71901 16.0688 1.67955 12.8692 0.427403 9.42217C0.0250265 8.31441 -0.0937186 7.1709 0.074585 6.02329C0.232245 4.94833 0.648634 3.90477 1.27878 3.00539C1.91172 2.10206 2.75553 1.35073 3.71897 0.832632C4.74637 0.280164 5.86775 0 7.05208 0C7.42043 0 7.73877 0.257363 7.81597 0.617504L9.04218 6.33988C9.0977 6.599 9.01806 6.86862 8.83072 7.05601L6.73544 9.15124C8.71202 13.0811 11.9193 16.2883 15.8491 18.2649L17.9444 16.1696C18.1318 15.9823 18.4014 15.9028 18.6605 15.9582L24.3829 17.1844C24.7431 17.2616 25.0004 17.5799 25.0004 17.9483C25.0004 19.1326 24.7202 20.2541 24.1677 21.2815C23.6496 22.2449 22.8983 23.0887 21.9949 23.7216C21.0956 24.3518 20.052 24.7682 18.977 24.9258C18.6402 24.9753 18.3034 25 17.9679 25ZM6.42789 1.59661C4.8657 1.76907 3.47913 2.58788 2.55837 3.90204C1.52296 5.37976 1.28152 7.19731 1.89595 8.88875C4.30327 15.5157 9.48475 20.6972 16.1117 23.1045C17.8031 23.719 19.6207 23.4776 21.0984 22.4421C22.4126 21.5213 23.2314 20.1348 23.4039 18.5726L18.7487 17.5751L16.5605 19.7633C16.3277 19.9961 15.9739 20.058 15.6759 19.9179C11.0282 17.7344 7.26604 13.9723 5.08253 9.32452C4.94255 9.02653 5.00436 8.67274 5.23721 8.43994L7.42541 6.25175L6.42789 1.59661Z" fill="currentColor"/>
</svg>
