<svg width="13" height="15" viewBox="0 0 13 15" xmlns="http://www.w3.org/2000/svg">
    <path d="M12.2422 3.51562H10.4567C10.2239 1.53873 8.53839 0 6.5 0C4.46161 0 2.7761 1.53873 2.54334 3.51562H0.757812C0.434199 3.51562 0.171875 3.77795 0.171875 4.10156V14.4141C0.171875 14.7377 0.434199 15 0.757812 15H12.2422C12.5658 15 12.8281 14.7377 12.8281 14.4141V4.10156C12.8281 3.77795 12.5658 3.51562 12.2422 3.51562ZM6.5 1.17188C7.89113 1.17188 9.04939 2.18716 9.27321 3.51562H3.72679C3.95062 2.18716 5.10887 1.17188 6.5 1.17188ZM11.6562 13.8281H1.34375V4.6875H2.51562V6.44531C2.51562 6.76893 2.77795 7.03125 3.10156 7.03125C3.42518 7.03125 3.6875 6.76893 3.6875 6.44531V4.6875H9.3125V6.44531C9.3125 6.76893 9.57482 7.03125 9.89844 7.03125C10.2221 7.03125 10.4844 6.76893 10.4844 6.44531V4.6875H11.6562V13.8281Z" fill="currentColor"/>
</svg>
