<svg width="45" height="45" viewBox="0 0 45 45" xmlns="http://www.w3.org/2000/svg">
    <path d="M22.5292 21.3608C24.1425 21.3608 25.4549 20.0484 25.4549 18.435C25.4549 16.8218 24.1425 15.5093 22.5292 15.5093C20.916 15.5093 19.6035 16.8218 19.6035 18.435C19.6035 20.0484 20.916 21.3608 22.5292 21.3608ZM22.5292 17.2672C23.1732 17.2672 23.6971 17.7911 23.6971 18.435C23.6971 19.079 23.1732 19.603 22.5292 19.603C21.8853 19.603 21.3613 19.0791 21.3613 18.435C21.3613 17.791 21.8852 17.2672 22.5292 17.2672Z" fill="currentColor"/>
    <path d="M44.1211 43.2422H41.359V29.6367H44.0908C44.4383 29.6367 44.7532 29.4319 44.8942 29.1143C45.0352 28.7967 44.9757 28.4258 44.7425 28.1681L40.0994 23.0367C39.9328 22.8525 39.696 22.7474 39.4477 22.7474H35.0561V18.0027H36.0644C36.5498 18.0027 36.9433 17.6092 36.9433 17.1238V13.6978C36.9433 13.2123 36.5498 12.8188 36.0644 12.8188H31.8015L23.3933 6.99161V5.69566H27.8975C28.3829 5.69566 28.7764 5.30218 28.7764 4.81676V0.878906C28.7764 0.393486 28.3829 0 27.8975 0H22.5143C22.0289 0 21.6354 0.393486 21.6354 0.878906V6.99161L13.2274 12.8189H8.7598C8.27437 12.8189 7.88089 13.2124 7.88089 13.6978V17.1239C7.88089 17.6093 8.27437 18.0028 8.7598 18.0028H9.97269V22.7475H5.60988C5.3615 22.7475 5.12481 22.8525 4.95817 23.0367L0.315088 28.1681C0.0819141 28.4258 0.0225 28.7966 0.163389 29.1143C0.304365 29.4319 0.619277 29.6367 0.966797 29.6367H3.69861V43.2422H0.878906C0.393486 43.2422 0 43.6357 0 44.1211C0 44.6065 0.393486 45 0.878906 45H44.1211C44.6064 45 45 44.6065 45 44.1211C45 43.6357 44.6064 43.2422 44.1211 43.2422ZM42.1102 27.8789H31.7655V24.5053H39.0577L42.1102 27.8789ZM31.7655 33.6109H34.8044V36.6498H31.7655V33.6109ZM27.0186 3.93785H23.3933V1.75781H27.0186V3.93785ZM9.6387 14.5767H13.5022C13.6811 14.5767 13.8558 14.5221 14.0028 14.4201L22.5143 8.52117L31.0259 14.4201C31.173 14.5221 31.3476 14.5767 31.5265 14.5767H35.1854V16.2449H30.1731L23.02 11.2121C22.7167 10.9986 22.3119 10.9986 22.0085 11.2121L14.8554 16.2449H9.63853V14.5767H9.6387ZM5.99994 24.5053H13.2921V27.8789H2.94741L5.99994 24.5053ZM13.2921 36.6498H10.2531V33.6109H13.2921V36.6498ZM5.45643 29.6367H13.2921V31.8531H9.37424C8.88882 31.8531 8.49533 32.2465 8.49533 32.732V37.5287C8.49533 38.0141 8.88882 38.4076 9.37424 38.4076H13.2921V43.2422H5.45643V29.6367ZM15.0499 24.5053H18.6775C19.1629 24.5053 19.5564 24.1118 19.5564 23.6264C19.5564 23.141 19.1629 22.7475 18.6775 22.7475H11.7304V18.0028H15.1337C15.3148 18.0028 15.4914 17.9469 15.6394 17.8428L22.5142 13.0057L29.3891 17.8428C29.5372 17.9469 29.7138 18.0028 29.8949 18.0028H33.2982V22.7475H26.4185C25.9332 22.7475 25.5396 23.141 25.5396 23.6264C25.5396 24.1118 25.9332 24.5053 26.4185 24.5053H30.0076V43.2422H27.2089V34.0658C27.2089 31.604 25.2061 29.6012 22.7442 29.6012C20.2824 29.6012 18.2797 31.6041 18.2797 34.0658V43.2422H15.0498V24.5053H15.0499ZM20.0376 43.2422V34.0658C20.0376 32.5732 21.2518 31.359 22.7443 31.359C24.2369 31.359 25.4512 32.5732 25.4512 34.0658V43.2422H20.0376ZM31.7655 43.2422V38.4076H35.6833C36.1687 38.4076 36.5622 38.0141 36.5622 37.5287V32.732C36.5622 32.2465 36.1687 31.8531 35.6833 31.8531H31.7655V29.6367H39.6011V43.2422H31.7655Z" fill="currentColor"/>
    <path d="M23.3395 23.2902C23.0377 22.5658 21.9671 22.5879 21.7007 23.3302C21.5743 23.6822 21.6918 24.09 21.9878 24.3192C22.2741 24.5409 22.6738 24.5648 22.9837 24.3776C23.3496 24.1566 23.504 23.685 23.3395 23.2902Z" fill="currentColor"/>
</svg>
