<svg width="50" height="50" viewBox="0 0 50 50" xmlns="http://www.w3.org/2000/svg">
    <path d="M42.6777 7.32231C37.9558 2.60048 31.6777 0 25 0C18.3223 0 12.0442 2.60048 7.32231 7.32231C2.60038 12.0441 0 18.3223 0 25C0 31.6777 2.60048 37.9558 7.32231 42.6777C12.0441 47.3996 18.3223 50 25 50C31.6777 50 37.9558 47.3995 42.6777 42.6777C47.3996 37.9559 50 31.6777 50 25C50 18.3223 47.3995 12.0442 42.6777 7.32231ZM41.6253 39.5856L40.2162 38.1764C39.4842 37.4445 39.3028 36.3304 39.7647 35.404L41.0257 32.875C42.2388 30.4418 42.88 27.7188 42.88 25C42.88 22.2812 42.2388 19.5581 41.0257 17.125L39.7647 14.596C39.3028 13.6696 39.4842 12.5555 40.2162 11.8236L41.6253 10.4144C45.1758 14.4502 47.1154 19.5763 47.1154 25C47.1154 30.4237 45.1758 35.5498 41.6253 39.5856ZM12.8168 34.1168L11.5559 31.5878C9.49914 27.4627 9.49914 22.5372 11.5559 18.4121L12.8168 15.8831C13.2154 15.0838 13.3953 14.2209 13.3707 13.3701C13.4213 13.3715 13.4719 13.3738 13.5227 13.3738C14.3238 13.3738 15.1315 13.1914 15.8832 12.8167L18.4122 11.5558C22.5373 9.49894 27.4628 9.49904 31.5879 11.5558L34.1169 12.8167C34.9161 13.2152 35.7788 13.395 36.6293 13.3705C36.6048 14.2212 36.7847 15.0838 37.1832 15.883L38.4441 18.412C40.5009 22.5371 40.5009 27.4626 38.4441 31.5877L37.1832 34.1167C36.7847 34.916 36.6048 35.7786 36.6293 36.6291C35.7788 36.6046 34.9161 36.7845 34.1169 37.183L31.5879 38.4439C27.4627 40.5007 22.5372 40.5006 18.4122 38.4439L15.8832 37.183C15.0839 36.7845 14.2213 36.6046 13.3708 36.6291C13.3952 35.7788 13.2153 34.9161 12.8168 34.1168ZM25 2.88462C30.4237 2.88462 35.5498 4.82423 39.5856 8.37471L38.1764 9.78385C37.4446 10.5157 36.3305 10.6973 35.404 10.2353L32.875 8.97433C30.4418 7.76125 27.7188 7.12 25 7.12C22.2812 7.12 19.5581 7.76125 17.125 8.97433L14.596 10.2353C13.6695 10.6972 12.5556 10.5158 11.8236 9.78385L10.4144 8.37471C14.4502 4.82423 19.5763 2.88462 25 2.88462ZM8.37471 10.4144L9.78385 11.8236C10.5158 12.5555 10.6972 13.6696 10.2353 14.596L8.97433 17.125C7.76125 19.5582 7.12 22.2812 7.12 25C7.12 27.7188 7.76125 30.4419 8.97433 32.875L10.2353 35.404C10.6972 36.3304 10.5158 37.4445 9.78385 38.1764L8.37471 39.5856C4.82423 35.5498 2.88462 30.4237 2.88462 25C2.88462 19.5763 4.82423 14.4502 8.37471 10.4144ZM25 47.1154C19.5763 47.1154 14.4502 45.1758 10.4144 41.6253L11.8236 40.2162C12.5555 39.4844 13.6696 39.3028 14.596 39.7647L17.125 41.0257C19.5582 42.2388 22.2812 42.88 25 42.88C27.7188 42.88 30.4419 42.2388 32.875 41.0257L35.404 39.7647C36.3305 39.3029 37.4445 39.4842 38.1764 40.2162L39.5856 41.6253C35.5498 45.1758 30.4237 47.1154 25 47.1154Z" fill="currentColor"/>
</svg>
