<svg width="45" height="46" viewBox="0 0 45 46" fill="none" xmlns="http://www.w3.org/2000/svg">
    <path d="M36.5455 26.7089C35.746 23.8553 34.0867 21.2808 31.7968 19.3737C30.4514 18.2532 28.9205 17.3934 27.2882 16.8229C28.7711 15.4936 29.7073 13.5595 29.7073 11.4088V7.25208C29.7073 3.25326 26.4743 0 22.5003 0C18.5263 0 15.2933 3.25326 15.2933 7.25208V11.4088C15.2933 13.5595 16.2295 15.4936 17.7124 16.8229C16.0801 17.3934 14.5492 18.2532 13.2038 19.3737C10.914 21.2808 9.25457 23.8553 8.45512 26.7089H5.20703L7.25778 45.2812H37.7428L39.7936 26.7089H36.5455ZM17.93 7.25208C17.93 4.71624 19.9802 2.6532 22.5003 2.6532C25.0204 2.6532 27.0706 4.71624 27.0706 7.25208V11.4088C27.0706 13.9446 25.0204 16.0076 22.5003 16.0076C19.9802 16.0076 17.93 13.9446 17.93 11.4088V7.25208ZM22.5003 18.6608C27.6174 18.6608 32.1295 21.9612 33.7835 26.7089H11.2171C12.8711 21.9612 17.3832 18.6608 22.5003 18.6608ZM35.3828 42.6281H9.61782L8.15295 29.3621H36.8477L35.3828 42.6281Z" fill="currentColor"/>
    <path d="M22.5 37.2332C23.4708 37.2332 24.2578 36.4412 24.2578 35.4644C24.2578 34.4875 23.4708 33.6956 22.5 33.6956C21.5292 33.6956 20.7422 34.4875 20.7422 35.4644C20.7422 36.4412 21.5292 37.2332 22.5 37.2332Z" fill="currentColor"/>
</svg>
