<svg width="60" height="61" viewBox="0 0 60 61" xmlns="http://www.w3.org/2000/svg">
    <path d="M58.2422 56.9639H50.5078V39.7373C50.5078 37.7988 48.9307 36.2217 46.9922 36.2217H44.3787C43.69 33.2171 42.319 30.6373 40.3639 28.6993C39.1335 27.4795 37.7029 26.5474 36.1162 25.9203C39.5169 22.9862 41.7363 17.9138 41.7363 13.331C41.7363 9.17223 40.5795 5.9082 38.2979 3.62996C36.2341 1.56887 33.3648 0.479492 30 0.479492C26.6353 0.479492 23.7659 1.56887 21.702 3.62996C19.4204 5.9082 18.2636 9.17223 18.2636 13.331C18.2636 17.9137 20.483 22.9862 23.8836 25.9203C22.2971 26.5474 20.8665 27.4795 19.6361 28.6993C17.681 30.6373 16.31 33.2172 15.6214 36.2217H13.0078C11.0693 36.2217 9.49219 37.7988 9.49219 39.7373V56.9639H1.75781C0.787031 56.9639 0 57.7509 0 58.7217C0 59.6925 0.787031 60.4795 1.75781 60.4795H58.2422C59.213 60.4795 60 59.6925 60 58.7217C60 57.7509 59.213 56.9639 58.2422 56.9639ZM30 3.99512C32.5816 3.99512 36.6335 4.85328 37.8581 9.95539C36.0666 9.72758 35.0435 9.22145 34.2428 8.82523C33.4579 8.43688 32.5682 7.9966 31.4824 8.24551C30.6011 8.44754 29.9709 8.94477 29.3617 9.4257C28.2513 10.3021 26.6303 11.5788 21.8426 11.8373C22.4387 5.05648 27.1288 3.99512 30 3.99512ZM21.9562 15.3515C27.9266 15.0371 30.1566 13.2773 31.54 12.1852C31.7402 12.027 31.998 11.8237 32.1577 11.7263C32.2987 11.7859 32.507 11.8889 32.6837 11.9763C33.7166 12.4873 35.3384 13.2894 38.2163 13.5247C38.1703 16.113 37.2081 18.9837 35.6179 21.2456C33.995 23.5539 31.9473 24.8779 30 24.8779C28.0527 24.8779 26.005 23.5539 24.382 21.2456C23.1592 19.5062 22.3061 17.4061 21.9562 15.3515ZM29.0625 28.4873H30.9375C35.8158 28.4873 39.3743 31.3396 40.755 36.2217H19.245C20.6257 31.3396 24.1842 28.4873 29.0625 28.4873ZM13.0078 56.9639V39.7373H46.9922V56.9639H13.0078Z" fill="currentColor"/>
    <path d="M30 49.1115C30.9708 49.1115 31.7578 48.3246 31.7578 47.3539C31.7578 46.3832 30.9708 45.5963 30 45.5963C29.0292 45.5963 28.2422 46.3832 28.2422 47.3539C28.2422 48.3246 29.0292 49.1115 30 49.1115Z" fill="currentColor"/>
</svg>
