<svg width="38" height="51" viewBox="0 0 38 51" fill="none" xmlns="http://www.w3.org/2000/svg">
    <path d="M19 26.1389C24.5246 26.1389 28.7656 21.6148 28.7656 16.3123C28.7656 10.896 24.3862 6.48776 19.0033 6.4856C19.0032 6.4856 19.0001 6.4856 19 6.4856C13.6152 6.4856 9.23438 10.8938 9.23438 16.3123C9.23438 21.6121 13.4726 26.1389 19 26.1389ZM13.3845 21.7786L18.0234 18.2776V24.113C16.2487 23.8931 14.6256 23.0763 13.3845 21.7786ZM19.9766 24.113V18.2776L24.6156 21.7786C23.3747 23.0762 21.7514 23.8931 19.9766 24.113ZM26.8125 16.3123C26.8125 17.698 26.4605 19.0268 25.7882 20.2069L19.9766 15.8209V8.5146C23.8247 9.00034 26.8125 12.3113 26.8125 16.3123ZM18.0234 8.51451V15.8209L12.2117 20.207C11.5395 19.0272 11.1875 17.6982 11.1875 16.3123C11.1875 12.3104 14.1751 8.99994 18.0234 8.51451Z" fill="currentColor"/>
    <path d="M24.8594 30.0696H13.1406C12.6013 30.0696 12.1641 30.5095 12.1641 31.0522C12.1641 31.595 12.6013 32.0349 13.1406 32.0349H24.8594C25.3986 32.0349 25.8359 31.595 25.8359 31.0522C25.8359 30.5095 25.3986 30.0696 24.8594 30.0696Z" fill="currentColor"/>
    <path d="M19 50.3125C19.5393 50.3125 19.9766 49.8725 19.9766 49.3298C19.9766 48.7871 19.5393 48.3472 19 48.3472C18.4607 48.3472 18.0234 48.7871 18.0234 49.3298C18.0234 49.8725 18.4607 50.3125 19 50.3125Z" fill="currentColor"/>
    <path d="M0.445312 6.87866V43.4338C0.445312 47.2267 3.51191 50.3125 7.28125 50.3125H14.6055C15.1448 50.3125 15.582 49.8726 15.582 49.3298C15.582 48.7871 15.1448 48.3472 14.6055 48.3472H7.28125C4.58887 48.3472 2.39844 46.143 2.39844 43.4338C2.39844 40.7246 4.58887 38.5205 7.28125 38.5195H33.792C33.212 39.5402 32.8246 40.8983 32.7089 42.4512H7.28125C6.74189 42.4512 6.30469 42.8911 6.30469 43.4338C6.30469 43.9766 6.74189 44.4165 7.28125 44.4165H32.7089C32.8246 45.9694 33.2119 47.3275 33.7919 48.3472H23.3945C22.8553 48.3472 22.418 48.7871 22.418 49.3298C22.418 49.8726 22.8553 50.3125 23.3945 50.3125H36.5781C37.1174 50.3125 37.5547 49.8726 37.5547 49.3298C37.5547 48.7871 37.1174 48.3472 36.5781 48.3472C35.7818 48.3472 34.625 46.4331 34.625 43.4338C34.625 40.4345 35.7818 38.5205 36.5781 38.5205C37.1174 38.5205 37.5547 38.0806 37.5547 37.5378V0.982666C37.5547 0.43994 37.1174 0 36.5781 0H7.28125C3.51191 0 0.445312 3.08577 0.445312 6.87866ZM7.28125 1.96533H35.6016V36.5552H7.28125C5.37041 36.5552 3.64014 37.3482 2.39844 38.6244V6.87866C2.39844 4.16945 4.58887 1.96533 7.28125 1.96533Z" fill="currentColor"/>
</svg>
