<svg width="54" height="80" viewBox="0 0 54 80" xmlns="http://www.w3.org/2000/svg">
    <path d="M26.5623 37.5524C34.5049 37.5524 40.9665 31.0906 40.9665 23.148C40.9665 19.9097 39.9167 16.8508 37.9307 14.302C37.4003 13.6213 36.4184 13.4995 35.7377 14.0298C35.0568 14.5603 34.9349 15.5423 35.4655 16.223C37.0197 18.2177 37.8412 20.6123 37.8412 23.148C37.8412 29.3673 32.7816 34.427 26.5623 34.427C20.3431 34.427 15.2835 29.3673 15.2835 23.148C15.2835 16.9288 20.3431 11.8692 26.5623 11.8692C27.4254 11.8692 28.125 11.1695 28.125 10.3066C28.125 9.44366 27.4254 8.7439 26.5623 8.7439C18.6198 8.7439 12.1582 15.2057 12.1582 23.148C12.158 31.0906 18.6198 37.5524 26.5623 37.5524Z" fill="currentColor"/>
    <path d="M32.2902 13.2139C33.0342 13.2139 33.6718 12.6951 33.8216 11.9575C33.9893 11.1177 33.4491 10.2931 32.5949 10.1198C31.6503 9.92883 30.7275 10.6523 30.7275 11.6528C30.7275 12.5121 31.4226 13.2139 32.2902 13.2139Z" fill="currentColor"/>
    <path d="M50.7555 51.938C50.5162 49.6881 49.0929 47.8357 47.1423 46.9717C45.5305 46.2584 44.3354 46.4712 42.2469 46.447H39.8281L46.5383 35.2538C52.0412 26.0745 50.5992 14.3782 43.0314 6.81035C33.9509 -2.27012 19.1753 -2.27012 10.0947 6.81035C2.52702 14.3782 1.08484 26.0744 6.58791 35.2538L13.2981 46.447H8.10385C4.91086 46.447 2.28231 48.8446 1.98946 52.024C-0.139663 75.1367 -0.00152335 73.4546 0.00488357 73.9359C0.0466066 77.0442 2.40201 79.6356 5.50264 79.9634C6.11067 80.0276 3.56916 79.9853 46.9105 79.9973C50.2974 79.9973 53.0502 77.2477 53.0507 73.8558C53.0505 73.2416 53.1209 74.3053 50.7555 51.938ZM44.6495 49.5721C46.1953 49.5721 47.4842 50.7313 47.6476 52.2684L47.9688 55.2907C47.3851 55.6253 46.7208 55.8043 46.0401 55.8043C42.8051 55.8043 41.0277 52.0844 42.9432 49.5721H44.6495ZM26.5629 3.12372C42.2494 3.12372 51.8864 20.2542 43.8577 33.6467L30.2274 56.3832C28.5686 59.1497 24.5585 59.1519 22.8985 56.3832L9.26819 33.6467C1.23345 20.2444 10.8857 3.12372 26.5629 3.12372ZM8.10353 49.5721H15.1713L20.2178 57.99C23.0896 62.7805 30.0333 62.7846 32.9077 57.99L37.9541 49.5721H39.4302C37.8163 54.1275 41.2059 58.9297 46.04 58.9297C46.8205 58.9297 47.5884 58.7978 48.315 58.5481L49.2806 67.632L44.9842 64.7512C42.8693 63.3329 40.1792 63.2325 37.9641 64.4877L30.4666 68.7371C29.5879 68.112 21.2094 62.1519 20.0079 61.2971C17.4095 59.4486 13.9766 59.3355 11.2621 61.0086L3.88091 65.5585L5.10135 52.3102C5.24511 50.7494 6.53587 49.5721 8.10353 49.5721ZM47.5447 76.8065C46.9552 76.9306 49.4963 76.8486 6.14427 76.872C4.36408 76.872 2.97925 75.3464 3.14208 73.5806L3.52243 69.4512L12.9022 63.6695C14.5456 62.6568 16.6236 62.7252 18.1963 63.8441C19.5989 64.8418 31.9391 73.6203 33.5602 74.7735C34.2622 75.2728 35.2381 75.1107 35.7394 74.406C36.2397 73.7026 36.075 72.727 35.3718 72.2268L33.2772 70.7367L39.5051 67.2071C40.6847 66.5384 42.1174 66.592 43.2437 67.3471L49.7111 71.6835C49.9038 73.5426 49.9252 73.5823 49.926 73.8593C49.9299 75.3101 48.8898 76.5227 47.5447 76.8065Z" fill="currentColor"/>
</svg>
