<svg width="20" height="20" viewBox="0 0 20 20" fill="none" xmlns="http://www.w3.org/2000/svg">
    <path d="M18.2422 0.0397949H1.75781C0.788555 0.0397949 0 0.82835 0 1.79761V18.2039C0 19.1731 0.788555 19.9617 1.75781 19.9617H18.2422C19.2114 19.9617 20 19.1731 20 18.2039V1.79761C20 0.82835 19.2114 0.0397949 18.2422 0.0397949ZM1.75781 1.21167H18.2422C18.5653 1.21167 18.8281 1.47452 18.8281 1.79761V4.72729H1.17188V1.79761C1.17188 1.47452 1.43473 1.21167 1.75781 1.21167ZM18.2422 18.7898H1.75781C1.43473 18.7898 1.17188 18.5269 1.17188 18.2039V5.89917H18.8281V18.2039C18.8281 18.5269 18.5653 18.7898 18.2422 18.7898Z" fill="currentColor"/>
    <path d="M11.9887 7.70365C11.6912 7.57619 11.3468 7.71396 11.2193 8.01138L7.70367 16.2145C7.57616 16.5119 7.71398 16.8564 8.0114 16.9839C8.30894 17.1114 8.65335 16.9735 8.78078 16.6761L12.2964 8.47302C12.4239 8.17556 12.2861 7.83111 11.9887 7.70365Z" fill="currentColor"/>
    <path d="M6.94201 9.63397C6.73982 9.38128 6.37103 9.34034 6.11845 9.54249L3.18876 11.8862C2.89583 12.1205 2.89564 12.5669 3.18876 12.8013L6.11845 15.1451C6.37115 15.3473 6.73994 15.3062 6.94201 15.0536C7.14416 14.8009 7.10322 14.4321 6.85048 14.23L4.49275 12.3438L6.85048 10.4576C7.10322 10.2554 7.14416 9.88671 6.94201 9.63397Z" fill="currentColor"/>
    <path d="M16.8114 11.8863L13.8817 9.54251C13.629 9.34032 13.2602 9.38129 13.0581 9.63399C12.856 9.88668 12.8969 10.2554 13.1496 10.4575L15.5074 12.3438L13.1496 14.23C12.8969 14.4321 12.856 14.8009 13.0581 15.0536C13.2605 15.3065 13.6293 15.347 13.8817 15.145L16.8114 12.8013C17.1043 12.567 17.1045 12.1207 16.8114 11.8863Z" fill="currentColor"/>
    <path d="M2.96875 3.55469C3.29235 3.55469 3.55469 3.29235 3.55469 2.96875C3.55469 2.64515 3.29235 2.38281 2.96875 2.38281C2.64515 2.38281 2.38281 2.64515 2.38281 2.96875C2.38281 3.29235 2.64515 3.55469 2.96875 3.55469Z" fill="currentColor"/>
    <path d="M5.3125 3.55469C5.6361 3.55469 5.89844 3.29235 5.89844 2.96875C5.89844 2.64515 5.6361 2.38281 5.3125 2.38281C4.9889 2.38281 4.72656 2.64515 4.72656 2.96875C4.72656 3.29235 4.9889 3.55469 5.3125 3.55469Z" fill="currentColor"/>
    <path d="M7.65625 3.55469C7.97985 3.55469 8.24219 3.29235 8.24219 2.96875C8.24219 2.64515 7.97985 2.38281 7.65625 2.38281C7.33265 2.38281 7.07031 2.64515 7.07031 2.96875C7.07031 3.29235 7.33265 3.55469 7.65625 3.55469Z" fill="currentColor"/>
    <path d="M13.5156 3.55469H17.0312C17.3548 3.55469 17.6172 3.29234 17.6172 2.96875C17.6172 2.64516 17.3548 2.38281 17.0312 2.38281H13.5156C13.192 2.38281 12.9297 2.64516 12.9297 2.96875C12.9297 3.29234 13.192 3.55469 13.5156 3.55469Z" fill="currentColor"/>
</svg>
