<svg width="60" height="61" viewBox="0 0 60 61" xmlns="http://www.w3.org/2000/svg">
    <path d="M55.1953 31.7109C57.8842 31.4375 60 28.8389 60 25.6822V6.84812C60 3.51005 57.6343 0.794312 54.7266 0.794312H37.2656C34.3579 0.794312 31.9922 3.51005 31.9922 6.84812V14.7853H10.0781C7.17035 14.7853 4.80469 17.5011 4.80469 20.8392V45.0544C4.80469 45.7618 4.91191 46.4407 5.10703 47.0723H3.16406C1.41938 47.0723 0 48.7018 0 50.7046C0 56.2681 3.94277 60.7943 8.78906 60.7943H51.2109C56.0572 60.7943 60 56.2681 60 50.7046C60 48.7018 58.5806 47.0723 56.8359 47.0723H54.893C55.0881 46.4407 55.1953 45.7618 55.1953 45.0544V31.7109ZM35.5078 6.84812C35.5078 5.73543 36.2964 4.83019 37.2656 4.83019H54.7266C55.6958 4.83019 56.4844 5.73543 56.4844 6.84812V25.6822C56.4844 26.7949 55.6958 27.7001 54.7266 27.7001H38.4375C38.108 27.7001 37.7852 27.8064 37.5059 28.0069L33.9616 30.5499L35.4338 24.9167C35.4829 24.7287 35.5078 24.5333 35.5078 24.3369V6.84812ZM51.2109 56.7584H8.78906C5.99941 56.7584 3.70887 54.2588 3.52723 51.1082H56.4728C56.2911 54.2588 54.0006 56.7584 51.2109 56.7584ZM16.7578 31.8705C16.7578 30.6095 17.6515 29.5835 18.75 29.5835C19.8485 29.5835 20.7422 30.6095 20.7422 31.8705C20.7422 33.1316 19.8485 34.1575 18.75 34.1575C17.6515 34.1575 16.7578 33.1316 16.7578 31.8705ZM15.8203 40.4804C15.8203 39.2621 17.1893 38.1934 18.75 38.1934C19.587 38.1934 20.3933 38.4931 20.9624 39.0158C21.2304 39.2618 21.6797 39.7792 21.6797 40.4804V47.0723H15.8203V40.4804ZM25.1953 47.0723V40.4804C25.1953 38.7356 24.453 37.053 23.1586 35.8643C23.1295 35.8375 23.0992 35.8125 23.0696 35.7864C23.8126 34.7086 24.2578 33.3485 24.2578 31.8705C24.2578 28.3841 21.787 25.5477 18.75 25.5477C15.713 25.5477 13.2422 28.3841 13.2422 31.8705C13.2422 33.3502 13.6884 34.7115 14.4328 35.7899C13.1269 36.9478 12.3047 38.6216 12.3047 40.4804V47.0723H10.0781C9.10887 47.0723 8.32031 46.1671 8.32031 45.0544V20.8392C8.32031 19.7265 9.10887 18.8212 10.0781 18.8212H31.9922V24.0408L30.5943 29.3901C30.1697 31.0147 30.6543 32.7294 31.8288 33.7583C32.4615 34.3125 33.2084 34.5926 33.9587 34.5926C34.6014 34.5926 35.2467 34.387 35.8247 33.9723L38.9416 31.736H51.6797V45.0544C51.6797 46.1671 50.8911 47.0723 49.9219 47.0723H25.1953Z" fill="currentColor"/>
    <path d="M47.8125 19.0903H44.0625C43.0917 19.0903 42.3047 19.9936 42.3047 21.1078C42.3047 22.222 43.0917 23.1253 44.0625 23.1253H47.8125C48.7833 23.1253 49.5703 22.222 49.5703 21.1078C49.5703 19.9936 48.7833 19.0903 47.8125 19.0903Z" fill="currentColor"/>
    <path d="M41.25 13.4403H50.625C51.5958 13.4403 52.3828 12.5367 52.3828 11.4223C52.3828 10.3078 51.5958 9.4043 50.625 9.4043H41.25C40.2792 9.4043 39.4922 10.3078 39.4922 11.4223C39.4922 12.5367 40.2792 13.4403 41.25 13.4403Z" fill="currentColor"/>
</svg>
