<svg width="788" height="636" viewBox="0 0 788 636" fill="none" xmlns="http://www.w3.org/2000/svg">
<g opacity="0.07">
<path fill-rule="evenodd" clip-rule="evenodd" d="M437.501 284.409C466.886 353.154 382.991 379.119 349.135 398.273C318.047 415.726 287.172 477.872 260.768 474.68C193.269 466.379 258.426 382.311 211.368 332.509C134.925 251.208 222.014 182.251 277.59 182.251C333.378 182.464 403.432 204.598 437.501 284.409Z" stroke="#090761" stroke-width="2" stroke-miterlimit="10"/>
<path fill-rule="evenodd" clip-rule="evenodd" d="M402.581 288.028C414.293 313.78 406.414 332.722 390.657 346.982C374.474 361.667 350.2 370.819 336.36 378.055C312.511 390.825 288.876 438.073 268.86 434.881C218.608 426.58 266.518 364.434 231.171 326.55C173.892 264.829 239.263 212.686 281.423 212.26C323.371 211.835 375.752 228.435 402.581 288.028Z" stroke="#090761" stroke-width="0.8125" stroke-miterlimit="10"/>
<path fill-rule="evenodd" clip-rule="evenodd" d="M367.66 291.646C376.39 309.098 374.261 323.145 363.614 334.425C352.755 345.917 334.017 352.941 323.37 358.049C306.549 366.349 290.792 394.868 276.525 395.081C243.947 395.507 274.183 346.556 250.548 320.378C212.646 278.238 256.297 242.908 284.83 242.056C313.362 241.205 347.857 252.485 367.66 291.646Z" stroke="#090761" stroke-width="0.625" stroke-miterlimit="10"/>
<path fill-rule="evenodd" clip-rule="evenodd" d="M332.526 295.051C338.488 304.203 341.895 313.355 336.572 321.655C331.248 329.955 317.834 334.85 310.381 337.83C300.799 341.661 292.495 354.218 284.403 355.069C265.665 357.41 282.061 328.466 270.137 314.206C251.399 291.646 273.331 273.13 288.236 271.64C303.354 270.576 320.389 276.322 332.526 295.051Z" stroke="#090761" stroke-width="0.4375" stroke-miterlimit="10"/>
<path fill-rule="evenodd" clip-rule="evenodd" d="M309.529 309.31C309.529 314.631 301.864 317.824 297.605 317.824C293.346 317.824 289.727 313.567 289.727 308.246C289.727 302.926 293.134 298.669 297.605 298.669C301.864 298.669 309.529 303.99 309.529 309.31Z" stroke="#090761" stroke-width="0.5" stroke-miterlimit="10"/>
<path fill-rule="evenodd" clip-rule="evenodd" d="M443.464 560.238C427.494 589.183 401.09 610.678 369.576 620.469C322.306 635.154 253.529 646.008 194.546 613.871C93.1908 558.322 130.241 523.205 65.0838 453.184C-0.0733874 383.163 -15.4044 347.408 18.4518 251.421C52.3079 155.435 42.5131 208.43 90.8486 102.44C139.184 -3.76205 189.862 -10.1469 243.308 9.43345C307.187 32.8448 464.757 244.611 600.821 82.8598C669.385 1.34591 819.502 149.688 780.961 251.421C742.42 353.154 798.634 480.426 711.758 465.103C624.882 449.779 596.349 463.613 529.062 480.426C489.031 490.429 460.285 529.803 443.464 560.238Z" stroke="#090761" stroke-miterlimit="10"/>
<path fill-rule="evenodd" clip-rule="evenodd" d="M133.648 114.784C180.919 38.378 218.82 31.9931 263.962 48.5938C285.681 56.4685 313.788 86.6904 348.07 113.294C404.497 157.137 496.697 184.805 568.242 132.662C657.673 67.3229 733.264 187.572 704.731 273.13C692.381 310.375 705.37 324.847 701.963 358.262C697.704 402.317 681.734 439.988 639.787 444.884C568.242 453.397 543.755 457.866 496.697 472.551C492.864 473.828 488.818 475.105 484.772 476.169C451.981 486.173 427.707 518.31 412.376 543.424C398.109 567.048 375.751 584.713 349.348 593.226C310.381 605.57 255.019 613.658 207.322 588.118C127.473 545.126 151.534 515.969 100.004 460.42C73.6009 432.114 57.418 406.361 48.049 380.396C36.1248 346.769 36.1248 310.588 50.8171 260.573C66.787 206.301 71.8974 195.659 86.5897 173.951C96.8105 159.478 114.697 145.219 133.648 114.784Z" stroke="#090761" stroke-width="0.8594" stroke-miterlimit="10"/>
<path fill-rule="evenodd" clip-rule="evenodd" d="M176.447 127.128C219.459 80.5187 247.779 74.1337 284.616 87.542C303.567 94.3526 326.351 116.487 353.606 135.854C400.664 169.269 472.209 201.406 538.005 167.779C588.044 142.239 719.21 106.058 628.289 294.839C616.79 318.888 616.79 346.343 613.383 372.309C609.763 400.402 603.163 418.493 576.333 431.05C542.264 447.012 504.149 449.353 468.803 461.484C433.669 473.403 402.581 496.814 381.287 527.036C368.512 545.127 350.412 559.386 329.119 566.41C298.244 576.626 256.509 581.734 220.311 563.004C200.508 552.789 183.048 540.019 170.911 521.29C142.378 477.447 104.689 438.286 87.8674 387.845C76.369 353.367 73.175 316.122 83.1828 270.363C93.8294 222.476 100.004 202.045 117.252 178.208C130.667 160.117 155.793 149.688 176.447 127.128Z" stroke="#090761" stroke-width="0.7188" stroke-miterlimit="10"/>
<path fill-rule="evenodd" clip-rule="evenodd" d="M201.999 140.75C231.597 126.064 265.666 120.531 298.457 128.831C344.025 140.324 380.01 175.654 424.726 189.488C455.814 199.278 491.374 198.852 517.139 218.858C538.006 235.034 548.014 261.637 551.421 287.603C555.254 316.76 551.634 346.769 541.2 374.224C532.257 397.636 517.352 420.196 494.781 431.476C475.404 441.266 452.407 441.479 431.966 449.141C389.379 465.103 364.253 509.797 324.435 532.144C209.665 596.632 126.195 425.091 116.826 336.979C111.077 283.346 117.252 214.815 156.219 174.377C169.42 160.756 184.965 149.263 201.999 140.75Z" stroke="#090761" stroke-width="0.5781" stroke-miterlimit="10"/>
<path fill-rule="evenodd" clip-rule="evenodd" d="M357.865 461.484C344.238 472.552 331.888 485.321 317.834 495.963C303.568 506.817 286.959 515.33 269.073 515.969C251.612 516.607 234.578 509.371 220.737 498.73C188.585 473.403 174.744 431.688 164.949 391.889C157.284 361.454 150.896 330.594 149.618 299.095C147.489 245.888 161.755 179.91 217.33 158.627C279.932 134.79 355.523 171.184 408.33 203.534C431.54 217.794 454.111 234.182 470.506 256.103C486.902 277.812 496.697 305.693 492.438 332.722C487.328 364.221 463.905 389.761 438.141 408.49C412.376 427.219 383.204 441.266 358.504 461.272C358.291 461.059 358.078 461.272 357.865 461.484Z" stroke="#090761" stroke-width="0.4375" stroke-miterlimit="10"/>
</g>
</svg>
