<?xml version="1.0" encoding="utf-8"?>
<!-- Generator: Adobe Illustrator 21.1.0, SVG Export Plug-In . SVG Version: 6.00 Build 0)  -->
<svg version="1.1" id="Layer_1" xmlns="http://www.w3.org/2000/svg" xmlns:xlink="http://www.w3.org/1999/xlink" x="0px" y="0px"
	 viewBox="0 0 1920 960" style="enable-background:new 0 0 1920 960;" xml:space="preserve">
<style type="text/css">
	.st0{display:none;fill:#2F2D51;}
	.st1{display:none;}
	.st2{opacity:0.3;}
	.st3{fill:none;stroke:#D5F2E8;stroke-width:15;stroke-miterlimit:10;}
	.st4{fill:none;stroke:#D5F2E8;stroke-width:20;stroke-miterlimit:10;}
	.st5{fill:none;stroke:#3C4973;stroke-width:2;stroke-miterlimit:10;}
	.st6{fill:#FFCE83;}
	.st7{fill:none;stroke:#3C4973;stroke-width:2;stroke-linecap:round;stroke-linejoin:round;stroke-miterlimit:10;}
	.st8{fill:none;stroke:#FFCE83;stroke-width:2;stroke-miterlimit:10;}
	.st9{fill:#D5F2E8;}
</style>
<path class="st0" d="M0,0h1920v730.6c0,25.8-19.6,47.3-45.2,49.8L54.8,954.8C25.4,957.6,0,934.5,0,905V0z"/>
<path class="st1" d="M0,911.7v48.8l1920-0.4V738.1c0,0-5.4,24.4-21.1,33.3c-18,10.1-52.1,11.7-52.1,11.7L73.2,953.3
	c0,0-36.5,1.7-49.8-6C3.6,935.9,0,911.7,0,911.7z"/>
<g class="st2">
	<path class="st3" d="M664,265c7-7,7-18.3,0-25.3c-7-7-18.3-7-25.3,0c-7,7-7,18.3,0,25.3C645.7,272,657,272,664,265z"/>
	<path class="st4" d="M887.8,762.6c22.5,0,40.8-18.3,40.8-40.8S910.3,681,887.8,681c-22.5,0-40.8,18.3-40.8,40.8
		S865.3,762.6,887.8,762.6z"/>
	<path class="st5" d="M1612,644c6.8,0,6.8,4,13.4,4c6.8,0,6.8-4,13.5-4c6.8,0,6.8,4,13.4,4c6.8,0,6.8-4,13.5-4c6.8,0,6.8,4,13.5,4
		c6.8,0,6.8-4,13.4-4c6.8,0,6.8,4,13.5,4c6.8,0,6.8-4,13.5-4c6.8,0,6.8,4,13.4,4c6.8,0,6.8-4,13.5-4c6.8,0,6.8,4,13.4,4
		c6.8,0,6.8-4,13.4-4c6.8,0,6.8,4,13.5,4c6.8,0,6.8-4,13.4-4c6.8,0,6.8,4,13.5,4c6.8,0,6.8-4,13.5-4c6.8,0,6.8,4,13.4,4
		c6.8,0,6.8-4,13.5-4"/>
	<path class="st5" d="M1612,661.5c6.8,0,6.8,4,13.4,4c6.8,0,6.8-4,13.5-4c6.8,0,6.8,4,13.4,4c6.8,0,6.8-4,13.5-4c6.8,0,6.8,4,13.5,4
		c6.8,0,6.8-4,13.4-4c6.8,0,6.8,4,13.5,4c6.8,0,6.8-4,13.5-4c6.8,0,6.8,4,13.4,4c6.8,0,6.8-4,13.5-4c6.8,0,6.8,4,13.4,4
		c6.8,0,6.8-4,13.4-4c6.8,0,6.8,4,13.5,4c6.8,0,6.8-4,13.4-4c6.8,0,6.8,4,13.5,4c6.8,0,6.8-4,13.5-4c6.8,0,6.8,4,13.4,4
		c6.8,0,6.8-4,13.5-4"/>
	<path class="st5" d="M1612,678.9c6.8,0,6.8,4,13.4,4c6.8,0,6.8-4,13.5-4c6.8,0,6.8,4,13.4,4c6.8,0,6.8-4,13.5-4c6.8,0,6.8,4,13.5,4
		c6.8,0,6.8-4,13.4-4c6.8,0,6.8,4,13.5,4c6.8,0,6.8-4,13.5-4c6.8,0,6.8,4,13.4,4c6.8,0,6.8-4,13.5-4c6.8,0,6.8,4,13.4,4
		c6.8,0,6.8-4,13.4-4c6.8,0,6.8,4,13.5,4c6.8,0,6.8-4,13.4-4c6.8,0,6.8,4,13.5,4c6.8,0,6.8-4,13.5-4c6.8,0,6.8,4,13.4,4
		c6.8,0,6.8-4,13.5-4"/>
	<path class="st5" d="M1612,696.3c6.8,0,6.8,4,13.4,4c6.8,0,6.8-4,13.5-4c6.8,0,6.8,4,13.4,4c6.8,0,6.8-4,13.5-4c6.8,0,6.8,4,13.5,4
		c6.8,0,6.8-4,13.4-4c6.8,0,6.8,4,13.5,4c6.8,0,6.8-4,13.5-4c6.8,0,6.8,4,13.4,4c6.8,0,6.8-4,13.5-4c6.8,0,6.8,4,13.4,4
		c6.8,0,6.8-4,13.4-4c6.8,0,6.8,4,13.5,4c6.8,0,6.8-4,13.4-4c6.8,0,6.8,4,13.5,4c6.8,0,6.8-4,13.5-4c6.8,0,6.8,4,13.4,4
		c6.8,0,6.8-4,13.5-4"/>
	<path class="st5" d="M335.9,297.7c-2.6-6.7,0.7-14.2,7.4-16.8c6.7-2.6,14.2,0.7,16.8,7.4c2.6,6.7-0.7,14.2-7.4,16.8"/>
	<path class="st5" d="M113.2,859c5.1-5.1,5.1-13.3,0-18.3c-5.1-5.1-13.3-5.1-18.3,0c-5.1,5.1-5.1,13.3,0,18.3
		C99.9,864,108.1,864,113.2,859z"/>
	<path class="st6" d="M928.3,286.9l64-87.2v-0.1h-0.1l-7.5-18l-19.5-1.8l-63.9,87.2l7.5,17.9l19.5,1.9V286.9z"/>
	<path class="st7" d="M900.5,283.1l-7.5-18l63.9-87.1l7.6,17.9l-51.7,70.4"/>
	<path class="st7" d="M900.5,283.1l19.6,1.9l63.9-87.2l-19.5-1.9l-51.7,70.4"/>
	<path class="st7" d="M920,285.2l-7.2-18.8l-19.8-1.2l63.9-87.1l19.5,1.8l7.5,18.1L920,285.2z"/>
	<path class="st8" d="M1816,365.9c37.7-11.3,59.1-50.9,47.9-88.6c-11.3-37.7-50.9-59.1-88.6-47.9c-37.7,11.3-59.1,50.9-47.9,88.6
		C1738.6,355.7,1778.3,377.1,1816,365.9z"/>
	<path class="st8" d="M1858.6,303.1c3-34.8-22.8-65.6-57.6-68.6c-34.8-3-65.5,22.8-68.6,57.6s22.8,65.6,57.6,68.6
		C1824.9,363.7,1855.6,337.9,1858.6,303.1z"/>
	<path class="st8" d="M1850.6,305.4c4.3-30.4-16.8-58.5-47.2-62.8c-30.4-4.3-58.5,16.8-62.8,47.2c-4.3,30.4,16.8,58.5,47.2,62.8
		C1818.2,356.9,1846.3,335.8,1850.6,305.4z"/>
	<path class="st8" d="M1795.6,345.4c26.4,0,47.7-21.4,47.7-47.8c0-26.4-21.4-47.8-47.7-47.8s-47.8,21.4-47.8,47.8
		C1747.8,324,1769.2,345.4,1795.6,345.4z"/>
	<path class="st8" d="M1800,337.3c21.9-2.4,37.7-22.1,35.2-44c-2.4-21.9-22.1-37.7-44-35.2c-21.9,2.4-37.6,22.1-35.2,44
		C1758.4,323.9,1778.1,339.7,1800,337.3z"/>
	<path class="st8" d="M1821.6,316.4c10.4-14.4,7.1-34.4-7.2-44.8c-14.3-10.4-34.4-7.2-44.8,7.2c-10.4,14.4-7.1,34.4,7.2,44.8
		C1791.1,334,1811.2,330.8,1821.6,316.4z"/>
	<path class="st8" d="M1816.6,309.5c6.6-11.6,2.6-26.4-9-33c-11.6-6.6-26.4-2.6-33,9.1c-6.6,11.6-2.5,26.4,9.1,33
		C1795.2,325.2,1810,321.2,1816.6,309.5z"/>
	<path class="st8" d="M1801.4,313c8.5-3.2,12.7-12.7,9.5-21.1c-3.2-8.5-12.7-12.7-21.1-9.5c-8.5,3.2-12.7,12.7-9.5,21.1
		C1783.5,311.9,1792.9,316.2,1801.4,313z"/>
	<path class="st8" d="M1787.9,301.6c-2.1-4.2-0.5-9.4,3.6-11.5c4.2-2.1,9.4-0.5,11.5,3.6c2.1,4.2,0.5,9.4-3.7,11.5
		C1795.3,307.4,1790.1,305.8,1787.9,301.6z"/>
	<path class="st9" d="M86.6,183.1L75,194.6l36.7,36.7l11.6-11.6L86.6,183.1z"/>
	<path class="st9" d="M75,219.7l11.6,11.6l36.7-36.7L111.7,183L75,219.7z"/>
	<path class="st6" d="M200.1,572.6l-32.1-5.6l-10.3-30.6l40.9-48.3l42.4,36.1L200.1,572.6z"/>
	<path class="st7" d="M164.3,554.8L154,524.3l40.9-48.3l10.3,30.6L164.3,554.8z"/>
	<path class="st7" d="M164.3,554.8l32.2,5.5l40.9-48.4l-32.2-5.4L164.3,554.8z"/>
	<path class="st7" d="M196.4,560.4L154,524.3l40.9-48.3l42.4,36.1L196.4,560.4z"/>
	<path class="st6" d="M1354.9,560.7c17.6,0,31.9-14.3,31.9-31.9c0-17.6-14.3-31.9-31.9-31.9c-17.6,0-31.9,14.3-31.9,31.9
		C1323,546.5,1337.3,560.7,1354.9,560.7z"/>
</g>
</svg>
