<svg width="1810" height="692" viewBox="0 0 1810 692" fill="none" xmlns="http://www.w3.org/2000/svg">
    <g opacity="0.3">
        <path d="M588.98 87.9907C595.972 80.9968 595.972 69.6574 588.98 62.6636C581.988 55.6697 570.652 55.6697 563.66 62.6636C556.668 69.6575 556.668 80.9968 563.66 87.9907C570.652 94.9846 581.988 94.9846 588.98 87.9907Z" stroke="#D5F2E8" stroke-width="15" stroke-miterlimit="10"/>
        <path d="M812.765 585.552C835.279 585.552 853.53 567.296 853.53 544.776C853.53 522.256 835.279 504 812.765 504C790.251 504 772 522.256 772 544.776C772 567.296 790.251 585.552 812.765 585.552Z" stroke="#D5F2E8" stroke-width="20" stroke-miterlimit="10"/>
        <path d="M1537 467C1543.78 467 1543.78 471.047 1550.45 471.047C1557.23 471.047 1557.23 467 1563.91 467C1570.68 467 1570.68 471.047 1577.36 471.047C1584.14 471.047 1584.14 467 1590.81 467C1597.59 467 1597.59 471.047 1604.27 471.047C1611.04 471.047 1611.04 467 1617.72 467C1624.5 467 1624.5 471.047 1631.17 471.047C1637.95 471.047 1637.95 467 1644.63 467C1651.41 467 1651.41 471.047 1658.08 471.047C1664.86 471.047 1664.86 467 1671.54 467C1678.31 467 1678.31 471.047 1684.99 471.047C1691.77 471.047 1691.77 467 1698.44 467C1705.22 467 1705.22 471.047 1711.9 471.047C1718.67 471.047 1718.67 467 1725.35 467C1732.13 467 1732.13 471.047 1738.8 471.047C1745.58 471.047 1745.58 467 1752.26 467C1759.03 467 1759.03 471.047 1765.71 471.047C1772.49 471.047 1772.49 467 1779.16 467" stroke="#3C4973" stroke-width="2" stroke-miterlimit="10"/>
        <path d="M1537 484.504C1543.78 484.504 1543.78 488.552 1550.45 488.552C1557.23 488.552 1557.23 484.504 1563.91 484.504C1570.68 484.504 1570.68 488.552 1577.36 488.552C1584.14 488.552 1584.14 484.504 1590.81 484.504C1597.59 484.504 1597.59 488.552 1604.27 488.552C1611.04 488.552 1611.04 484.504 1617.72 484.504C1624.5 484.504 1624.5 488.552 1631.17 488.552C1637.95 488.552 1637.95 484.504 1644.63 484.504C1651.41 484.504 1651.41 488.552 1658.08 488.552C1664.86 488.552 1664.86 484.504 1671.54 484.504C1678.31 484.504 1678.31 488.552 1684.99 488.552C1691.77 488.552 1691.77 484.504 1698.44 484.504C1705.22 484.504 1705.22 488.552 1711.9 488.552C1718.67 488.552 1718.67 484.504 1725.35 484.504C1732.13 484.504 1732.13 488.552 1738.8 488.552C1745.58 488.552 1745.58 484.504 1752.26 484.504C1759.03 484.504 1759.03 488.552 1765.71 488.552C1772.49 488.552 1772.49 484.504 1779.16 484.504" stroke="#3C4973" stroke-width="2" stroke-miterlimit="10"/>
        <path d="M1537 501.908C1543.78 501.908 1543.78 505.955 1550.45 505.955C1557.23 505.955 1557.23 501.908 1563.91 501.908C1570.68 501.908 1570.68 505.955 1577.36 505.955C1584.14 505.955 1584.14 501.908 1590.81 501.908C1597.59 501.908 1597.59 505.955 1604.27 505.955C1611.04 505.955 1611.04 501.908 1617.72 501.908C1624.5 501.908 1624.5 505.955 1631.17 505.955C1637.95 505.955 1637.95 501.908 1644.63 501.908C1651.41 501.908 1651.41 505.955 1658.08 505.955C1664.86 505.955 1664.86 501.908 1671.54 501.908C1678.31 501.908 1678.31 505.955 1684.99 505.955C1691.77 505.955 1691.77 501.908 1698.44 501.908C1705.22 501.908 1705.22 505.955 1711.9 505.955C1718.67 505.955 1718.67 501.908 1725.35 501.908C1732.13 501.908 1732.13 505.955 1738.8 505.955C1745.58 505.955 1745.58 501.908 1752.26 501.908C1759.03 501.908 1759.03 505.955 1765.71 505.955C1772.49 505.955 1772.49 501.908 1779.16 501.908" stroke="#3C4973" stroke-width="2" stroke-miterlimit="10"/>
        <path d="M1537 519.311C1543.78 519.311 1543.78 523.358 1550.45 523.358C1557.23 523.358 1557.23 519.311 1563.91 519.311C1570.68 519.311 1570.68 523.358 1577.36 523.358C1584.14 523.358 1584.14 519.311 1590.81 519.311C1597.59 519.311 1597.59 523.358 1604.27 523.358C1611.04 523.358 1611.04 519.311 1617.72 519.311C1624.5 519.311 1624.5 523.358 1631.17 523.358C1637.95 523.358 1637.95 519.311 1644.63 519.311C1651.41 519.311 1651.41 523.358 1658.08 523.358C1664.86 523.358 1664.86 519.311 1671.54 519.311C1678.31 519.311 1678.31 523.358 1684.99 523.358C1691.77 523.358 1691.77 519.311 1698.44 519.311C1705.22 519.311 1705.22 523.358 1711.9 523.358C1718.67 523.358 1718.67 519.311 1725.35 519.311C1732.13 519.311 1732.13 523.358 1738.8 523.358C1745.58 523.358 1745.58 519.311 1752.26 519.311C1759.03 519.311 1759.03 523.358 1765.71 523.358C1772.49 523.358 1772.49 519.311 1779.16 519.311" stroke="#3C4973" stroke-width="2" stroke-miterlimit="10"/>
        <path d="M260.9 120.696C258.27 114.018 261.608 106.531 268.284 103.9C274.96 101.269 282.445 104.608 285.076 111.286C287.706 117.964 284.367 125.452 277.691 128.082" stroke="#3C4973" stroke-width="2" stroke-miterlimit="10"/>
        <path d="M38.1692 681.961C43.2255 676.903 43.2255 668.703 38.1691 663.646C33.1128 658.588 24.9148 658.588 19.8585 663.646C14.8021 668.703 14.8021 676.903 19.8585 681.961C24.9148 687.019 33.1128 687.019 38.1692 681.961Z" stroke="#3C4973" stroke-width="2" stroke-miterlimit="10"/>
        <path d="M853.303 109.871L917.334 22.6529V22.5517H917.233L909.747 4.54137L890.224 2.72009L826.295 89.9387L833.78 107.848L853.303 109.77V109.871Z" fill="#FFCE83"/>
        <path d="M825.485 106.128L818 88.1174L881.929 1L889.516 18.9092L837.826 89.3316" stroke="#3C4973" stroke-width="2" stroke-miterlimit="10" stroke-linecap="round" stroke-linejoin="round"/>
        <path d="M825.486 106.128L845.11 108.05L909.04 20.8316L889.517 18.9092L837.827 89.3316" stroke="#3C4973" stroke-width="2" stroke-miterlimit="10" stroke-linecap="round" stroke-linejoin="round"/>
        <path d="M845.008 108.151L837.826 89.3316L818 88.1174L881.929 1L901.452 2.82127L908.938 20.9328L845.008 108.151Z" stroke="#3C4973" stroke-width="2" stroke-miterlimit="10" stroke-linecap="round" stroke-linejoin="round"/>
        <path d="M1740.98 188.888C1778.67 177.633 1800.1 137.95 1788.85 100.254C1777.59 62.5585 1737.92 41.1241 1700.24 52.3794C1662.55 63.6347 1641.12 103.317 1652.37 141.013C1663.63 178.709 1703.3 200.143 1740.98 188.888Z" stroke="#FFCE83" stroke-width="2" stroke-miterlimit="10"/>
        <path d="M1783.64 126.093C1786.67 91.2443 1760.88 60.5368 1726.04 57.5059C1691.2 54.475 1660.5 80.2683 1657.47 115.117C1654.44 149.966 1680.23 180.673 1715.07 183.704C1749.91 186.735 1780.61 160.942 1783.64 126.093Z" stroke="#FFCE83" stroke-width="2" stroke-miterlimit="10"/>
        <path d="M1775.58 128.392C1779.88 98.0166 1758.75 69.901 1728.39 65.5937C1698.02 61.2864 1669.91 82.4185 1665.61 112.793C1661.3 143.169 1682.43 171.284 1712.79 175.591C1743.16 179.899 1771.27 158.767 1775.58 128.392Z" stroke="#FFCE83" stroke-width="2" stroke-miterlimit="10"/>
        <path d="M1720.6 168.414C1746.97 168.414 1768.35 147.032 1768.35 120.656C1768.35 94.2806 1746.97 72.8987 1720.6 72.8987C1694.23 72.8987 1672.86 94.2806 1672.86 120.656C1672.86 147.032 1694.23 168.414 1720.6 168.414Z" stroke="#FFCE83" stroke-width="2" stroke-miterlimit="10"/>
        <path d="M1724.96 160.279C1746.84 157.855 1762.61 138.15 1760.19 116.267C1757.76 94.3843 1738.06 78.6099 1716.19 81.0339C1694.31 83.458 1678.54 103.163 1680.96 125.046C1683.39 146.928 1703.09 162.703 1724.96 160.279Z" stroke="#FFCE83" stroke-width="2" stroke-miterlimit="10"/>
        <path d="M1746.55 139.416C1756.93 125.06 1753.7 105.01 1739.35 94.633C1725 84.256 1704.95 87.4812 1694.58 101.837C1684.2 116.193 1687.43 136.242 1701.78 146.62C1716.13 156.997 1736.18 153.771 1746.55 139.416Z" stroke="#FFCE83" stroke-width="2" stroke-miterlimit="10"/>
        <path d="M1741.59 132.544C1748.19 120.937 1744.14 106.172 1732.54 99.5664C1720.93 92.9607 1706.17 97.0153 1699.57 108.623C1692.96 120.23 1697.02 134.995 1708.62 141.6C1720.22 148.206 1734.99 144.151 1741.59 132.544Z" stroke="#FFCE83" stroke-width="2" stroke-miterlimit="10"/>
        <path d="M1726.39 135.951C1734.86 132.749 1739.13 123.288 1735.92 114.821C1732.72 106.354 1723.26 102.087 1714.8 105.29C1706.33 108.492 1702.07 117.953 1705.27 126.42C1708.47 134.887 1717.93 139.154 1726.39 135.951Z" stroke="#FFCE83" stroke-width="2" stroke-miterlimit="10"/>
        <path d="M1712.91 124.603C1710.79 120.353 1712.41 115.193 1716.55 113.068C1720.8 110.943 1725.96 112.562 1728.09 116.71C1730.21 120.96 1728.59 126.12 1724.44 128.245C1720.3 130.37 1715.14 128.751 1712.91 124.603Z" stroke="#FFCE83" stroke-width="2" stroke-miterlimit="10"/>
        <path d="M11.5912 6.05255L0.00390625 17.6429L36.6968 54.3458L48.2841 42.7554L11.5912 6.05255Z" fill="#D5F2E8"/>
        <path d="M0.000655789 42.7029L11.5879 54.2933L48.2808 17.5904L36.6935 6.00001L0.000655789 42.7029Z" fill="#D5F2E8"/>
        <path d="M125.126 395.628L93.0599 390.063L82.7422 359.507L123.608 311.243L165.992 347.365L125.126 395.628Z" fill="#FFCE83"/>
        <path d="M89.3177 377.821L79 347.264L119.866 299L130.184 329.557L89.3177 377.821Z" stroke="#3C4973" stroke-width="2" stroke-miterlimit="10" stroke-linecap="round" stroke-linejoin="round"/>
        <path d="M89.3184 377.821L121.485 383.284L162.352 334.92L130.185 329.557L89.3184 377.821Z" stroke="#3C4973" stroke-width="2" stroke-miterlimit="10" stroke-linecap="round" stroke-linejoin="round"/>
        <path d="M121.384 383.386L79 347.264L119.866 299L162.25 335.122L121.384 383.386Z" stroke="#3C4973" stroke-width="2" stroke-miterlimit="10" stroke-linecap="round" stroke-linejoin="round"/>
        <path d="M1279.86 383.744C1297.46 383.744 1311.73 369.475 1311.73 351.872C1311.73 334.27 1297.46 320 1279.86 320C1262.27 320 1248 334.27 1248 351.872C1248 369.475 1262.27 383.744 1279.86 383.744Z" fill="#FFCE83"/>
    </g>
</svg>
