<svg width="1753" height="686" viewBox="0 0 1753 686" fill="none" xmlns="http://www.w3.org/2000/svg">
    <g opacity="0.2">
        <g clip-path="url(#clip0)">
            <path d="M1715.9 309.3C1725.1 292.4 1726.4 271.8 1715.1 254.6C1714.7 254 1713.9 253.7 1713.3 254.1C1697.2 265 1682.6 281.6 1681.5 300.8C1678.7 300.6 1674.3 300.8 1672.7 303.4C1671.7 305.1 1672.1 307.6 1672.1 309.5C1672.1 312.4 1672.1 315.3 1672.1 318.2C1672.1 320.3 1671.2 324.8 1674.5 324.9C1677.7 324.9 1682.1 319.8 1684 317.5C1684.3 318.3 1684.6 319 1685 319.7C1683.2 321.6 1681.8 323.7 1680.5 326C1680.1 326.6 1680.5 327.5 1681.2 327.7C1681.6 327.8 1682 327.9 1682.3 328C1678.9 330.8 1677 334.9 1677.1 339.4C1677.2 346.4 1682.8 349.4 1685.4 355.3C1685.8 356.2 1687.2 356.1 1687.7 355.3C1690.6 350.1 1697.1 348.6 1700 343.5C1702 339.9 1702.1 335.9 1700.7 332.2C1700.8 332.2 1700.9 332.2 1701 332.3C1701.7 332.4 1702.4 332 1702.4 331.2C1702.4 329.5 1702.5 327.9 1702.4 326.2C1702.7 326.2 1703 326.1 1703.3 325.8C1704.4 324.8 1705.4 323.8 1706.3 322.7C1706.3 326.3 1706.7 329.9 1707.5 333.5C1707.7 334.4 1708.9 334.6 1709.5 334C1712.3 331.3 1714.9 328.5 1717.4 325.6C1718.9 323.8 1721.1 321.7 1721.7 319.5C1722.8 315.6 1719.1 311.6 1715.9 309.3ZM1682.5 315.7C1680.9 317.3 1678 321.2 1675.8 321.6C1674.2 322 1674.9 322.3 1674.6 320.5C1674.3 319.1 1674.6 317.2 1674.6 315.7C1674.6 313.2 1674.2 310.2 1674.6 307.8C1675 305.3 1675.9 304 1678.3 303C1679.3 302.6 1680.4 302.5 1681.4 302.2C1681.3 306.4 1681.9 310.8 1683.3 315.2C1683 315.3 1682.7 315.4 1682.5 315.7ZM1713.6 257.2C1717 262.8 1719.1 268.7 1720 274.6C1719.8 274.6 1719.7 274.6 1719.5 274.6C1711.6 276.8 1704.5 274.9 1697.7 270.7C1702.4 265.6 1707.9 261.1 1713.6 257.2ZM1692.2 347.3C1690.1 348.7 1688.2 350.1 1686.7 352C1684.5 348.6 1681.1 346 1680.1 342C1678.9 337 1680.8 331.9 1684.5 328.5C1685 328.6 1685.6 328.8 1686.1 328.9C1683.4 330.5 1682 333.6 1682.2 336.8C1682.4 340.5 1685 343.4 1687.5 346C1688 346.5 1688.9 346.4 1689.3 345.8C1692.3 341.3 1700.2 338.2 1697.7 331.5C1697.8 331.5 1697.8 331.5 1697.9 331.5C1697.9 331.6 1697.9 331.6 1698 331.7C1701 338.3 1697.7 343.5 1692.2 347.3ZM1695.6 332C1697.4 336.9 1691.4 340.1 1688.2 343.5C1686.7 341.8 1685.1 340.1 1684.5 337.9C1683.7 334.8 1685 332 1686.9 329.6C1687 329.5 1687 329.3 1687 329.2C1689.9 329.9 1692.8 330.6 1695.7 331.1C1695.5 331.3 1695.4 331.6 1695.6 332ZM1700.2 329.6C1694.5 328.6 1688.8 327.3 1683.2 325.7C1684.2 324.1 1685.1 322.4 1686 320.8C1689.4 324.5 1695.5 325.7 1700.3 326.2C1700.3 327.4 1700.2 328.5 1700.2 329.6ZM1701.5 323.7C1701.4 323.8 1701.3 323.9 1701.3 324C1694.9 323.1 1689.2 322.3 1685.4 316.7C1683 304.5 1683.9 292 1690.1 281.1C1691.9 278 1694 275.1 1696.3 272.4C1702.7 278.3 1712 279.8 1720.2 277.5H1720.3C1721.9 294.3 1714.3 311.6 1701.5 323.7ZM1716.6 322.4C1714.4 325.2 1712 327.9 1709.5 330.4C1709 327.5 1708.7 324.5 1708.6 321.5C1708.6 321 1708.3 320.7 1708 320.5C1710.6 317.5 1712.9 314.2 1714.9 310.8C1718 314.6 1720.4 317.6 1716.6 322.4Z" fill="white"/>
            <path d="M1708.7 282.2C1708.2 282.1 1707.8 282.2 1707.5 282.5C1697.7 278.2 1688.1 294.3 1699.7 298.3C1704.8 300 1711 298.4 1713.4 293.3C1715.5 289 1713.4 283.5 1708.7 282.2ZM1711 292.4C1709.2 295.9 1705.1 296.9 1701.6 296C1700 295.6 1697.9 294.5 1697.3 292.8C1696.6 290.8 1697.9 288.2 1699.2 286.8C1701.5 284.3 1705 283.9 1708.1 284.7C1711 286.1 1712.6 289.2 1711 292.4Z" fill="white"/>
        </g>
        <g clip-path="url(#clip1)">
            <path d="M299.099 672C299.099 671.9 298.999 671.9 298.999 671.9C299.299 671.5 299.399 671.1 299.099 670.6C292.399 661.4 285.299 652.5 278.399 643.5C273.399 637 267.999 630.8 259.599 628.7C252.799 627 245.199 628.4 240.399 633.6C235.999 638.5 234.499 645.5 237.699 651.3C237.799 651.5 237.999 651.6 238.199 651.7C239.399 655.4 241.399 658.7 245.799 659.5C249.799 660.2 254.399 656.8 253.199 652.5C253.099 652.2 252.899 652 252.599 651.9C251.999 649.9 251.199 647.7 251.999 645.7C252.699 643.7 254.699 642.6 256.699 643.3C256.899 643.4 257.099 643.3 257.199 643.2C257.699 643.6 258.299 644.1 258.799 644.6C258.899 644.7 258.899 644.8 258.999 644.9C259.099 645.1 259.299 645.2 259.499 645.2C269.099 653.7 276.799 664.8 285.599 674.1C288.299 677 292.099 680.9 296.599 679.5C299.799 678.3 301.099 674.7 299.099 672ZM244.699 633.7C244.699 633.8 244.599 633.8 244.599 633.9C243.999 637.8 247.199 642 250.499 644C249.699 645.3 249.599 646.8 249.799 648.3C245.899 648.4 242.599 647.3 238.799 645.8C238.699 645.8 238.599 645.7 238.499 645.8C238.499 641 240.799 636.5 244.699 633.7ZM242.299 655.5C241.099 654.3 240.099 652.8 239.299 651.1C239.299 651 239.399 650.8 239.299 650.6C238.999 649.7 238.799 648.8 238.699 647.8C241.899 650.2 246.299 650.7 250.199 649.8C250.499 650.8 250.999 651.9 251.499 652.8C251.399 658.2 245.599 658.6 242.299 655.5ZM257.599 641.5C257.299 641.3 256.899 641.2 256.599 641C256.299 640.9 255.999 641 255.799 641.1C254.299 640.8 252.799 641.4 251.599 642.4C250.199 641.3 248.899 640 247.899 638.5C246.999 637 246.699 635.3 245.999 633.7C245.899 633.4 245.599 633.3 245.199 633.4C245.699 633.1 246.199 632.8 246.799 632.5C250.399 630.8 254.299 630.6 258.099 631.4C256.399 634.1 256.599 638.2 257.599 641.5ZM268.099 650.3C265.599 647.5 262.899 644.8 259.799 642.8C259.499 641 258.999 639.1 258.999 637.2C258.999 635.2 259.599 633.7 260.399 632C263.399 633 266.199 634.7 268.499 636.7C268.999 637.1 269.399 637.5 269.799 638C267.999 641.6 267.399 646.2 268.099 650.3ZM279.499 663.4C277.699 661.4 275.999 659.4 274.199 657.4C273.099 656.2 271.999 654.9 270.899 653.6V653.5C269.799 648.5 270.099 644.2 271.299 639.5C274.999 643.4 278.099 647.9 281.399 652.1C279.699 655.4 279.199 659.5 279.499 663.4ZM282.999 667.2C282.599 666.8 282.199 666.3 281.799 665.9C281.299 661.7 281.899 657.9 282.899 653.9C285.799 657.6 288.599 661.2 291.499 664.9C289.699 667.6 288.899 670.9 289.099 674.2C288.699 673.8 288.299 673.4 287.999 673C286.299 671.1 284.599 669.1 282.999 667.2ZM291.499 676.6C291.499 676.5 291.499 676.5 291.499 676.4C290.799 672.9 291.299 669.7 292.699 666.5C294.199 668.4 295.699 670.2 297.199 672C297.299 672.1 297.299 672.1 297.399 672.2C297.299 672.4 297.299 672.7 297.499 673C295.799 677.1 293.899 678.3 291.499 676.6Z" fill="white"/>
        </g>
        <g clip-path="url(#clip2)">
            <path d="M1667.9 604C1667 602.3 1664.5 601.2 1662.8 602.3C1662.6 602.4 1662.5 602.6 1662.5 602.7C1661.2 603.3 1660.4 604.9 1660.8 606.4C1661.4 608.5 1663.8 610 1665.9 609.1C1667.8 608.3 1668.8 605.9 1667.9 604ZM1665.9 607.3C1664.9 608.1 1663.4 607.7 1662.8 606.7C1662 605.5 1662.7 603.8 1664.2 603.6C1664.3 603.6 1664.5 603.5 1664.5 603.4C1665.2 603.4 1665.8 603.6 1666.3 604.2C1667.1 605.2 1666.8 606.6 1665.9 607.3Z" fill="white"/>
            <path d="M1722.1 609.3C1721.2 605 1717.6 601.5 1713.4 601.5C1720.3 590 1715.9 573.2 1702.9 568.4C1690.8 563.9 1677.5 570.8 1672.7 582.2C1668.7 579 1662.7 579 1658 581C1651.1 583.8 1646.6 590.5 1643.1 596.7C1642.6 597.5 1643.5 598.2 1644.2 597.8C1644.1 598.2 1644.2 598.8 1644.8 599C1647.9 600.2 1651 601.3 1654.2 602.3C1654 602.7 1653.9 603 1653.8 603.4C1651.9 609.2 1657.2 615 1662.7 615.9C1666.6 616.5 1670.5 614.7 1672.8 611.7C1674.2 613.3 1676.5 614.2 1678.4 615.1C1680.4 616.1 1682.4 616.9 1684.4 617.7C1684.2 618.6 1684.1 619.6 1684.2 620.6C1684.8 626.6 1690.7 630.4 1696.4 629.2C1698.8 628.7 1701 627.5 1702.6 625.8C1705.9 626.7 1708.9 628.1 1711.9 629.7C1712.7 630.1 1713.4 629.7 1713.7 629C1714.3 629.5 1715.4 629.6 1715.9 628.8C1719.2 623.1 1723.6 616.2 1722.1 609.3ZM1663.7 613.7C1659.3 613.3 1655 609.2 1656.1 604.6C1657.1 600.6 1661.4 598 1665.5 597.7C1665.6 597.8 1665.7 597.8 1665.8 597.9C1669.4 599 1672.7 601.8 1672.6 605.9C1672.5 610.5 1668.1 614.1 1663.7 613.7ZM1693.4 626.9C1689.6 626.5 1686.4 623.1 1686.7 619.2C1687 615 1690.6 612.6 1694.3 611.8C1694.5 611.8 1694.6 611.7 1694.7 611.6C1698.8 610.8 1702.9 615.7 1703.1 619.5C1703.1 624.2 1697.6 627.4 1693.4 626.9ZM1718.6 617.1C1717.3 620.8 1715 624.1 1713.5 627.7C1713.4 627.6 1713.3 627.6 1713.2 627.5C1710.4 625.9 1707.3 624.7 1704.1 623.9C1705.4 621.7 1705.8 618.9 1704.6 616.1C1703 612 1696.3 606 1692.1 610.3C1692 610.4 1692 610.5 1692 610.5C1689 611 1686.5 613 1685.2 615.7C1683 614.9 1680.8 614 1678.6 613C1676.9 612.2 1675.2 611.1 1673.4 610.7C1674 609.6 1674.5 608.5 1674.7 607.2C1675.6 601.7 1671.6 596.1 1666 595.5C1665.6 595.5 1665.4 595.6 1665.2 595.8C1661.5 595.6 1657.7 597.4 1655.4 600.3C1652.1 599.1 1648.7 598.2 1645.3 597.3C1645.1 597.2 1644.9 597.3 1644.8 597.3C1651.3 588.4 1660.9 576.2 1672.7 585C1673.6 585.7 1674.6 584.4 1674 583.5C1679.6 574.5 1688.8 567.2 1700.1 570.3C1713.9 574 1716.7 590.2 1710.3 601.4C1710 601.9 1710.1 602.3 1710.3 602.7C1710.1 603.3 1710.4 604 1711.1 603.9C1719 603 1720.6 611.1 1718.6 617.1Z" fill="white"/>
            <path d="M1698.3 619C1698 617 1695.8 615.1 1693.8 615.9C1693.4 616.1 1693.2 616.4 1693.3 616.8C1692 617 1691 618.3 1691.2 619.8C1691.4 621.9 1693.3 623.2 1695.3 622.8C1697.1 622.4 1698.6 620.9 1698.3 619ZM1695.3 620.9C1694.5 621.1 1693.6 620.9 1693.2 620.2C1692.6 619.1 1693.5 617.6 1694.8 617.8C1695 617.8 1695.1 617.7 1695.1 617.6C1695.7 617.8 1696.3 618.2 1696.5 619C1696.8 619.9 1696.2 620.7 1695.3 620.9Z" fill="white"/>
            <path d="M1696.8 574.1C1688.8 574 1681 578.1 1678.8 586.4C1678.7 586.9 1678.8 587.2 1679 587.5C1679 587.7 1679 588 1679.3 588.1C1682.7 590.2 1686.3 591.6 1690.1 592.9C1690.8 593.1 1691.3 592.6 1691.6 592.1C1693.7 586.8 1695.7 581.4 1697.9 576.1C1698.3 575.1 1697.9 574.1 1696.8 574.1ZM1689.6 590.2C1686.6 589.4 1683.8 588.4 1680.9 587.3C1681 587.2 1681 587.1 1681.1 586.9C1683 581.2 1688.6 576.1 1695 576.4C1693 580.9 1691.1 585.5 1689.6 590.2Z" fill="white"/>
            <path d="M1702.5 576.4C1702.3 575.9 1701.6 575.7 1701.4 576.3C1700.1 579.2 1699.1 582.3 1698.1 585.3C1697.3 587.6 1695.4 591.1 1695.5 593.5C1695.6 594.8 1695.9 595 1696.9 595.7C1699.7 597.3 1703.8 598 1706.8 599C1707.5 599.2 1708 598.8 1708.2 598.2C1708.4 598.1 1708.5 598 1708.6 597.8C1712.9 590.7 1708.8 580.7 1702.5 576.4ZM1697.9 593.5C1697.6 593 1698.9 590.3 1699 589.7C1700.1 586 1701.3 582.3 1702.1 578.5C1707.5 583.5 1708.1 589.7 1706.7 596.6C1704.8 596 1702.9 595.4 1701 594.7C1700.4 594.4 1698.3 594 1697.9 593.5Z" fill="white"/>
        </g>
        <g clip-path="url(#clip3)">
            <path d="M1344.4 59.8001C1348.5 56.0001 1348.4 49.1001 1343.8 45.4001C1342.9 44.7001 1341.9 44.1001 1341 43.7001C1341 43.6001 1341 43.5001 1341 43.4001C1340 20.4001 1322.2 1.50006 1299 0.100062C1288 -0.599938 1277 3.00006 1268.5 10.1001C1260.8 16.5001 1253.8 26.6001 1253.5 36.9001V37.0001C1250.5 37.3001 1247.6 38.4001 1246.2 41.3001C1245.5 42.8001 1245.2 44.6001 1245.6 46.2001C1241.3 44.4001 1235.6 44.4001 1234.2 50.0001C1233 54.6001 1237.3 57.0001 1241.4 57.4001C1236.4 61.0001 1233.2 69.1001 1238.6 73.2001C1243.5 76.9001 1253.3 74.7001 1255.8 68.8001C1256.7 73.0001 1261.3 76.1001 1265.7 74.7001C1269.1 73.6001 1271.5 69.9001 1271.4 66.3001C1277.1 68.9001 1284.4 63.3001 1284.2 56.9001C1284.1 53.1001 1282.2 50.1001 1279.6 48.1001C1281.3 41.2001 1285.7 35.4001 1293 34.1001C1301 32.6001 1311.2 38.2001 1309.5 47.4001C1309.5 47.5001 1309.5 47.6001 1309.5 47.7001C1307.2 51.1001 1308.6 55.5001 1311.4 58.8001C1306.4 58.4001 1301.7 63.3001 1302.8 68.6001C1303.4 71.5001 1305.6 73.8001 1308.6 74.3001C1310.4 74.6001 1312.6 74.2001 1314 73.1001C1315.4 77.2001 1319.6 80.2001 1324 79.8001C1327.9 79.5001 1331.4 76.4001 1332.5 72.7001C1336.5 76.6001 1343.4 76.3001 1347.3 72.0001C1351.6 67.3001 1349.1 62.2001 1344.4 59.8001ZM1269.3 13.0001C1277.3 5.90006 1287.7 2.40006 1298.3 2.80006C1320.1 3.70006 1337.1 21.5001 1338 43.1001C1334.7 42.9001 1331.4 44.6001 1329.1 47.3001C1331.2 30.6001 1318.9 14.3001 1302 11.7001C1286.3 9.30006 1260.1 20.7001 1263.6 40.2001C1263.8 41.3001 1265.6 41.0001 1265.6 39.9001C1265.5 21.9001 1287 11.6001 1302.8 14.7001C1318.5 17.8001 1329 33.6001 1326 49.1001C1324.7 47.3001 1323.1 45.8001 1321.2 44.9001C1321.2 44.7001 1321.3 44.6001 1321.2 44.3001C1319.6 31.0001 1308.6 20.6001 1294.9 20.9001C1282 21.2001 1269.6 31.9001 1270.2 45.4001C1270.2 45.5001 1270.2 45.5001 1270.2 45.5001C1268.6 45.6001 1266.9 46.1001 1265.4 46.8001C1266.7 41.3001 1260.6 37.1001 1255.2 36.9001C1258.5 27.8001 1261.8 19.6001 1269.3 13.0001ZM1281.1 55.6001C1282.5 62.1001 1276.1 66.4001 1270.7 63.7001C1270.5 63.4001 1270.4 63.1001 1270.2 62.8001C1269.6 61.9001 1267.8 62.4001 1268.3 63.6001C1269.5 66.9001 1268.9 71.1001 1265.3 72.5001C1261.4 74.0001 1257.3 70.6001 1256.6 66.8001C1256.6 66.6001 1256.4 66.5001 1256.2 66.5001C1255.9 66.1001 1255.3 66.0001 1254.9 66.4001C1251.3 70.1001 1247.6 74.5001 1241.8 71.8001C1233.8 68.3001 1242.2 60.4001 1245.6 57.1001C1246.4 56.7001 1246.1 55.5001 1245.2 55.4001C1242.3 55.1001 1235 55.1001 1236.6 50.1001C1238 45.7001 1243.3 46.6001 1246.6 48.1001C1246.7 48.3001 1246.8 48.4001 1247 48.6001C1247.7 49.4001 1249.1 48.6001 1248.7 47.6001C1246.9 42.7001 1249.6 39.3001 1255 39.4001C1259.9 39.5001 1264.8 43.0001 1263 48.4001C1262.7 49.3001 1264.1 49.9001 1264.6 49.1001C1264.7 49.0001 1264.7 48.9001 1264.8 48.8001C1265 49.0001 1265.4 49.2001 1265.8 49.1001C1271.8 47.2001 1279.5 48.2001 1281.1 55.6001ZM1296.4 31.4001C1287.2 31.2001 1279.1 38.0001 1277.8 47.0001C1275.9 46.0001 1273.7 45.4001 1271.5 45.4001C1274 33.9001 1281.3 24.1001 1294 23.4001C1306.4 22.9001 1316.6 32.0001 1318.3 44.0001C1316.4 43.7001 1314.4 44.0001 1312.5 45.1001C1312.3 37.1001 1304.3 31.6001 1296.4 31.4001ZM1345 70.8001C1341.4 74.3001 1336.5 73.5001 1333 70.5001C1333 70.3001 1333 70.1001 1333 69.9001C1332.9 68.7001 1330.9 68.2001 1330.7 69.6001C1330.2 73.2001 1328.4 76.5001 1324.6 77.3001C1320.4 78.2001 1316.8 74.9001 1315.7 71.2001C1315.6 70.8001 1315.3 70.6001 1315 70.5001C1314.8 70.4001 1314.6 70.4001 1314.4 70.5001C1312.7 71.5001 1311.4 72.6001 1309.2 72.2001C1306.9 71.8001 1305.4 70.0001 1305.1 67.8001C1304.6 62.6001 1309.5 60.2001 1314 61.3001C1314.9 61.5001 1315.4 60.3001 1314.6 59.8001C1314.5 59.8001 1314.5 59.7001 1314.4 59.7001C1311.9 55.8001 1308.1 50.6001 1313.7 47.3001C1318.8 44.2001 1323.4 48.4001 1325.7 52.8001C1326.2 53.8001 1328 53.1001 1327.6 52.0001C1327.5 51.8001 1327.4 51.6001 1327.3 51.4001C1327.7 51.7001 1328.3 51.7001 1328.6 51.2001C1330.8 46.5001 1336.5 43.7001 1341.3 46.6001C1346 49.5001 1345.8 55.7001 1341.5 58.6001C1341 58.6001 1340.7 58.8001 1340.5 59.2001C1339.4 60.1001 1340.6 61.9001 1342 61.2001H1342.1C1343.3 61.9001 1344.5 62.6001 1345.5 63.6001C1347.8 65.9001 1347 68.8001 1345 70.8001Z" fill="white"/>
        </g>
        <g clip-path="url(#clip4)">
            <path d="M1336.6 676C1336.5 675.7 1336.4 675.4 1336.1 675.3C1336.2 675 1336.2 674.6 1336 674.2C1330.4 665.3 1324.8 656.4 1319.2 647.5C1314 639.2 1309.3 630 1303 622.5C1302.9 622.4 1302.8 622.3 1302.7 622.3C1302.7 622.2 1302.6 622.2 1302.6 622.1C1298.1 617.1 1292.7 612.9 1287.1 609.2C1286.3 608.6 1285.3 609.4 1285.2 610.3C1284.7 616.9 1284.7 624.8 1287.8 630.8C1287.9 630.9 1288 630.9 1288 631C1287.9 631.3 1287.9 631.6 1288.1 631.9C1298.6 645.4 1307.6 659.5 1316.4 674C1316.4 674.1 1316.5 674.2 1316.6 674.3C1318.5 677.4 1320.4 680.5 1322.2 683.6L1322.3 683.7C1322.3 683.8 1322.4 683.8 1322.5 683.9C1322.5 683.9 1322.5 683.9 1322.6 684C1328.3 687.5 1337.7 683.3 1336.6 676ZM1287.7 612.6C1292.3 615.7 1296.5 619.3 1300.6 623.1C1297.3 626.3 1293.6 628 1289.3 629.7C1288.9 623.9 1287.8 618.4 1287.7 612.6ZM1289.8 631.3C1294.5 630.7 1299 628.1 1302.3 624.9C1303 626.4 1303.9 628 1304.7 629.5C1302 633 1298.6 635.4 1294 635.7C1292.6 634.2 1291.3 632.7 1289.8 631.3ZM1295.2 637C1299.4 636.8 1303.5 634.8 1305.9 631.4C1306.5 632.4 1307.1 633.4 1307.7 634.3C1305.1 637.5 1301.6 639.4 1297.5 639.7C1296.8 638.8 1296 637.9 1295.2 637ZM1302.5 646.3C1305.3 644.9 1308.6 644.5 1311.2 646.8C1313.1 648.5 1314.5 651.3 1315.8 653.5C1318 657.4 1325.4 669.7 1318.2 672C1313.4 663.2 1308.3 654.4 1302.5 646.3ZM1319.3 674.2C1327.8 671.5 1321.7 659.2 1318.8 653.9C1314.7 646.4 1309.3 639.8 1301.6 645C1300.6 643.6 1299.6 642.3 1298.5 640.9C1302.5 640.9 1306.2 639.2 1308.9 636.1C1311.8 640.6 1314.8 645 1317.6 649.5C1321.7 656.1 1325.9 662.7 1330 669.3C1328.8 670.8 1327.7 672.3 1325.9 673.3C1324 674.4 1322 674.8 1319.9 675.2C1319.6 674.9 1319.5 674.6 1319.3 674.2ZM1321.5 678.4C1321.2 677.8 1320.9 677.3 1320.6 676.7C1324.5 677.1 1329.1 674.8 1331.2 671.4C1331.5 671.8 1331.8 672.3 1332 672.7C1329.7 676.6 1326.2 679.1 1321.5 678.4ZM1334.3 676.3C1334.4 679 1332.7 681.2 1330.1 682.2C1328 683 1325.9 682.7 1323.7 682.8C1323.2 681.9 1322.8 681 1322.3 680.1C1326.5 680.7 1331.4 678.7 1333.3 674.9C1333.4 675.1 1333.6 675.3 1333.7 675.6C1333.8 675.8 1334 676 1334.2 676.1C1334.3 676 1334.3 676.1 1334.3 676.3Z" fill="white"/>
        </g>
        <g clip-path="url(#clip5)">
            <path d="M1751.1 34.5C1747.6 34.2 1743.9 34.5 1740.3 34.7C1739.3 31 1737.3 27.7 1734.6 25.1C1737.8 23.1 1741 20.8 1743.8 18.4C1744.7 17.7 1743.5 16.2 1742.6 16.8C1739.4 18.9 1736.2 21.5 1733.3 24.1C1730 21.6 1725.9 20.1 1721.2 20.6C1721 20.6 1720.9 20.6 1720.7 20.5C1720.7 19.2 1720.6 17.9 1720.6 16.6C1720.6 15.1 1720.7 13.6 1720.6 12.1C1720.5 11 1718.8 10.5 1718.5 11.8C1717.8 14.4 1718 17.6 1718.6 20.4C1713.6 20.4 1708.9 22.7 1705.1 26.1C1704.1 23.5 1702 20.9 1699.8 19.2C1698.7 18.3 1697.2 19.7 1698.2 20.8C1699.3 21.9 1700.4 22.9 1701.5 24.1C1702.4 25.1 1703.2 26.1 1704.1 27C1701.1 30 1698.8 33.8 1697.5 37.7C1694.2 36.4 1690.6 35.1 1687.2 34.6C1686.2 34.4 1685.2 36 1686.4 36.5C1689.7 37.9 1693.5 38.7 1697 39.4C1696.8 40.2 1696.6 41 1696.5 41.9C1696 45.5 1696.4 48.7 1697.6 51.5C1697.6 51.5 1697.6 51.5 1697.5 51.5C1694 52.8 1690.3 54.8 1686.8 56.6C1685.8 57.1 1686.7 58.5 1687.7 58.1C1691.3 56.6 1695.1 55.1 1698.5 53.2C1698.6 53.2 1698.6 53.1 1698.6 53.1C1701.2 57.7 1706 60.9 1711.7 62C1711.2 63.4 1710.8 64.8 1710.3 66.2C1709.8 67.8 1709 69.3 1708.7 70.9C1708.5 72 1709.8 72.5 1710.4 71.6C1712.1 69.1 1713 65.3 1713.6 62.3C1714.4 62.4 1715.3 62.4 1716.1 62.5C1720.5 62.5 1724.9 61.4 1728.7 59.4C1729.8 62.6 1731.1 65.8 1732.5 68.8C1733.1 70 1735.1 69.1 1734.6 67.9C1733.3 64.7 1731.8 61.6 1730.1 58.5C1733.6 56.4 1736.5 53.4 1738.4 49.8C1741.2 51.8 1744.5 53.7 1747.8 54.7C1749 55.1 1749.9 53.2 1748.7 52.6C1745.4 51.2 1742.3 49.8 1739.2 48.2C1740 46.5 1740.5 44.7 1740.8 42.7C1741.1 40.6 1741.1 38.5 1740.7 36.4C1744.1 36.6 1747.7 36.9 1751.1 36.6C1752.4 36.5 1752.4 34.6 1751.1 34.5ZM1738.4 41.2C1737.3 52.1 1727.4 59.4 1716.9 59.7C1705.4 60 1697 51.9 1699.7 40.2C1702.1 29.6 1710.5 24 1720.5 22.5C1720.7 22.6 1720.9 22.7 1721.1 22.7C1731.3 22.7 1739.4 30.9 1738.4 41.2Z" fill="white"/>
        </g>
        <g clip-path="url(#clip6)">
            <path d="M561.599 48.9C559.999 45.4 556.399 46.3 553.899 48.2C554.799 45.5 554.899 42.5 551.999 40.8C549.499 39.3 547.399 40.7 546.099 42.8C545.799 42.2 545.399 41.7 544.899 41.2C543.199 39.7 540.899 39.6 538.999 40.8C535.899 42.7 534.999 47.6 536.799 50.7C528.099 50.7 519.799 58.4 517.699 66.6C517.099 69 516.999 71.4 517.299 73.7C516.999 73.9 517.099 74.2999 517.399 74.5C517.899 76.9 518.799 79.2 520.199 81.2C516.499 81.2999 512.899 84.2999 512.099 87.7999C511.099 91.8999 515.299 91.8999 518.799 90.7999C517.999 91.7999 517.399 93 517.299 94.4C517.099 96.4 517.799 98.5999 519.699 99.5999C523.199 101.4 526.099 98.7999 527.599 95.7C528.399 97.1 529.999 98 531.799 97.5999C536.099 96.5 536.299 91.0999 534.699 87.5999C542.999 86.6999 549.499 80.0999 552.099 72.0999C553.499 67.9999 554.499 63 552.899 59C552.999 59 553.099 58.9 553.299 58.9C556.399 56.9 564.099 54.2 561.599 48.9ZM533.099 93.9C531.499 96.6 527.699 95 529.099 92C529.199 91.7 529.099 91.2999 528.899 91.0999C528.699 90.3999 527.399 90.1 526.999 90.9C525.899 93.3 525.099 98.1999 521.399 97.5999C519.399 97.2999 518.999 95.0999 519.499 93.5C519.999 91.7 521.499 90.4 522.699 89C523.099 88.5999 522.799 87.8999 522.299 87.7999C522.099 87.5999 521.799 87.3999 521.399 87.5999C519.999 88.0999 518.499 88.7999 516.999 89C516.199 89.0999 514.599 89.5 514.299 88.2999C514.199 87.8999 514.799 87 514.999 86.5999C516.399 84.0999 518.899 83 521.599 82.7C522.799 84 524.299 85.1 525.999 85.9C524.799 87.6 523.699 89.3999 522.999 91.2999C522.899 91.7 523.399 91.9 523.599 91.7C525.099 90.2999 526.599 88.3999 527.599 86.5999C528.499 86.8999 529.399 87.0999 530.399 87.2999C531.099 87.3999 531.799 87.5 532.499 87.5C532.999 89.5999 534.299 91.7 533.099 93.9ZM532.499 84.9C525.999 84.8 521.399 80.2999 519.999 74.5999C527.399 75 535.499 75.7 538.399 83.7L538.499 83.7999C536.699 84.5999 534.699 85 532.499 84.9ZM540.299 83C537.599 74.2999 527.899 72.6 519.799 73.4C519.599 71.8 519.599 70.2 519.799 68.5C519.899 68.6 520.099 68.6 520.299 68.6C530.099 66.3 539.199 70.2 544.299 79C544.499 79.2999 544.699 79.4 544.899 79.5C543.599 80.9 541.999 82.0999 540.299 83ZM546.199 77.9C541.999 68.4 529.799 63.3 520.099 67.2C520.199 67 520.199 66.8 520.199 66.6C520.899 64.3 522.099 62.1999 523.599 60.2999C523.699 60.5 523.999 60.6 524.299 60.5C534.699 58.2999 544.399 61.9999 548.599 72.0999C548.699 72.3999 548.899 72.6 549.099 72.7C548.399 74.5 547.399 76.3 546.199 77.9ZM550.199 69.6C545.399 60.4 534.799 55.2999 524.799 58.7999C528.399 54.9999 533.399 52.4 538.399 52.4C538.399 52.4 538.399 52.4 538.499 52.4C538.499 52.9 538.699 53.3 539.299 53.5C542.799 54.5 546.899 55 549.299 58.2C551.799 61.4 551.299 65.9 550.199 69.6ZM552.099 57.2999C550.799 55.2999 548.899 54 546.799 53C547.499 51.7 547.999 50.4 548.499 49.1C548.799 48.3 547.499 47.8 547.099 48.5C546.499 49.7 545.799 51.0999 545.299 52.4C543.799 51.9 542.199 51.5 540.799 51.3C540.699 51.2 540.599 51.1 540.499 51.1C540.199 51 539.899 51 539.599 50.9C538.499 48.7 537.599 46.5 539.099 44.2C540.899 41.2 545.099 42.1 544.699 45.8C544.699 45.9 544.699 46.1 544.799 46.2C544.699 46.9 545.799 47.4 546.099 46.7C546.899 45 548.899 41.3 551.199 43.1C553.799 45.0999 551.599 48.7 550.399 50.8C549.699 52 551.499 53 552.199 51.8C552.199 51.7 552.299 51.7 552.299 51.6C553.699 50.6 554.899 49.0999 556.599 48.7C558.399 48.3 560.299 49.2 559.799 51.4C558.999 54.7 554.399 55.4 552.099 57.2999Z" fill="white"/>
        </g>
        <g clip-path="url(#clip7)">
            <path d="M272.2 48.7999C275.6 44.0999 274.3 36.5999 269.7 32.8999C263.2 27.5999 254.2 34.1999 249.3 39.5999C247.7 34.1999 242.8 29.9999 236.7 32.2999C232.3 33.9999 230.5 39.1999 232.5 42.9999C228.5 41.1999 223.5 41.9999 221.5 46.6999C219.2 52.2999 224.2 54.6999 228.8 55.3999C224.9 60.2999 225.3 68.0999 231.8 70.8999C237.7 73.3999 243.8 69.2999 244.4 63.5999C245.9 67.6999 249.8 70.7999 254.2 71.1999C259.8 71.6999 264.6 67.9999 266.4 62.9999C271.9 64.8999 280.7 65.5999 281.2 57.6999C281.6 52.5999 276.9 49.2999 272.2 48.7999ZM274.3 61.7999C271.5 62.4999 269 61.4999 266.4 60.2999C265.7 59.9999 264.8 60.1999 264.5 61.0999C263.2 65.8999 258.7 69.6999 253.4 68.6999C248.8 67.7999 246.4 63.7999 245.4 59.6999C245.2 58.7999 243.9 58.9999 243.8 59.8999C243.3 59.6999 242.4 60.0999 242.6 60.8999C244 66.9999 238.2 72.5999 232.1 68.9999C226.8 65.8999 227.3 58.9999 232 55.5999C232.9 54.8999 232.6 53.4999 231.4 53.4999C228.8 53.2999 220 52.5999 225.2 46.1999C227.6 43.3999 232.3 44.6999 234.8 46.2999C235.3 46.5999 235.9 46.0999 235.8 45.5999C236.1 45.2999 236.2 44.7999 235.9 44.3999C233 40.7999 233.6 35.3999 238.8 34.2999C243.9 33.1999 247.2 37.5999 247.6 42.0999C247.7 42.9999 248.8 43.6999 249.5 42.8999C252.7 39.0999 257.1 35.0999 262.1 33.8999C271 31.8999 273.9 43.5999 268.9 48.9999C268.8 48.9999 268.7 48.9999 268.6 49.0999C267 49.4999 267.7 51.8999 269.3 51.5999C270.7 51.2999 272.1 51.1999 273.5 51.6999C276.3 52.4999 277.1 53.8999 277.7 56.6999C278.4 59.8999 277.6 60.9999 274.3 61.7999Z" fill="white"/>
        </g>
        <path d="M127.5 303.6C125.3 302.4 122.6 303.5 120.9 305.1C118.8 307 117.8 309.7 117.2 312.4C115.8 311.6 114.3 310.8 113 310C111.2 308.9 109.4 307.6 107.6 306.5C111.8 302 115.2 296.7 117.5 290.6C117.7 290.1 117.4 289.3 116.9 289.1C105.9 284 95.6005 277.2 86.3005 269.5C96.6005 263 103.9 248.8 102.1 236.6C103.9 234.6 104.4 231.6 103 229.3C101.6 226.8 98.2004 225.8 95.5005 227C93.0005 228.1 91.9005 231.1 92.8005 233.7C93.9005 236.8 96.9004 237.1 99.7004 236.8C99.7004 236.8 99.7005 236.9 99.8005 236.9C99.2005 243.4 98.6004 249.1 95.6004 255C92.9005 260.2 89.0005 264.3 84.7004 268.2C82.3004 266.1 79.9005 264 77.6004 261.7C77.5005 261.6 77.4005 261.5 77.3005 261.5C81.6005 255.6 83.5005 247.9 82.2004 240.8C80.3004 230.8 72.3004 222.6 62.7004 219.4C69.2004 216 69.5005 207.9 71.3005 201.4C71.6005 200.2 70.2005 199.6 69.4005 200.3C66.1004 202.9 61.0004 201.1 57.1004 201.8C53.9004 202.4 50.8004 203.9 48.5004 206.3C45.1004 210 44.2004 215.7 47.0004 219.9C40.6004 221.9 34.5004 226.4 30.4004 231.7C27.3004 226.4 19.5004 224.9 14.1004 227.7C11.0004 229.2 9.00045 231.9 8.70045 235.5C8.50045 238.5 9.30045 241.4 8.40045 244.4C7.30045 248 4.80045 250.6 1.50045 252.3C0.600448 252.7 0.900448 254.1 1.80045 254.3C10.2004 256.6 19.9004 254.5 25.3004 247.7C25.7004 254.8 29.1004 261.8 34.9004 266.1C41.4004 270.9 51.1004 272.8 59.8004 271.4C60.0004 273.9 60.4004 276.4 60.7004 278.9C55.9004 280.6 51.3004 281.9 46.1004 281.7C41.0004 281.5 36.9004 279.8 32.3004 278C33.3004 275.3 32.7004 272.5 30.3004 270.8C28.0004 269.1 24.5004 269.4 22.4004 271.5C20.6004 273.4 20.5004 276.7 22.2004 278.7C24.2004 281.1 27.8004 280.9 30.4004 279.6C38.2004 286.2 52.2004 286.5 60.9004 281.3C61.5004 285.8 62.1004 290.2 62.4004 294.7C62.9004 302.7 62.9004 310.8 62.3004 318.8C62.3004 319.4 62.8004 320 63.3004 320.1C71.2004 321.8 79.1005 321.4 86.3005 319.3C86.8005 323 87.4004 326.7 88.2004 330.3C88.1004 330.2 87.9004 330.2 87.7004 330.2C84.9004 330.5 70.5005 333.4 74.4005 338.7C75.9005 340.7 79.2004 340.2 81.2004 339.7C84.5005 338.9 87.6004 336.9 89.5005 334C90.3005 334.3 91.6005 333.6 91.3005 332.4C90.3005 327.8 89.2005 323.2 87.8005 318.7C94.6005 316.5 100.8 312.7 106 307.7C107.6 309.3 109.6 310.7 111.5 312C113.7 313.4 115.9 315 118.4 315.8C118.9 316 119.2 315.8 119.5 315.6C119.7 315.7 120 315.7 120.2 315.5C123 314.2 133.2 306.8 127.5 303.6ZM95.3005 233C94.7005 231.6 95.2004 229.8 96.7004 229.2C98.2004 228.5 100.3 229.1 101 230.7C101.7 232.1 101.4 233.8 100.4 235C98.5005 235 96.1005 235.1 95.3005 233ZM30.7004 277.5C30.3004 277.5 30.0004 277.9 29.9004 278.2C28.2004 278.4 26.2004 279 24.8004 277.8C23.6004 276.8 23.4004 274.7 24.5004 273.5C25.5004 272.3 27.6004 272.1 28.9004 273C30.2004 273.9 30.9004 275.9 30.7004 277.5ZM88.7004 332C88.8004 332.3 88.8005 332.6 88.9005 332.9C88.8005 332.9 88.7004 333 88.6004 333C87.1004 334.2 85.5005 335.4 83.7004 336.2C82.2004 336.9 78.9005 338.2 77.3005 337.4C76.0005 336.7 77.8004 335.8 78.6004 335.3C79.5005 334.8 80.4005 334.3 81.3005 334C83.4005 333.1 85.6004 332.6 87.9005 332.4C88.3005 332.5 88.5005 332.3 88.7004 332ZM58.7004 204C62.1004 203.7 65.4005 204.4 68.4005 203.2C67.3005 208.9 66.6004 215.6 60.6004 217.8C60.2004 217.9 60.0004 218.2 59.9004 218.5C59.4004 218.4 59.0004 218.3 58.5004 218.2C59.0004 215.7 57.0004 212.9 54.4004 212.7C51.5004 212.4 48.6004 215.5 49.7004 218.4C49.8004 218.7 50.0004 218.8 50.2004 218.9C49.6004 219 49.1004 219.1 48.5004 219.3C45.5004 211.8 50.7004 204.8 58.7004 204ZM56.5004 218.1C56.0004 218 55.4004 218 54.9004 218C54.2004 218 53.8004 218.3 53.6004 218.7C52.7004 218.7 51.8004 218.8 50.9004 218.9C51.1004 218.8 51.2004 218.6 51.2004 218.3C51.2004 216.7 52.3004 214.6 54.3004 214.9C55.8004 215.1 56.6004 216.6 56.5004 218.1ZM5.00045 252.7C8.70045 250 11.0004 246 11.2004 241.2C11.3004 237.7 9.90045 234.5 12.7004 231.3C13.9004 229.9 15.9004 229 17.7004 228.6C22.3004 227.6 26.2004 229.7 29.4004 232.8C29.0004 233.3 28.7004 233.9 28.4004 234.4C28.3004 234.3 28.2004 234.3 28.1004 234.2C25.1004 233.1 21.5004 235.1 21.1004 238.4C20.8004 240.6 22.8004 243.7 25.1004 244.1C20.8004 251.2 12.9004 254.1 5.00045 252.7ZM26.8004 237.8C26.2004 239.3 25.8004 240.8 25.6004 242.4C25.1004 242.2 24.7004 242 24.2004 241.6C23.4004 240.8 22.8004 239.7 23.1004 238.5C23.5004 236.6 25.8004 235.6 27.5004 236.1C27.3004 236.7 27.0004 237.2 26.8004 237.8ZM27.8004 246C27.8004 242.5 28.7004 239.3 30.2004 236.5C29.8004 242.1 32.7004 248.2 37.9004 250.5C38.9004 251 39.7004 249.7 38.8004 249C33.3004 245.1 31.0004 239.6 32.4004 233.1C33.8004 231.4 35.4004 229.8 37.1004 228.3C39.9004 234.1 44.6004 240 50.0004 243C50.8004 243.5 51.7004 242.3 51.0004 241.7C48.6004 239.4 46.0004 237.4 43.8004 234.9C41.8004 232.6 40.1004 230 38.5004 227.4C40.2004 226.2 42.1004 225.1 44.0004 224.1C47.0004 224.5 49.6004 225.1 52.3004 226.7C54.8004 228.2 56.8004 230.2 59.1004 231.9C59.7004 232.3 60.6004 231.5 60.1004 230.9C57.2004 227.1 52.0004 223.4 46.8004 222.7C49.1004 221.7 51.5004 220.9 53.8004 220.3C54.0004 220.5 54.3004 220.7 54.7004 220.7C59.2004 221.3 63.6005 222.7 67.4005 225C62.6005 243.4 46.4004 250.6 30.1004 256.5C28.7004 253.6 27.8004 250 27.8004 246ZM54.4004 269.3C44.8004 269.3 35.6004 265.3 31.0004 257.8C48.1004 255.2 64.8004 243.5 69.5005 226.4C75.7004 230.7 80.0005 237.4 80.1004 245.7C80.3004 260.4 68.2004 269.3 54.4004 269.3ZM65.3005 317.7C66.4005 302.5 66.3004 285.7 61.6004 271.1C65.0004 270.4 68.2004 269.2 71.0005 267.4C72.7004 266.3 74.3004 265 75.6004 263.5L75.7004 263.6C87.3004 274.7 100.3 283.5 114.5 290.9C106.5 310.5 86.1004 321.6 65.3005 317.7ZM123.8 310.5C122.5 311.8 121.1 313 119.6 314L119.5 313.9C119.4 313.8 119.2 313.7 119.1 313.6C119.5 312 119.9 310.4 120.6 309C121.4 307.4 123.2 305.1 125.3 305.4C128.3 305.8 124.7 309.6 123.8 310.5Z" fill="white"/>
        <path d="M49.6004 259.1C49.0004 257.4 46.7004 256.9 45.4004 258.1C44.7004 258.7 44.5004 259.8 45.0004 260.5C45.0004 260.7 45.0004 261 45.0004 261.2C45.0004 262.1 45.7004 262.6 46.5004 262.7C48.4004 263.1 50.3004 261 49.6004 259.1Z" fill="white"/>
        <path d="M72.4013 239.6C71.2013 238.5 68.7013 238.4 68.0013 240.1C67.9013 240.3 67.9013 240.5 67.9013 240.7C67.7013 241.1 67.6013 241.5 67.7013 241.9C67.7013 243.9 69.9013 244.9 71.5013 244.1C73.2013 243.3 73.8013 241 72.4013 239.6Z" fill="white"/>
        <path d="M64.7002 255.5C64.7002 255 64.7002 254.6 64.2002 254.3C64.0002 254.1 63.7002 254 63.4002 253.9C62.1002 253.6 60.8002 254.3 60.5002 255.6C60.3002 256.2 61.1002 256.7 61.6002 256.2C61.9002 255.8 62.4002 255.6 62.9002 255.7C62.9002 256.5 62.9002 257.3 63.1002 258.1C63.3002 258.9 64.6002 259 64.8002 258.1C64.9002 257.2 64.8002 256.3 64.7002 255.5Z" fill="white"/>
        <path d="M68.0001 257.6C67.6001 260.2 65.3001 262.4 62.5001 261.7C61.9001 261.6 61.6001 262.4 62.2001 262.7C65.4001 263.9 69.7001 261.5 69.6001 257.8C69.7001 256.9 68.2001 256.6 68.0001 257.6Z" fill="white"/>
    </g>
    <defs>
        <clipPath id="clip0">
            <rect width="51.2" height="101.8" fill="white" transform="translate(1672 254)"/>
        </clipPath>
        <clipPath id="clip1">
            <rect width="64" height="51.6" fill="white" transform="translate(236 628)"/>
        </clipPath>
        <clipPath id="clip2">
            <rect width="79.4" height="62.9" fill="white" transform="translate(1643 567)"/>
        </clipPath>
        <clipPath id="clip3">
            <rect width="115.5" height="79.8" fill="white" transform="translate(1234)"/>
        </clipPath>
        <clipPath id="clip4">
            <rect width="51.7" height="76.3" fill="white" transform="translate(1285 609)"/>
        </clipPath>
        <clipPath id="clip5">
            <rect width="66.1" height="61" fill="white" transform="translate(1686 11)"/>
        </clipPath>
        <clipPath id="clip6">
            <rect width="50.1" height="60.1" fill="white" transform="translate(512 40)"/>
        </clipPath>
        <clipPath id="clip7">
            <rect width="60.3" height="40.8" fill="white" transform="translate(221 31)"/>
        </clipPath>
    </defs>
</svg>
