<svg width="1920" height="960" viewBox="0 0 1920 960" fill="none" xmlns="http://www.w3.org/2000/svg">
    <path d="M0 0H1920V730.563C1920 756.329 1900.42 777.877 1874.77 780.335L54.7698 954.751C25.4055 957.565 0 934.478 0 904.979V0Z" fill="#2F2D51"/>
    <g opacity="0.3">
        <path d="M663.98 264.991C670.972 257.997 670.972 246.657 663.98 239.664C656.988 232.67 645.652 232.67 638.66 239.664C631.668 246.657 631.668 257.997 638.66 264.991C645.652 271.985 656.988 271.985 663.98 264.991Z" stroke="#D5F2E8" stroke-width="15" stroke-miterlimit="10"/>
        <path d="M887.765 762.552C910.279 762.552 928.53 744.296 928.53 721.776C928.53 699.256 910.279 681 887.765 681C865.251 681 847 699.256 847 721.776C847 744.296 865.251 762.552 887.765 762.552Z" stroke="#D5F2E8" stroke-width="20" stroke-miterlimit="10"/>
        <path d="M1612 644C1618.78 644 1618.78 648.047 1625.45 648.047C1632.23 648.047 1632.23 644 1638.91 644C1645.68 644 1645.68 648.047 1652.36 648.047C1659.14 648.047 1659.14 644 1665.81 644C1672.59 644 1672.59 648.047 1679.27 648.047C1686.04 648.047 1686.04 644 1692.72 644C1699.5 644 1699.5 648.047 1706.17 648.047C1712.95 648.047 1712.95 644 1719.63 644C1726.41 644 1726.41 648.047 1733.08 648.047C1739.86 648.047 1739.86 644 1746.54 644C1753.31 644 1753.31 648.047 1759.99 648.047C1766.77 648.047 1766.77 644 1773.44 644C1780.22 644 1780.22 648.047 1786.9 648.047C1793.67 648.047 1793.67 644 1800.35 644C1807.13 644 1807.13 648.047 1813.8 648.047C1820.58 648.047 1820.58 644 1827.26 644C1834.03 644 1834.03 648.047 1840.71 648.047C1847.49 648.047 1847.49 644 1854.16 644" stroke="#3C4973" stroke-width="2" stroke-miterlimit="10"/>
        <path d="M1612 661.504C1618.78 661.504 1618.78 665.552 1625.45 665.552C1632.23 665.552 1632.23 661.504 1638.91 661.504C1645.68 661.504 1645.68 665.552 1652.36 665.552C1659.14 665.552 1659.14 661.504 1665.81 661.504C1672.59 661.504 1672.59 665.552 1679.27 665.552C1686.04 665.552 1686.04 661.504 1692.72 661.504C1699.5 661.504 1699.5 665.552 1706.17 665.552C1712.95 665.552 1712.95 661.504 1719.63 661.504C1726.41 661.504 1726.41 665.552 1733.08 665.552C1739.86 665.552 1739.86 661.504 1746.54 661.504C1753.31 661.504 1753.31 665.552 1759.99 665.552C1766.77 665.552 1766.77 661.504 1773.44 661.504C1780.22 661.504 1780.22 665.552 1786.9 665.552C1793.67 665.552 1793.67 661.504 1800.35 661.504C1807.13 661.504 1807.13 665.552 1813.8 665.552C1820.58 665.552 1820.58 661.504 1827.26 661.504C1834.03 661.504 1834.03 665.552 1840.71 665.552C1847.49 665.552 1847.49 661.504 1854.16 661.504" stroke="#3C4973" stroke-width="2" stroke-miterlimit="10"/>
        <path d="M1612 678.908C1618.78 678.908 1618.78 682.955 1625.45 682.955C1632.23 682.955 1632.23 678.908 1638.91 678.908C1645.68 678.908 1645.68 682.955 1652.36 682.955C1659.14 682.955 1659.14 678.908 1665.81 678.908C1672.59 678.908 1672.59 682.955 1679.27 682.955C1686.04 682.955 1686.04 678.908 1692.72 678.908C1699.5 678.908 1699.5 682.955 1706.17 682.955C1712.95 682.955 1712.95 678.908 1719.63 678.908C1726.41 678.908 1726.41 682.955 1733.08 682.955C1739.86 682.955 1739.86 678.908 1746.54 678.908C1753.31 678.908 1753.31 682.955 1759.99 682.955C1766.77 682.955 1766.77 678.908 1773.44 678.908C1780.22 678.908 1780.22 682.955 1786.9 682.955C1793.67 682.955 1793.67 678.908 1800.35 678.908C1807.13 678.908 1807.13 682.955 1813.8 682.955C1820.58 682.955 1820.58 678.908 1827.26 678.908C1834.03 678.908 1834.03 682.955 1840.71 682.955C1847.49 682.955 1847.49 678.908 1854.16 678.908" stroke="#3C4973" stroke-width="2" stroke-miterlimit="10"/>
        <path d="M1612 696.311C1618.78 696.311 1618.78 700.358 1625.45 700.358C1632.23 700.358 1632.23 696.311 1638.91 696.311C1645.68 696.311 1645.68 700.358 1652.36 700.358C1659.14 700.358 1659.14 696.311 1665.81 696.311C1672.59 696.311 1672.59 700.358 1679.27 700.358C1686.04 700.358 1686.04 696.311 1692.72 696.311C1699.5 696.311 1699.5 700.358 1706.17 700.358C1712.95 700.358 1712.95 696.311 1719.63 696.311C1726.41 696.311 1726.41 700.358 1733.08 700.358C1739.86 700.358 1739.86 696.311 1746.54 696.311C1753.31 696.311 1753.31 700.358 1759.99 700.358C1766.77 700.358 1766.77 696.311 1773.44 696.311C1780.22 696.311 1780.22 700.358 1786.9 700.358C1793.67 700.358 1793.67 696.311 1800.35 696.311C1807.13 696.311 1807.13 700.358 1813.8 700.358C1820.58 700.358 1820.58 696.311 1827.26 696.311C1834.03 696.311 1834.03 700.358 1840.71 700.358C1847.49 700.358 1847.49 696.311 1854.16 696.311" stroke="#3C4973" stroke-width="2" stroke-miterlimit="10"/>
        <path d="M335.9 297.696C333.27 291.018 336.608 283.531 343.284 280.9C349.96 278.269 357.445 281.608 360.076 288.286C362.706 294.964 359.367 302.452 352.691 305.082" stroke="#3C4973" stroke-width="2" stroke-miterlimit="10"/>
        <path d="M113.169 858.961C118.225 853.903 118.225 845.703 113.169 840.646C108.112 835.588 99.9143 835.588 94.858 840.646C89.8016 845.703 89.8016 853.903 94.858 858.961C99.9143 864.019 108.112 864.019 113.169 858.961Z" stroke="#3C4973" stroke-width="2" stroke-miterlimit="10"/>
        <path d="M928.303 286.871L992.333 199.653V199.552H992.232L984.747 181.541L965.224 179.72L901.294 266.939L908.78 284.848L928.303 286.77V286.871Z" fill="#FFCE83"/>
        <path d="M900.485 283.128L893 265.117L956.929 178L964.516 195.909L912.826 266.332" stroke="#3C4973" stroke-width="2" stroke-miterlimit="10" stroke-linecap="round" stroke-linejoin="round"/>
        <path d="M900.485 283.128L920.109 285.05L984.039 197.832L964.516 195.909L912.826 266.332" stroke="#3C4973" stroke-width="2" stroke-miterlimit="10" stroke-linecap="round" stroke-linejoin="round"/>
        <path d="M920.008 285.151L912.826 266.332L893 265.117L956.929 178L976.452 179.821L983.938 197.933L920.008 285.151Z" stroke="#3C4973" stroke-width="2" stroke-miterlimit="10" stroke-linecap="round" stroke-linejoin="round"/>
        <path d="M1815.98 365.888C1853.67 354.633 1875.1 314.95 1863.85 277.254C1852.59 239.558 1812.92 218.124 1775.24 229.379C1737.55 240.635 1716.12 280.317 1727.37 318.013C1738.63 355.709 1778.3 377.143 1815.98 365.888Z" stroke="#FFCE83" stroke-width="2" stroke-miterlimit="10"/>
        <path d="M1858.64 303.093C1861.67 268.244 1835.88 237.537 1801.04 234.506C1766.2 231.475 1735.5 257.268 1732.47 292.117C1729.44 326.966 1755.23 357.673 1790.07 360.704C1824.91 363.735 1855.61 337.942 1858.64 303.093Z" stroke="#FFCE83" stroke-width="2" stroke-miterlimit="10"/>
        <path d="M1850.58 305.392C1854.88 275.017 1833.75 246.901 1803.39 242.594C1773.02 238.286 1744.91 259.419 1740.61 289.794C1736.3 320.169 1757.43 348.284 1787.79 352.591C1818.16 356.899 1846.27 335.767 1850.58 305.392Z" stroke="#FFCE83" stroke-width="2" stroke-miterlimit="10"/>
        <path d="M1795.6 345.414C1821.97 345.414 1843.34 324.032 1843.34 297.656C1843.34 271.281 1821.97 249.899 1795.6 249.899C1769.23 249.899 1747.85 271.281 1747.85 297.656C1747.85 324.032 1769.23 345.414 1795.6 345.414Z" stroke="#FFCE83" stroke-width="2" stroke-miterlimit="10"/>
        <path d="M1799.96 337.279C1821.84 334.855 1837.61 315.15 1835.19 293.267C1832.76 271.384 1813.06 255.61 1791.19 258.034C1769.31 260.458 1753.54 280.163 1755.96 302.046C1758.39 323.928 1778.09 339.703 1799.96 337.279Z" stroke="#FFCE83" stroke-width="2" stroke-miterlimit="10"/>
        <path d="M1821.55 316.416C1831.93 302.06 1828.7 282.01 1814.35 271.633C1800 261.256 1779.95 264.481 1769.58 278.837C1759.21 293.193 1762.43 313.243 1776.78 323.62C1791.13 333.997 1811.18 330.771 1821.55 316.416Z" stroke="#FFCE83" stroke-width="2" stroke-miterlimit="10"/>
        <path d="M1816.59 309.544C1823.19 297.937 1819.14 283.172 1807.54 276.566C1795.93 269.961 1781.17 274.015 1774.57 285.623C1767.96 297.23 1772.02 311.995 1783.62 318.6C1795.22 325.206 1809.99 321.151 1816.59 309.544Z" stroke="#FFCE83" stroke-width="2" stroke-miterlimit="10"/>
        <path d="M1801.39 312.951C1809.86 309.749 1814.13 300.288 1810.92 291.821C1807.72 283.354 1798.26 279.087 1789.8 282.29C1781.33 285.492 1777.07 294.953 1780.27 303.42C1783.47 311.887 1792.93 316.154 1801.39 312.951Z" stroke="#FFCE83" stroke-width="2" stroke-miterlimit="10"/>
        <path d="M1787.91 301.603C1785.79 297.353 1787.41 292.193 1791.55 290.068C1795.8 287.943 1800.96 289.562 1803.09 293.71C1805.21 297.96 1803.59 303.12 1799.44 305.245C1795.3 307.37 1790.14 305.751 1787.91 301.603Z" stroke="#FFCE83" stroke-width="2" stroke-miterlimit="10"/>
        <path d="M86.5921 183.053L75.0049 194.643L111.698 231.346L123.285 219.755L86.5921 183.053Z" fill="#D5F2E8"/>
        <path d="M75.0002 219.703L86.5874 231.293L123.28 194.59L111.693 183L75.0002 219.703Z" fill="#D5F2E8"/>
        <path d="M200.126 572.628L168.06 567.063L157.743 536.507L198.609 488.243L240.993 524.365L200.126 572.628Z" fill="#FFCE83"/>
        <path d="M164.318 554.821L154 524.264L194.866 476L205.184 506.557L164.318 554.821Z" stroke="#3C4973" stroke-width="2" stroke-miterlimit="10" stroke-linecap="round" stroke-linejoin="round"/>
        <path d="M164.318 554.821L196.485 560.284L237.351 511.919L205.184 506.557L164.318 554.821Z" stroke="#3C4973" stroke-width="2" stroke-miterlimit="10" stroke-linecap="round" stroke-linejoin="round"/>
        <path d="M196.384 560.386L154 524.264L194.866 476L237.25 512.122L196.384 560.386Z" stroke="#3C4973" stroke-width="2" stroke-miterlimit="10" stroke-linecap="round" stroke-linejoin="round"/>
        <path d="M1354.86 560.744C1372.46 560.744 1386.73 546.475 1386.73 528.872C1386.73 511.27 1372.46 497 1354.86 497C1337.27 497 1323 511.27 1323 528.872C1323 546.475 1337.27 560.744 1354.86 560.744Z" fill="#FFCE83"/>
    </g>
</svg>
